<?xml version="1.0" encoding="UTF-8"?>
<svg id="Calque_1" data-name="Calque 1" xmlns="http://www.w3.org/2000/svg" xmlns:xlink="http://www.w3.org/1999/xlink" viewBox="0 0 305.1 506.93">
  <defs>
    <style>
      .cls-1 {
        fill: #245f59;
      }

      .cls-2 {
        fill: url(#Dégradé_sans_nom_18);
      }

      .cls-3 {
        fill: #d0dcdc;
      }

      .cls-4 {
        fill: #819f9b;
      }

      .cls-5 {
        fill: #8caca9;
      }
    </style>
    <linearGradient id="Dégradé_sans_nom_18" data-name="Dégradé sans nom 18" x1="152.55" y1="501.8" x2="152.55" y2="27.73" gradientUnits="userSpaceOnUse">
      <stop offset="0" stop-color="#c58c67"/>
      <stop offset="1" stop-color="#e1ba93"/>
    </linearGradient>
  </defs>
  <path class="cls-1" d="M269.01,338.06c-7.76,3.6-13.44,6.11-21.86,8.05-25.44,5.85-53.88,6.57-79.84,3.08l-5.77-.77-7.14-1.12-17.9-3.29-20.02-4.22c-13.81-2.91-35.77-5.35-49.74-4.1-10.13.91-19.97,1.67-29.55,4.86-4.25,1.41-8.58,2.24-13.04,3.19-1.07.23-3.36-.24-3.39,1.78-.06,3.83-.23,7.9.3,11.7l.92,6.72c3.14,22.9,13.82,44.84,28.35,62.57,1.97,2.4,4.43,4.18,6.13,6.62,1.44,2.06,2.89,3.03,4.67,4.65l7.95,7.29c14.13,12.96,41.27,24.13,60.31,27.18l6.07.97c9.27,1.48,17.51,1.38,26.94.91,1.19-.06,2.92-.69,4.29-.64,2.23.08,4.11-.38,6.15-.74l4.82-.86c7.88-1.4,18.46-5.29,25.97-8.43,3.52-1.47,7.08-2.47,10.41-4.12,14.73-7.33,30.29-19.11,40.8-32.05,21.71-26.73,33.11-62.64,29.44-97.34l-15.25,8.13Z"/>
  <path class="cls-2" d="M254.36,0c12.56,1.82,24.68,6.87,32.8,17.32,4.71,6.06,8.68,12.94,9.37,20.84s.69,16.46.67,24.87l-.05,27.72.39,29.69.14,17.01.22,161.7c2.4,6.55,3.8,12.78,4.89,19.41l.79,4.84c.49,3,1.14,5.62,1.04,8.81-.02.67.21,1.72.48,1.98v19.48c-.27.26-.49,1.3-.47,1.99.1,3.16-.54,5.82-1.03,8.77l-1.1,6.68c-5.64,34.1-25.63,68.03-52.87,89.68-.33,6.74-.87,12.02,6.21,15.44,5.82,2.81,9.19,8.01,9.39,14.08.21,6.33-3.29,11.68-9.08,14.79l-3.43,1.84H52.51c-2.78-1.64-6.12-2.98-8.27-5.48-6.53-7.61-5.23-18.14,2.98-23.77,6.45-4.42,9.62-5.09,8.07-17.17-27.63-21.79-48.21-56.91-53.55-91.49-.47-3.03-1.25-6.24-1.21-9.12,0-.3-1.81-19.71,1.21-37.52,4.78-28.17,17.28-54.13,36.18-75.5,4.7-5.32,9.47-10.18,14.78-14.73l5.83-4.99,13.48-10.68c7.28-5.77,14.23-11.71,19.99-19.08,8.53-10.91,14.29-23.3,16.12-37.09,2.25-16.93.77-41.16.69-59.03,0-.89-1.11-2.37-1.92-2.6-7.42-2.17-11.81-8.83-11.27-16.84.43-6.45,5.04-14.12,12.45-14.22l37.62-.51c.4-20.55-2.48-34.52,12.11-51.01,6.48-7.33,15.05-12.48,24.77-14.5l7.72-1.61h64.07ZM281.06,62.79l-.2,26.91-.09,32.37.4,108.19c.03,7.87.38,15.12.16,22.95-.08,2.9-1.73,6.56-.46,9.29,1.99,4.27,4.4,8.34,7.81,11.97V44.75c-.01-1.78-.74-4.01-1.12-5.82-3.2-15.41-15.67-27.87-32.2-29.29-21.37-1.85-43.19.08-64.89-.74-2.5,1.1-4.92,1.25-7.43,1.97-14.11,4.05-25.54,15.57-27.71,30.52-1.22,8.41.03,16.81-.53,25.72l7.2-.06c.61-8.57-.54-16.51.52-24.6,1.58-12.03,9.88-21.44,21.44-24.55,3-.81,6.41-1.63,9.61-1.64l56.01-.04c2.28,0,4.61.52,6.74.82,14.73,2.08,23.86,14.09,24.8,28.34.38,5.75-.02,11.23-.07,17.41ZM268.95,247.32c1.12,1.12,1.39,2.49,3.35,3.62v-48.26s-.16-32.51-.16-32.51l.15-30.61-.03-30.73-.07-61.63c0-1.93-.72-4.71-1.09-6.38-2.17-9.73-10.2-15.49-19.87-15.49h-58.35c-10.39,0-18.4,5.92-21.51,16.14l-.05,25.64,24.68.19c8.64,2.63,14.2,10.35,12.27,18.93-1.45,6.45-5.89,10.84-12.37,12.85l.11,59.64c0,1.35.66,3.85.95,5.2,5.33,24.01,16.97,37.69,36.2,52.09,17.41,13.04,20.56,16.02,35.77,31.29ZM192.03,89.85c4.14,0,6.69-3.4,6.84-6.65.12-2.69-1.84-6.79-5.61-6.78l-83.37.03c-3.26,1.34-5.57,5.1-4.89,7.78.78,3.06,3.13,5.68,6.98,5.68l80.06-.05ZM164.16,485.86c26.04-2.24,50.74-11.6,72.1-26.68,38.42-27.12,60.75-72.21,59.44-119.18-1.02-36.83-16.52-71.44-43.46-96.48-3.72-3.46-7.12-6.87-11.12-9.92l-20.93-15.97c-18.47-14.09-30.04-34.66-33.24-57.87l-.28-29.58-.39-31.06-67.84.08-.26,52.81c-.07,15.03-4.42,28.8-12.25,41.52-6.33,10.3-13.96,19.19-23.55,26.63-12.08,9.38-23.99,18.39-34.4,29.64s-17.74,22.31-24.33,35.25c-8.97,17.64-13.3,36.53-14.17,56.17-1.18,26.91,6.18,53.61,20.41,76.38,7.45,11.92,15.99,22.75,26.54,31.98,30.03,26.25,67.74,39.73,107.72,36.28ZM119.52,497.75c4.25,0,7.97-1.36,12.66-.81-.14-.84-.38-2.07-.98-2.19l-2.86-.57-5.32-1.18c-20.45-4.53-39.55-12.19-57.66-24.76-.76,7.55-4.16,13.33-10.68,16.32-2.88,1.32-5.42,4.66-4.26,8.02.83,2.42,4.13,5.25,7.19,5.25l61.92-.07ZM248.48,497.65c3.99-.01,6.4-3.97,6.67-6.28.41-3.52-1.58-6.36-5.02-7.47-6-2.87-9.79-8.26-10.02-15.72-20.46,13.28-42.17,22.12-65.64,26.24-.86.15-1.65.31-2.12.44-.44.12-.03,1.95.5,1.99l13.83.98,61.8-.18Z"/>
  <path class="cls-4" d="M281.52,313.7l-8.69-1.3-4.16-11.4c-7.04-19.27-20.48-36.4-35.23-50.44-2.81-2.67-5.52-5.42-8.44-7.89l-15.61-13.16c-4.61-3.89-8.96-7.67-12.84-12.27-5.76-6.82-10.68-13.46-14.95-21.49-6.48-12.19-10.61-25.62-10.81-39.7l-.67-46.64,5.75-.11c.41,4.59.46,8.64.37,13.22l-.19,9.34c-.13,6.65-.22,12.96,0,19.68,1.12,32.5,15.5,57.41,40.93,76.96l9.04,6.95c6.41,4.92,12.55,9.72,18.23,15.53,3.87,3.95,7.75,7.49,11.27,11.77,12.3,14.97,21.13,32.23,25.98,50.95Z"/>
  <path class="cls-5" d="M132.25,254.04c5.75,5.49,5.23,13.94.27,19.12s-13.49,5.59-19.02.7-6.43-13.35-1.14-19.4c4.88-5.59,14.25-5.8,19.89-.41ZM124.28,269.48c3.77-1.15,5.58-5.64,3.83-8.58-1.99-3.33-6.27-4.2-9.4-1.89-2.47,1.82-3.15,5.08-1.71,7.69,1.34,2.41,4.08,3.76,7.27,2.79Z"/>
  <path class="cls-5" d="M219.24,303.08c-1.66,3.17-5.2,4.6-8.28,4.87-3.29.29-6.94-1.15-8.74-3.99-2.7-4.27-2.27-10.01,1.44-13.37,3.53-3.2,9.08-3.5,13.23-.34,3.45,2.63,4.81,8.14,2.34,12.84ZM209.34,294.36c-2.52.85-3.28,2.87-2.6,5.13.47,1.54,2.75,2.69,4.43,2.19,2.09-.63,3.46-2.38,2.77-4.55-.52-1.62-2.43-3.5-4.6-2.77Z"/>
  <path class="cls-5" d="M174.56,218.38c-1.51,5.39-6.78,7.86-11.68,6.06-4.45-1.64-7-7.4-4.59-12.08,1.98-3.85,6.83-5.55,10.55-4.03s6.97,5.57,5.72,10.05ZM168.41,219.11c.98-.56,1.33-2.36,1-3.49-.25-.85-1.49-1.97-2.57-2.05-2.04-.14-3.6.55-4.16,2.2-.38,1.11.21,2.96,1.2,3.68,1.17.85,2.78.66,4.53-.34Z"/>
  <path class="cls-5" d="M197.41,247.75c.36,2.89-.27,5.23-1.81,6.93-1.65,1.82-4.2,2.36-6.84,1.93-3.72-.61-5.95-3.4-6.18-6.75-.24-3.48,1.59-6.82,5.15-7.65,4.25-1,9.09.77,9.68,5.54ZM188.84,246.77c-1.91,1.03-2.16,3.13-1.15,4.65.65.98,2.57,1.38,3.76.8,1.65-.79,2.38-2.48,1.48-3.88-.84-1.31-2.52-2.41-4.09-1.57Z"/>
  <path class="cls-5" d="M85.09,277.48c-2.77,1.98-6.32-.15-7.28-2.68-1.14-3.01.77-6.2,3.64-7.03s6.1,1.28,6.6,4.61c.27,1.8-1.2,3.85-2.95,5.1Z"/>
  <path class="cls-5" d="M22.41,329.48s24.93-20.14,87.49-2.31c62.57,17.83,98.72,11.89,98.72,11.89,0,0,49.03-7.43,61.08-5.61,0,0,11.56,103.84-99.05,132.07l42.59-4.95s84.69-45.07,69.99-135.04c0,0-12.88-3.8-35.33-1.65s-60.75,12.71-102.02,1.98c-41.27-10.73-83.04-23.77-120.84-10.9l-2.64,14.53Z"/>
  <path class="cls-3" d="M59.35,436.76s-45.27-30.42-37.84-106.35c7.43-75.93,93.36-104.49,101.02-153.6,7.66-49.1,3.03-67.85,3.03-67.85l5.65.13s5.14,63.01-9.58,87.19c-5.31,8.72-11.16,16.75-16.67,23.64-9.01,11.28-22.18,22.02-30.38,30.7-13.15,13.92-43.35,44.96-44.92,78.36-2.34,49.53-.24,65.15,29.7,107.79Z"/>
</svg>