<?xml version="1.0" encoding="UTF-8"?>
<svg id="Calque_1" data-name="Calque 1" xmlns="http://www.w3.org/2000/svg" viewBox="0 0 1019.42 868.14">
  <defs>
    <style>
      .cls-1 {
        fill: #e6dccc;
      }

      .cls-2 {
        fill: #4c7c75;
      }

      .cls-3 {
        fill: #c98f68;
      }
    </style>
  </defs>
  <path class="cls-3" d="M716.81,298.56c-16.77,13.13-42,20.41-62.43,25.05-29.61,6.33-64.71,10.63-94.51,2.83-43.93-11.5-80.31-46.52-122.48-63.17-30.63-12.09-63.13-20.76-96.01-22.2,5.08,63.33,28.42,106.06,81.59,141.07-72.41-22.51-118-69.18-126.44-145.72-7.93-.69-18.36-1.24-25.84-3.25,3.18,34.72,9.65,60.38,28.86,89.98,77.01,118.64,284.67,121.44,384.14,32.01,17.12-15.38,38.64-39.57,40.37-63.46-1.2-1.85-1.23-2.03-2.7-3.67-.92,4.55-.5,7.37-4.54,10.53Z"/>
  <path class="cls-1" d="M295.32,182.89c16.79-.31,33.58-.06,50.35.76-1.68,14.76-3.07,27.02-3.55,41.84,47.2-4.82,94.63-6.96,142.07-6.39,17.6.07,42.16.03,59.53,2.07l-2.61,8.57c-47.91,2.5-95.18,1.82-144.26,4.47,29.35,9.14,52.26,16.89,79.55,32.43,14.41,8.21,30.32,20.2,44.22,27.6,20.12-16.19,48.33-21.18,73.53-22.48-4.6,8.17-6.24,12.45-16.05,15.11-17.68,4.79-25.28,2.15-40.6,14.54,38.14,22.87,82,15.42,123.64,6.21,6.52-1.44,34.23-9.4,38.08-14.02-2.05-8.86-48.04-9.91-57.58-10.29-9.08-1.36-21.37-.73-30.81-.51,1.35-4.87,1.93-9.11,5.2-12.78,27.94-.11,84.86-2.71,105.33,18.02-.92,4.55-.5,7.37-4.54,10.53-16.77,13.13-42,20.41-62.43,25.05-29.61,6.33-64.71,10.63-94.51,2.83-43.93-11.5-80.31-46.52-122.48-63.17-30.63-12.09-63.13-20.76-96.01-22.2,5.08,63.33,28.42,106.06,81.59,141.07-72.41-22.51-118-69.18-126.44-145.72-7.93-.69-18.36-1.24-25.84-3.25-6.05-1.75-13.1-2.18-19.42-2.77.03-2.99-.31-3.31,1.28-5.72,6.01-2.3,10.32-.53,18.22-1.83l1.21-.21,22.9-.24.45-39.51Z"/>
  <path class="cls-3" d="M543.72,221.17c24.95.71,52.93-2.88,77.34-1.55-1.85,3.8-3.7,7.76-5.71,11.46-13.27.42-26.01.66-39.31.18-11.38-.41-23.67-1.84-34.93-1.52l2.61-8.57Z"/>
  <path class="cls-3" d="M492.49,816.42c14.06-1.24,74.59,1.59,81.89,15.36l-1.39,1.66c-10.91,2.68-39.52-2.31-52.98-3.64-15.85-.61-30.98.6-46.71,1.97-8.23.71-33.3,5.6-38.81-.43,5.38-10.12,47.45-14.09,58-14.92Z"/>
  <path class="cls-3" d="M799.34,15.66c-55.54-4.11-119.3,28.97-132.1,86.44-3.81,17.06-1.3,31.86,1.44,48.87l-19.8.25c14.53-42.94,12.46-71.56-15.48-108.68-11.16-14.81-34.87-38.82-53.18-42.4-16.97-3.31-19.34,52.62-18.1,63.73,3.27,39.08,16.69,61.7,45.9,86.86-49.42,3.13-351.45-3.42-363.16,2.78-2.9,1.54-4.63,6.53-5.44,9.48-2.55,9.28-2.8,19.82-3.53,29.41-3.65,47.67,2.36,96.46,25.92,138.71,34.18,61.29,92.58,93.81,158.08,112.38,9.47,13.71,19.39,27.34,28.08,41.55,11.09,18.11,19.32,36.92,23.51,57.79,6.69,33.27,6.68,163.39-1.39,196.26-3.46,14.11-9.35,28.09-17.81,39.95-31.43,44.07-83.82,20.64-124.17,45.24l-1.42.87c-2.77,4.66-5.43,9.17-4.13,14.78,1.06,4.57,4.96,8.11,8.9,10.33,44.71,25.19,281.36,21.14,335.86,4.08,7-2.19,15.49-5.61,18.88-12.67,1.67-3.47,1.39-7.28.02-10.8-.83-2.11-2.14-4.01-3.43-5.87-12.57-5.84-10.64-6.05-25.41-10.17-25.66-7.17-61.94-3.03-83.28-17.78-19.34-13.37-34.31-47.82-37.43-70.26-2.75-26-2.54-53.35-2.18-79.62.53-39.33-3.61-81.05,7.37-119.08,9.59-33.23,28.47-57.28,47.87-84.59,72.51-21.42,138.41-58.39,168.93-131.96,16.18-39.02,17.48-78.62,15.21-120.12-.98-18-.58-21.78-7.59-38.34,5.68-5.98,11.22-10.99,17.17-17.51,25.03-27.41,40.61-66.74,41.71-103.72.44-14.62-14.91-15.37-25.81-16.18ZM756.4,35.24c6.22-1.73,12.53-2.53,18.9-3.49,7.04-.87,13.83-.41,20.93-.22-9.89,9.69-20.51,18.3-31.14,27.15-3.95,3.65-6.66,5.66-10.94,8.82,1.71-11.24,2.1-20.94,2.25-32.26ZM711.49,58.41c10.17-9.84,15.43-12,28.47-18.27l1.91.34c1.07,2.48-1.56,34.29-1.76,39.48-9.25,7.86-17.07,14.67-25.89,23.1l-1.14.31-1.25-.78c-1.21-8.85-.44-34.13-.33-44.17ZM698.16,70.58c1.79,2.34.31,21.13.58,25.82.44,7.44.79,12.53,2.35,19.95-6.85,6.99-12.66,13.2-19.11,20.56l-1.21.21-1.22-1.07c-1.65-26.66.86-44.17,18.61-65.47ZM638.77,130.23l-1.62.02c-3.92-7.32-4.7-9.65-7.19-17.58,2.53-9.06,4.01-13.95,9.27-21.74,5.54,6.81,3.9,31.77-.46,39.29ZM629.64,65.64c14.74,9.86,3.79,17.91-1.8,26.2l-.7,1.06-.75,1.86-1.37.43-1.87-2.26c-1.33-8.24,3.6-19.26,6.48-27.28ZM621.89,52.67c-1.44,6.35-3.79,13.65-5.66,20-.08.49-.98,2.17-1.24,2.7-4.78-5.25-20.49-46.02-23.26-54.52,9.55,4.86,24.52,22.27,30.16,31.83ZM578.67,28.64c3.13,4.22,12.07,25.87,13.26,31.4-5.13-3.08-10.07-7.52-14.73-11.38.17-6.91.08-13.24,1.47-20.02ZM576.36,64.68c14.78,5.88,30.63,22.94,33.35,38.93-3.29-1.39-16.27-8.98-19.21-11.29-11.53-9.03-12.33-14.79-14.14-27.64ZM585.27,103.53c10.76,7.62,18.25,12.26,31.47,14.27,4.32,8.42,6.99,14.94,9.43,24.02-16.75-3.24-34.09-23.47-40.9-38.29ZM709.48,358.76c-123.35,132.96-432.99,100.18-456.76-106.69-.83-7.23-1.24-14.42-1.46-21.68.03-2.99-.31-3.31,1.28-5.72,6.01-2.3,10.32-.53,18.22-1.83l1.21-.21-21.07.16c.08-20.87,1.5-35.7,3.99-56.47,32.58-.83,66.4,0,99.14.08l140.54-.35,94.4-.11c22.6-.07,46.64-.73,69.03,1.24-14.02,23.34-66.28,113.04-70.6,133.03l.76,1.71c14.4,4.74,17.55-7.73,22.75-18.41,9.89-.05,20.94.14,30.73-.22-9.08-1.36-21.37-.73-30.81-.51,1.35-4.87,1.93-9.11,5.2-12.78,6.67-9.67,15.12-26.8,21.97-38.03,13.59.8,30.32-.2,44.32-.44,25.43-.22,50.84-.62,76.24-1.22.75,47.53-16.82,93.52-49.07,128.45ZM664.67,220.31l-20.58.84c6.01-13.92,22.76-41.15,30.97-55.17,16.17,1.85,46.47.28,63.19-.75,5.06-.5,11.95-.43,17.17-.54,2.69,19.39,3.53,35.1,3.79,54.48l-94.54,1.14ZM691.44,150.9l-.18-1.18c2.71-4.86,15.64-18.42,20.15-23.14,19.65,4.1,41.25,1.47,60.81-2.16h1.3s.53,1.04.53,1.04c-18.21,25.22-55.18,25.72-82.61,25.44ZM783.57,109.41c-20.01,5.84-39.46,6.16-60.07,7l-1.21-.33c1.92-6.01,24.22-23.28,30.37-27.51,16.25.39,27.2-1.56,42.96-4.98l1.75.04.26,2.02c-3.14,8.74-7.93,16.81-14.06,23.77ZM802.45,71.82c-11.92,1.08-22.7,2.59-34.52,4.28l-1.22-1.09c9.62-9.82,30.1-26.62,41.4-37.02,2.44,6.01-3.75,27.29-5.66,33.83Z"/>
  <path class="cls-1" d="M45.79,476.14c7.32.84,17.4,1.11,24.96,1.54,4.99,22.09,26.93,152.75,24.56,172.86l-2.62-1.25c-5.69-6.87-47.37-161.33-46.9-173.15Z"/>
  <path class="cls-1" d="M90.79,734.96l11.65,1.45c-1.79,13.2-15.02,82.94-19.49,92.57-3.65,1.65-7.86.92-11.98.66l-10.93-.76c7.63-26.68,21.19-68.32,30.75-93.91Z"/>
  <path class="cls-3" d="M212.85,781.43c-7.87-22.96-19.04-50.64-25.39-73.75,10.02-8.4,12.15-16.18,2.82-26.47-.69-.76-1.4-1.5-2.11-2.24,14.53-53.93,29.39-107.76,44.57-161.51,4.38-15.75,24.58-78.48,20.21-89.39-25.97-20.3-228.56-20.83-252.6.83-2.76,13.06,12.31,57.56,16.44,71.87l33.76,117.64c5.37,19.31,11.95,41.2,15.9,60.67-11.92,10.94-10.7,19.09,2.07,28.37-4.75,15.22-42.7,126.11-47.52,132.68.16,1.4.27,3.28.76,4.65,1.39,3.8,4.04,6.1,7.5,7.95,33.1,17.58,151.25,14.9,188.06,4.31,6.12-1.76,13.35-4.43,16.09-10.76,2.17-5,.31-9.72-1.23-14.57-5.23-9.6-15.52-39.18-19.32-50.28ZM14.89,434.93c24.52-4.54,68.97-6.36,93.86-7.4,41.49-1.55,91.09,1.78,131.97,7.45-34.76,3.35-56.07,6.2-92.02,7.24-45.35.37-88.73-1.15-133.81-7.29ZM17.3,448.86c56.49,8.85,164.31,12.65,219.19-1.05l-49.28,177.93c-5.25,16.68-9.23,33.86-13.86,50.77-27.64,5.1-63.15,4.13-90.69.73-4.52-15.08-9.09-30.42-12.95-45.67-15.45-61.07-36.7-121.88-52.41-182.72ZM177.27,694.73l-2.38,2.52-.94.29c-21.45,6.35-73.25,8.33-96.84-.9-2.51-.98-2.41-3.89-2.73-6.3,25.52,1.96,48.42,4.64,74.46,2.66,6.44-.5,23.61-2.89,28.21-.38l.23,2.11ZM89.56,849.05c-17.87-1.1-35.59-3.89-52.93-8.34,2.21-6.56,5.26-14.45,7.91-20.86,14.16-34.31,24.08-72.38,38.94-106.11,37.86,3.48,49.29,3.48,86.74-.11l.95-.07c.59.41,1.18.83,1.76,1.23,14.16,37.12,32.44,90.56,46.39,125.9-28.84,10.72-98.75,11.43-129.77,8.37Z"/>
  <path class="cls-3" d="M776.3,748.79c1.11.84,2.26,1.28,1.58,3.18-7.31,20.68-17.11,40.02-11.67,62.59,4.24,17.55,23.19,16.18,36.84,11.44,13.43-4.96,20.49-16.53,26.21-28.75,2.53-5.4,6.49-24.34,10.96-25.88,3.43,4.59,1.4,12.72.6,18.17l-.31,1.1c-6.57,24.74-27.33,52.07-54.66,49.12-47.17-5.11-37.14-68.78-9.55-90.96Z"/>
  <path class="cls-1" d="M978.75,170.95c18.29.6,18.34,13.55,9.82,26.31-4.51,2-3.1,2.18-7.04,1.24-6.5-6.53-7.44-19.61-2.78-27.55Z"/>
  <path class="cls-3" d="M986.49,146c-13.02-4.22-27.21-2.98-39.31,3.44-23.47,12.53-32.22,40.29-29.58,65.37,1.5,14.25,7.59,26.01,14.12,38.51-5.4,28.4-30.58,70.24-16.75,96.34-20.66,15.55-29.53,46.29-20.18,70.41-21.85,17.46-29.46,45.31-20.65,71.63-20.86,15.95-27.05,45.06-19.99,69.49-20.88,16.44-26.07,44.65-19.74,69.31-22.02,18.41-23.48,46.97-26.21,73.93-58.08,9.58-91.48,69.65-72.41,124.39,29.25,50.29,81.05,41.57,113.38,1.33,25.87-36.57,22.32-85.4-8.2-118.07,10.41-25.38,24.18-50.42,13.28-76.81,19.14-15.15,29.2-46,19.19-68.86,19.42-16.48,31.19-46.74,20.6-71.1,17.08-15.83,31.12-48.8,18.87-70.67,18.5-16.29,33.2-46.45,19.81-69.93,31.68-26.09,17.77-57.44,34.59-90.24,6.15-8.7,18.17-15.77,26.77-22.23,31.94-23.97,38.14-81.44-7.6-96.26ZM826.61,715.95c4.36,4.7,9.36,9.89,12.84,15.24,30.73,47.2,1.36,129.23-63.9,116.54-42.64-14.57-35.94-69.09-14.62-98.83,16.44-22.93,32.54-29.24,59.34-34.06,3.01-21.39,5.45-54.35,20.34-70.11,1.4.32,1.73.69,3.04,1.44,4.53,12.73-13.54,51.61-17.05,69.79ZM848.15,621.64c-9.16-9.76,3.17-37.53,11.94-45.66,10.01,9.67-2.69,37.33-11.94,45.66ZM867.99,552.48c-9.11-11.42,3.18-37.52,12.54-46.69,10.53,7.24-4.22,38.91-12.54,46.69ZM887.7,481.13l-1.18-.61c-8.74-11.21,4.28-37.12,13.18-45.88,10.88,8.68-3.29,38.73-12.01,46.49ZM908.16,409.99c-12.32-6.67,4.52-39.02,11.78-46.83,12.06,7.25-3.88,39.08-11.78,46.83ZM990.59,226.08c-7.79,8.02-32.35,24.08-34.8,29.28-10.06,21.33-12.07,49.2-19.31,72.13-2.15,4.62-4.1,10.18-8.84,12l-2.16-2.01c-5.19-12.77,17.75-68.5,22.49-85.13-5.75-9.54-13.28-21.22-15.57-32.09-3.65-17.37.34-38.61,12.46-51.96,6.3-6.93,11.75-9.31,20.66-11.28,43.2-2.83,51.41,41.91,25.08,69.06Z"/>
  <path class="cls-2" d="M683.68,355.15c17.12-15.38,38.64-39.57,40.37-63.46-1.2-1.85-1.23-2.03-2.7-3.67-.92,4.55-.5,7.37-4.54,10.53-16.77,13.13-42,20.41-62.43,25.05-29.61,6.33-64.71,10.63-94.51,2.83-43.93-11.5-80.31-46.52-122.48-63.17-30.63-12.09-63.13-20.76-96.01-22.2,5.08,63.33,28.42,106.06,81.59,141.07-72.41-22.51-118-69.18-126.44-145.72-7.93-.69-18.36-1.24-25.84-3.25,3.18,34.72,9.65,60.38,28.86,89.98,77.01,118.64,284.67,121.44,384.14,32.01Z"/>
</svg>