<?xml version="1.0" encoding="UTF-8"?>
<svg id="Calque_1" data-name="Calque 1" xmlns="http://www.w3.org/2000/svg" xmlns:xlink="http://www.w3.org/1999/xlink" viewBox="0 0 347.04 512">
  <defs>
    <style>
      .cls-1 {
        fill: #3f7875;
      }

      .cls-2 {
        fill: url(#Dégradé_sans_nom_18);
      }

      .cls-3 {
        fill: url(#Dégradé_sans_nom_18-2);
      }
    </style>
    <linearGradient id="Dégradé_sans_nom_18" data-name="Dégradé sans nom 18" x1="173.52" y1="499.26" x2="173.52" y2="24.56" gradientUnits="userSpaceOnUse">
      <stop offset="0" stop-color="#c58c67"/>
      <stop offset="1" stop-color="#e1ba93"/>
    </linearGradient>
    <linearGradient id="Dégradé_sans_nom_18-2" data-name="Dégradé sans nom 18" x1="173.41" y1="499.26" x2="173.41" y2="24.56" xlink:href="#Dégradé_sans_nom_18"/>
  </defs>
  <path class="cls-2" d="M347.04,118.15v203.02c-1.53.97-.68,2.77-.83,4.65-2.49,32.16-15.01,63.29-36.65,87.5-13.66,15.29-29.45,27.68-47.02,38.12l-52.71,30.35c-13.84,7.97-25.59,17.9-36.6,30.21-9.23-10.94-19.31-19.76-31.31-26.82l-46.57-27.39c-30.76-17.18-59.74-38.83-76.81-70.39-9.54-17.63-15.72-36.21-17.64-56.09-.15-1.58.73-3.55-.89-4.07V118.01l126.58.03-3.06,10.01c-2.92.31-5.22.52-8.08.53l-104.64.05c1.19,65.75-1.27,130.78.98,195.74,1.45,41.9,24.35,79.2,57.1,103.58,10.28,7.65,20.31,13.78,31.28,20.09l34.43,19.81c13.94,8.02,27.02,16.43,38.51,27.9,8.67-8.15,17.08-15.23,27.09-21l58.09-33.52c44.02-27.19,71.16-61.35,76.78-114.18l.09-198.57-111.66.09-3.02-10.53,126.57.12Z"/>
  <path class="cls-1" d="M173.93,470.99c-4.49-.83-6.22-5.61-6.22-9.5v-42.07c0-2.09-.51-4.25-.89-6.37-35.66,13.51-74.74,10.41-103.44-15.57-23.3-21.09-33.49-49.32-34.82-80.57,17.75-1.76,34.8.3,51.46,4.85,24.31,6.64,45.48,19.79,62.24,38.53,9.78,10.94,16.5,23.29,24.42,36.6l.7-36.73c.17-9.02.67-17.73-.12-26.61-35.37-9.39-68.73-23.29-95.17-48.46-30.43-28.96-45.28-68.6-43.3-110.26,20.07,1.39,38.82,7.42,56.28,16.66,35.82,18.97,61.89,51.21,73.55,89.94,2.59,8.62,4.26,17.08,7.71,26.17,1.66-7.81,1.04-15.04,1.13-22.59l.44-37.55c-25.67-24.74-36.1-57-33.34-92.4,2.25-28.85,17.49-55.62,38.67-75.49,37.74,35.03,49.6,84.83,29.96,132.36-5.56,13.45-13.94,24.85-24.23,35.08l.5,60.87c4.25-7.21,4.57-14.67,6.71-22.05,8-27.55,22.59-53.03,44.06-72.27,21.32-19.1,47.06-32.39,75.17-37.34,4.54-.8,8.32-1.05,12.74-.58.66,5.31-.17,9.64-.5,14.82-1.91,30.31-12.87,59.62-32.38,83.1-26.38,31.74-65.74,49.23-106.13,59.7l.2,63.77c7.66-10.39,11.64-20.98,19.35-29.78,16.93-22.61,40.44-38.39,67.74-45.62,16.61-4.4,33.58-6.51,51.17-4.76.1,52.17-36.19,100.63-90.57,103.48-15.7,1.24-31.95-1.29-47.84-7.54l-.21,50.18c-.01,2.82-2.75,6.36-5.04,7.97ZM171.26,226.33c.12.81.67,2.23,1.14,2.67.36.34,1.1.28,2.12.06,4.13-19.05,4.2-43.2,3.26-62.74-.4-8.34-1.59-21.76-3.46-29.25-1.22.16-2.45.54-2.55,1.11l-.45,2.61c-.42,2.43-.8,4.63-1.01,7.12l-.78,9.15-.77,11.64c-.73,11.08-.74,21.77.01,32.88l.76,11.14.83,7.58.91,6.03ZM196.35,311.99c14.51-11.84,26.88-25.06,39.24-39.01,13.44-15.17,26.47-30.68,37.43-48.46-8.56,3.94-14.01,10.88-20.47,16.35-7.44,6.3-13.51,12.71-20.27,19.94-14.12,15.1-28.17,31.21-38.23,49.33-.26.47-.41,1.67-.44,2.1-.02.35.65.79.97.68s1.28-.55,1.76-.94ZM137.14,300.38c5.39,4.75,9.71,10.49,16.86,13.47-4.13-9.31-9.86-17.13-15.93-24.93-17.91-23.01-38.24-43.78-60.42-62.59-.49-.41-1.13-.73-1.5-.78-.28-.03-.69.41-.8.67s.01,1.24.29,1.66c14.54,21.99,41.49,54.86,61.5,72.49ZM136.92,382.21c-19.84-15.58-41.99-28.05-65.68-37.16.8,4.37,4.3,4.91,6.6,7.37,22.47,17.77,46.74,32.97,72.07,46.37.81.43,2.04.35,2.52,0,2.34-1.66-13.39-14.91-15.52-16.58ZM195.18,399.05c7.66-3.42,14.17-7.05,20.95-11.17,19.6-11.9,38.68-24.21,56.38-38.76.41-.34,1.17-1.26,1.46-1.6.23-.27-.14-.87-.72-1.8-25.98,10.3-59.04,28.4-77.69,49.41-1.04,1.17-2.12,2.83-.38,3.92Z"/>
  <path class="cls-3" d="M173.33,19.05l-19.08,30.26-12.3,19.04c-5.96-2.8-11.26-5.79-17.01-8.95l-33.48-18.38,14.19,51.17,36.52.2-7.31,10.52c-10.02-.03-19.43-.23-29.16.57-3.09.25-6,.35-8.78-1.24l-14.06-52.58-7.36-29.68,40.86,22.67,21.93,11.57L173.13,0l35.36,54.15,29.12-15.56,33.72-18.57-7.04,27.64-14.57,55.06c-8.06.84-15.76.27-23.74.21l-14.74-.11-6.56-10.54,36.23-.09,14.14-51.32-34.47,18.99c-5.25,2.89-10.1,5.55-15.92,8.09l-31.34-48.9Z"/>
</svg>