<?xml version="1.0" encoding="UTF-8"?>
<svg id="Calque_1" data-name="Calque 1" xmlns="http://www.w3.org/2000/svg" viewBox="0 0 312.95 267.14">
  <defs>
    <style>
      .cls-1 {
        fill: #040605;
      }

      .cls-2 {
        fill: #2a484b;
      }

      .cls-3 {
        fill: #dec2b7;
      }

      .cls-4 {
        fill: #376666;
      }
    </style>
  </defs>
  <path class="cls-1" d="M180,257.28c-12.4,12.99-35.29,13.32-47.14-.02-37.25-.49-73.86.56-110.73-.47-10.98-.31-21.79-10.17-21.81-21.07L0,105.75c-.02-7.22,5.03-13.56,12.08-14.52,1.61-.22,3.13.52,4.48-.55,1.03-5.62-1.61-12.45,1.91-16.07s9.45-1.25,14.68-2.18l.23-11.14c.06-3.08,2.51-7.1,6.04-7.27,7.05-.34,14-.53,21.07,0l11.24.87c26.81,2.07,58.07,11.52,80.21,28.46.86-4.99.97-9.52.53-14.2-.51-5.44.13-10.86.05-15.94-.49-30.88,24.18-55.23,55.43-53.1,2.77.19,6.32.15,6.65,4.65.36,5.03.4,10.77-.1,16.05-1.51,15.96-10.33,29.81-24.56,37.09-9.03,4.79-18.67,7.12-29.13,6.17l.12,19.08c7.11-4.93,13.76-9.06,21.04-12.86,18.48-8.71,38.03-13.74,58.23-15.39l9.14-.75c8.02-.66,16.02-.33,24.25-.2,2.59.04,5.39,3.28,5.46,5.55l.43,12.68c4.81,1.34,14.03-1.78,15.9,4.07,2.31,7.22-1.35,15.21,2.85,14.91,6.02-.43,14.37,5.02,14.42,12.77.25,43.61.59,87.33-.14,131.03-.19,11.57-10.7,21.35-22.14,21.73-36.68,1.24-73.14-.07-110.37.56ZM201.18,7.97c-12.88.66-25.17,7.36-31.88,18.19-4.2,6.77-8.91,14.05-8.33,23.38l6.86-8.65c6.06-7.64,13.17-14.45,20.54-21.03,1.91-1.7,4.4-1.99,6.03-.23,1.77,1.9,1.19,4.36-.75,6.23-7.43,7.17-14.94,14.12-21.1,22.27-1.84,2.44-4.25,4.61-5.55,8.08,4.4.11,8.42-1.24,12.52-2.56,14.58-4.7,24.81-17.16,26.7-32.14.05-.38-.11-.95.06-1.29.26-.53.29-.99.29-1.58.01-3.47.28-6.97-.36-10.61l-3.46-.37c-.48-.05-1.31-.1-1.58.32ZM41.54,63.01c-.87,43.69-.11,87.5-.36,131.43,0,1.17.36,10.07.73,10.64.29.44,1,.57,1.78.59,14.13.33,28.03.96,41.94,3.53,18.61,3.43,36.79,8.32,53.13,17.7l13.39,7.69.07-140.49c-5.53-4.87-11.82-8.95-18.25-12.36-6.09-3.24-11.88-6.69-18.67-9.05-8.6-2.99-17.2-5.61-26.06-7.08-.17-.41-.82-.32-1.21-.36-1.03-.11-2.05-.37-3.09-.39-.04-.35-.58-.27-.85-.29l-.93-.06c-.05-.35-.59-.26-.86-.28-1.36-.13-2.85.11-4.15-.4-.7-.27-.82-.04-1.51-.12l-2.43-.27c-.2-.37-.84-.26-1.22-.28,0,0-7.86-.63-8.24-.71-.97-.21-2.13.21-3.08-.08-.7-.22-1.18-.28-1.93-.28l-17.15-.1c-.41,0-.74.08-.92.32-.12.17-.12.47-.12.71ZM248.46,62.39c-.26.17-.86-.08-.92.32s-.39.82-.39,1.4l-.07,68.08c0,1.77-2.16,2.9-3.3,3.26-1.8.58-3.48-.34-4.82-1.56l-13.09-11.95c-.59-.54-1.19-.87-1.85-.9-.76-.03-1.12.55-1.71,1.09l-12.8,11.84c-1.22,1.13-2.81,2.09-4.34,1.72-1.19-.29-3.77-1.01-3.78-2.89l-.16-61.59c-8.6,2.68-16.22,6.72-23.64,10.91-5.95,3.36-11.99,6.88-16.86,12.16-1.02,1.1-.02,3.5-.02,5.12l.11,135.16c5.43-3.32,9.85-6.53,15.13-9.07,29.8-14.38,59.71-19.32,92.61-19.85,1.46-.02,2.56-.52,2.56-2.21l-.1-25.73.09-2.45c.02-.46.77-1.23.01-1.56l.29-3.56-.1-46.96v-16.88s-.12-29.23-.12-29.23c-.02-5.01.61-9.75.03-14.94l-21.21-.04c-.58,0-1.07,0-1.57.32ZM236.27,63.46l-1.29.04c-1.49.04-3.12.02-4.42.71-.17-.06-.46.04-.64.06-6.91.72-13.79,2.25-20.77,4.27l.19,53.96,12.21-11.52c1.68-1.58,3.66-1.77,5.4-.1l12.11,11.58.12-58.22c0-.54-.36-.7-.6-.73-.1-.01-.27-.03-.35-.08-.57-.38-1.5-.55-1.95.05ZM104.4,221.78c-20.08-5.51-39.96-7.85-60.59-8.02-4.3-.04-10.42-3.75-10.43-8.62l-.19-124.38c-2.74-.12-5.57-.23-8.44.07l.02,148.67c0,.87.14,1.44.53,1.83.27.26.83.5,1.53.5l103.5.11c-8.52-4.64-17.01-7.41-25.93-10.16ZM287.29,231.04l.7-150.21c-3.1-.28-5.73-.16-8.65-.09l.05,119.86c0,6.68-3.19,12.88-10.82,13.06-21.46.51-42.96,2.9-63.77,9.15-7.76,2.33-15.16,4.87-22.53,9.08l105.02-.86ZM296.07,225.24c0,2.91-.13,5.1-.48,8.07-.33,2.72-3.77,6.57-7,6.58l-108.58.22-7.4.28c-3.93,6.35-10.49,10.78-18.1,9.75-6-.81-10.72-4.92-14.36-9.62-1.9-.2-3.55-.45-5.6-.45l-108.03-.06c-4.53,0-9.51-3.17-9.56-7.91l-.28-29.18-.25-103.37c-2.89-1.18-8.16.45-8.16,4.52l.17,131.09c0,7.65,7.82,13.68,14.96,13.69l111.52.2c1.35.36,2.67,1.97,3.5,2.85,4.83,5.09,10.86,7.32,17.71,7.25,16.08-.16,18.68-10.06,22.33-10.07l110.66-.33c8.27-.02,15.52-7.67,15.52-15.59v-126.3c0-2.48-.67-4.89-2.17-6.12-1.82-1.49-4.18-1.95-6.32-1.18l-.07,125.7Z"/>
  <path class="cls-4" d="M113.73,71.87c6.74,2.51,14.14,6.62,20.23,9.86,3.99,6.04,9.07,12.04,9.08,19.86l.19,112.32c0,1.09-.68,2.13-1.16,2.57-.56.51-1.68.21-2.43-.17-27-13.49-50.66-17.69-80.37-20.82-4.24-.45-8.68-.84-11.36-4.61-2.42-3.41-5.72-7.95-5.81-12.54-.77-38.63.4-77.03-.57-115.34,0-.25,0-.54.12-.71.18-.25.51-.33.92-.32,0,0,35.72-3.32,71.16,9.9Z"/>
  <path class="cls-4" d="M271.14,173.69c.05-.66-.85,1.74-.01,1.56l-.09,2.45c-1.33,1.03-1.37,2.91-1.85,4.6-1.27,4.49-3.77,8.65-7.66,11.27-2.25,1.52-4.99,1.69-7.73,1.96-31.33,3.11-53.1,7.28-81.74,20.97-.66.31-1.46.18-1.82-.09-.34-.25-.95-.79-.95-1.6l.22-108.57c.02-7.42,2.26-14.38,5.98-20.46.83-1.35,1.95-2.23,2.11-3.66,7.41-4.19,15.03-8.24,23.64-10.91l.16,61.59c0,1.88,2.58,2.59,3.78,2.89,1.53.37,3.12-.59,4.34-1.72l12.8-11.84c.58-.54.95-1.13,1.71-1.09.66.03,1.26.36,1.85.9l13.09,11.95c1.34,1.22,3.02,2.14,4.82,1.56,1.15-.37,3.3-1.49,3.3-3.26l-.3-65.02c0-.58.08-4.67.77-5.46,1.2-1.37,23.69.4,23.69.4.58,5.19-.05,9.93-.03,14.94l.12,29.23v16.88s.11,46.96.11,46.96l-.29,3.56Z"/>
  <path class="cls-2" d="M296.07,225.24l.07-125.7c2.14-.77,4.5-.31,6.32,1.18,1.5,1.23,2.17,3.64,2.17,6.12v126.3c0,7.92-7.25,15.56-15.52,15.59l-110.66.33c-3.65.01-6.25,9.9-22.33,10.07-6.85.07-12.87-2.16-17.71-7.25-.84-.88-2.15-2.49-3.5-2.85l-111.52-.2c-7.14-.01-14.95-6.04-14.96-13.69l-.17-131.09c0-4.06,5.27-5.7,8.16-4.52l.25,103.37.28,29.18c.05,4.74,5.03,7.91,9.56,7.91l108.03.06c2.05,0,3.7.25,5.6.45,3.63,4.7,8.36,8.81,14.36,9.62,7.61,1.03,14.17-3.4,18.1-9.75l7.4-.28,108.58-.22c3.23,0,6.68-3.85,7-6.58.36-2.97.48-5.16.48-8.07Z"/>
  <path class="cls-3" d="M104.4,221.78c8.91,2.75,17.41,5.52,25.93,10.16l-103.5-.11c-.7,0-1.26-.23-1.53-.5-.39-.39-.53-.96-.53-1.83l-.02-148.67c2.88-.31,5.7-.19,8.44-.07l.19,124.38c0,4.87,6.12,8.59,10.43,8.62,20.63.17,40.5,2.51,60.59,8.02Z"/>
  <path class="cls-2" d="M133.96,81.73c6.43,3.41,12.72,7.49,18.25,12.36l-.07,140.49-13.39-7.69c-16.34-9.38-34.53-14.27-53.13-17.7-13.91-2.56-27.82-3.19-41.94-3.53-.78-.02-1.49-.15-1.78-.59-.37-.57-.73-9.47-.73-10.64.25-43.92-.51-87.74.36-131.43.97,38.31-.2,76.72.57,115.34.09,4.59,3.38,9.13,5.81,12.54,2.68,3.77,7.12,4.16,11.36,4.61,29.71,3.12,53.37,7.33,80.37,20.82.76.38,1.88.68,2.43.17.48-.44,1.16-1.48,1.16-2.57l-.19-112.32c-.01-7.81-5.09-13.82-9.08-19.86Z"/>
  <path class="cls-3" d="M287.29,231.04c-.06-.02-.08-.22-.05-.77l-23.16.45,23.21.31-105.02.86c7.38-4.22,14.78-6.75,22.53-9.08,20.81-6.25,42.31-8.64,63.77-9.15,7.63-.18,10.82-6.38,10.82-13.06l-.05-119.86c2.92-.07,5.54-.19,8.65.09l-.7,150.21ZM286.82,227.28c.73-7.27.49-14.15.11-20.95-.81,7.28-.59,14.06-.11,20.95ZM223.36,230.49c-3.61-.05-7.28-.74-10.78.35,3.79,0,7.23-.13,10.78-.35ZM228.1,230.53c-1.05-.34-1.64-.36-2.16,0,.85.26,1.52.24,2.16,0ZM238.09,230.53c-2.97-.36-5.39-.31-7.85-.02,2.79.31,5.35.26,7.85.02ZM262.75,230.48h-22.82c7.75.44,15.21.38,22.82,0Z"/>
  <path class="cls-2" d="M177.6,82.12c-.17,1.44-1.29,2.31-2.11,3.66-3.72,6.08-5.96,13.04-5.98,20.46l-.22,108.57c0,.81.61,1.34.95,1.6.36.27,1.16.4,1.82.09,28.64-13.68,50.41-17.85,81.74-20.97,2.74-.27,5.48-.44,7.73-1.96,3.89-2.62,6.39-6.79,7.66-11.27.48-1.69.51-3.57,1.85-4.6l.1,25.73c0,1.69-1.1,2.18-2.56,2.21-32.9.54-62.81,5.48-92.61,19.85-5.28,2.55-9.7,5.76-15.13,9.07l-.11-135.16c0-1.62-.99-4.02.02-5.12,4.87-5.28,10.91-8.8,16.86-12.16Z"/>
  <path class="cls-4" d="M238.58,62.5c.24.03.6.19.6.73l-.12,59.22-12.11-11.58c-1.75-1.67-3.72-1.48-5.4.1l-12.21,11.52-.19-53.96c10.2-4.2,29.43-6.04,29.43-6.04Z"/>
  <path class="cls-4" d="M206.58,18.63c-.45-.23-.79.19-.71.6.07.34-.01.94.42.98-.17.34,0,.92-.06,1.29-.53.04-.81.62-.99,1.19-2.91,9.07-9.08,16.14-17.39,20.57-4.63,2.47-9.04,4.53-14.31,5.39-.31.05-.63.19-.82-.08-.09-.12-.13-.3-.16-.45,6.15-8.15,13.67-15.1,21.1-22.27,1.93-1.87,2.52-4.32.75-6.23-1.63-1.76-4.13-1.47-6.03.23-7.37,6.58-14.48,13.39-20.54,21.03-.82-.64.44-1.73.43-2.57-.17-9.11,3.24-10.09,1.05-12.16,6.71-10.83,19-17.53,31.88-18.19.3-.02.64.46.97.39.39-.08.87-.22.61-.71l3.46.37c.64,3.64.38,7.13.36,10.61Z"/>
  <path class="cls-2" d="M206.23,21.5c-1.89,14.98-12.12,27.44-26.7,32.14-4.09,1.32-8.11,2.67-12.52,2.56,1.31-3.47,3.71-5.64,5.55-8.08.03.15.07.33.16.45.19.27.51.13.82.08,5.27-.86,9.68-2.92,14.31-5.39,8.31-4.43,14.48-11.5,17.39-20.57.18-.57.46-1.15.99-1.19Z"/>
  <path class="cls-2" d="M169.31,26.16c2.19,2.07-1.22,3.05-1.05,12.16.02.84-1.25,1.92-.43,2.57l-6.86,8.65c-.58-9.34,4.14-16.61,8.33-23.38Z"/>
  <path class="cls-2" d="M202.76,7.65c.26.49-.21.63-.61.71-.33.07-.67-.4-.97-.39.27-.42,1.1-.37,1.58-.32Z"/>
  <path class="cls-2" d="M206.58,18.63c0,.59-.03,1.05-.29,1.58-.43-.05-.35-.64-.42-.98-.08-.4.26-.82.71-.6Z"/>
  <path class="cls-2" d="M271.13,175.24c-.84.18.06-2.22.01-1.56.76.33,0,1.1-.01,1.56Z"/>
</svg>