<svg version="1.1" xmlns="http://www.w3.org/2000/svg" style="display: block;" viewBox="0 0 2048 2048" width="1024" height="1024" preserveAspectRatio="none">
<path transform="translate(0,0)" fill="rgb(218,225,217)" d="M 0 0 L 2048 0 L 2048 2048 L 0 2048 L 0 0 z"/>
<path transform="translate(0,0)" fill="rgb(44,59,57)" d="M 1019.89 380.977 C 1021.77 380.844 1023.69 380.688 1025.57 380.86 C 1040.99 382.275 1097.98 479.814 1107.22 498.388 C 1115.27 514.585 1120.31 534.013 1130.05 549.006 C 1138.02 561.268 1148.95 572.451 1158.49 583.549 C 1172.34 599.927 1186.3 616.205 1200.38 632.383 C 1211.15 616.899 1233.18 590.347 1257 595.925 C 1260.44 596.73 1265.46 601.877 1266.49 605.223 C 1275.66 635.175 1272.41 683.76 1262.41 712.784 L 1355.01 819.55 C 1375.34 842.93 1396.84 866.831 1416.47 890.693 C 1447.74 894.608 1492.25 901.569 1519.56 918.168 C 1526.7 922.508 1513.92 968.122 1511.73 975.927 C 1497.42 1026.17 1472.54 1072.77 1438.77 1112.62 C 1421.84 1132.75 1399.8 1155.72 1381.66 1176.01 C 1357.52 1203.01 1330.05 1237.14 1305.22 1262.29 C 1322.35 1263.79 1395.01 1273.02 1402.4 1287.79 C 1402.63 1295.94 1396.53 1308.01 1392.82 1315.3 C 1353.54 1392.41 1276.27 1449.12 1194.52 1474.92 C 1182.47 1487.62 1167.28 1506.39 1155.65 1520.01 L 1073.88 1615.75 C 1059.49 1632.57 1043.39 1652.44 1028.36 1668.4 C 1027.2 1668.78 1022.04 1670.07 1021.01 1669.13 C 1010.11 1659.26 999.261 1645.24 989.758 1634.09 L 892.838 1520.73 C 880.339 1506.11 866.807 1488.9 853.151 1475.78 C 851.007 1473.72 823.127 1463.84 818.635 1461.97 C 801.953 1455.08 785.865 1446.84 770.534 1437.32 C 723.585 1408.29 681.828 1366.61 656.324 1317.41 C 654.006 1312.29 641.83 1291.01 646.22 1286.89 C 656.125 1277.57 672.755 1274.4 685.946 1271.21 C 704.419 1266.74 723.911 1264.36 742.951 1262.35 C 700.975 1216.38 661.471 1168.52 618.51 1123.46 C 602.166 1106.31 585.366 1083.17 573.502 1062.68 C 552.382 1026.3 537.443 986.672 529.295 945.404 C 527.883 938.546 525.001 926.785 526.735 920.288 C 540.596 903.916 609.386 893.544 631.952 890.612 C 652.528 865.301 676.606 838.901 698.16 814.095 C 726.987 780.313 756.112 746.786 785.529 713.516 C 778.403 691.541 768.498 614.865 787.697 598.741 C 791.385 595.698 796.139 594.261 800.896 594.751 C 820.646 596.617 836.668 617.784 847.768 632.073 C 859.734 619.402 873.584 601.698 885.371 588.379 C 892.331 580.514 913.428 556.883 917.938 549.033 C 923.692 539.019 932.422 517.018 938.41 504.862 C 955.64 469.892 974.902 438.541 998.187 407.243 C 1004 399.427 1012.74 387.104 1019.89 380.977 z"/>
<path transform="translate(0,0)" fill="rgb(205,148,113)" d="M 1020.77 510.829 C 1025.35 510.829 1026.91 510.648 1030.24 513.517 C 1033.41 519.771 1031.76 639.458 1032.84 657.333 C 1037.49 648.34 1042.23 638.924 1046.67 629.95 C 1052.4 618.365 1061.77 592.532 1069.22 583.756 C 1072.48 582.449 1072.23 582.495 1075.71 583.002 C 1077.82 584.825 1078.64 585.839 1079.01 588.682 C 1080.87 602.961 1041.72 673.525 1032.26 686.391 C 1032.7 713.083 1032.21 739.823 1032.74 766.828 C 1047.66 742.738 1059.44 715.553 1074.14 691.352 C 1076.65 687.217 1082.56 690.759 1084.96 694.22 C 1086.12 710.926 1044.33 776.967 1032.32 791.717 C 1031.7 888.175 1031.87 984.636 1032.81 1081.09 C 1039.13 1064.37 1043.34 1048.78 1050.94 1031.79 C 1056.4 1018.16 1065.89 1005.25 1070.87 991.548 C 1082.35 959.974 1098.75 888.79 1131.59 874.315 C 1128.45 850.279 1122.18 820.135 1138.68 798.375 C 1144.32 790.933 1151.8 791.601 1159.97 791.228 C 1160.48 784.507 1157.3 775.486 1156.9 768.446 C 1155.51 744.078 1156.13 711.771 1188.84 713.256 C 1188.87 679.54 1202.95 647.264 1227.45 624.044 C 1232.39 619.363 1242.63 613.166 1249.64 612.53 C 1254.56 616.414 1254.51 627.108 1254.71 633.024 C 1256.15 674.648 1247.38 719.742 1236.69 759.903 C 1256.66 750.107 1287.71 745.06 1282.48 778.995 C 1278.78 802.98 1256.86 826.267 1238.15 840.553 C 1245.75 841.493 1256.03 842.905 1260.13 849.889 C 1270.38 867.351 1238.76 894.363 1227.11 902.26 C 1206.65 916.126 1180.17 924.3 1156.2 919.746 C 1136.27 943.731 1112.11 966.282 1093.98 991.03 C 1044.23 1058.98 1030.99 1147.67 1032.53 1229.96 C 1032.74 1241.16 1033.23 1253.68 1032.44 1264.79 L 1032.33 1266.23 C 1046.46 1227.5 1058.64 1199.55 1085.1 1166.28 C 1091.12 1155.84 1108.56 1143.22 1113.02 1132.75 C 1119.37 1117.81 1138.39 1046.71 1152.32 1043.65 C 1155.74 1044.94 1155.66 1045.16 1158.07 1047.74 C 1159.87 1052.69 1157.27 1059.67 1155.24 1064.44 C 1148.29 1080.72 1141.28 1096.32 1135.65 1113.16 C 1141.86 1109.09 1148.65 1104.25 1154.12 1099.26 C 1159.7 1071.64 1185.87 1031.72 1201.59 1007.31 C 1203.84 1003.82 1207.72 1000.64 1212.12 1000.05 C 1215.83 1001.47 1214.27 1000.36 1216.79 1003.73 C 1217.83 1013.09 1205.12 1030.61 1200.12 1039.09 C 1191.68 1053.18 1183.64 1067.51 1176.01 1082.06 C 1184.11 1077.71 1232.68 1052.13 1237.1 1045.8 C 1250.68 1026.36 1276.91 990.677 1293.79 970.886 C 1299.01 964.76 1302.78 958.691 1311.36 957.865 C 1315.48 959.478 1313.76 958.244 1316.57 961.911 C 1317.2 970.877 1274.34 1018.95 1265.54 1030.42 C 1281.11 1023.19 1295.88 1012.86 1310.25 1003.43 L 1352.6 975.955 C 1360.41 970.839 1377.51 957.733 1385.27 955.971 C 1388.85 956.527 1388.81 956.913 1391.38 959.388 C 1391.73 960.869 1392.12 961.543 1391.64 963.074 C 1387.49 976.346 1320.05 1015.24 1305.71 1024.13 C 1319.48 1023.51 1332.95 1023.17 1347.01 1022.42 C 1365.32 1021.43 1384.48 1018.21 1402.84 1018.16 C 1405.23 1018.16 1406.77 1020.59 1407.95 1022.39 C 1408.16 1024.69 1408.53 1025.88 1406.81 1027.75 C 1395.68 1039.86 1305.67 1038.58 1287.37 1037.74 C 1265.43 1049.39 1243.56 1060.39 1222.11 1072.93 C 1253.38 1074.86 1284.87 1075.11 1316.16 1076.77 C 1324.14 1077.2 1333.14 1075.59 1336.13 1084.03 C 1335.41 1088.61 1331.48 1093.07 1326.83 1092.57 C 1286.68 1088.27 1243.36 1090.77 1203.67 1086.49 C 1188.69 1094.16 1164.64 1110.8 1151.17 1121.15 C 1171.61 1121.28 1192.06 1121.24 1212.5 1121.03 C 1222.34 1120.96 1248.97 1116.69 1250.24 1130.26 C 1245.12 1138.86 1209.48 1136.05 1199.55 1136.06 C 1177.39 1136.05 1155.22 1136.27 1133.06 1136.75 C 1052.1 1214.26 1029.3 1306.13 1031.89 1415.3 C 1032.49 1440.49 1031.35 1465.09 1034.71 1490.34 C 1050.37 1390.73 1095.66 1298.15 1164.69 1224.65 L 1182.95 1225.12 C 1170.27 1242.24 1155.98 1259.06 1143.19 1276.36 C 1100.56 1334.02 1069.79 1395.97 1056.02 1466.61 C 1053.21 1481.01 1051.55 1495.97 1049.32 1510.62 C 1070.19 1467.17 1097.21 1440.3 1129.28 1405.75 C 1133.97 1400.7 1137.48 1390.69 1141.32 1385.25 C 1148.35 1375.29 1170.75 1337.75 1183.15 1340.29 C 1188.95 1347.49 1181.13 1354.34 1176.46 1360.75 C 1169.91 1369.72 1163.1 1378.22 1156.79 1387.4 C 1169.58 1377.62 1183.07 1371 1196.36 1358.53 C 1209.81 1345.91 1224.71 1318.34 1241.43 1309.58 C 1243.37 1308.57 1245.5 1309.95 1247.18 1310.79 C 1249.77 1314.56 1249.06 1312.54 1249.41 1317.08 C 1246.43 1324.18 1232.82 1337.58 1226.99 1343.73 C 1244.3 1336.11 1261.71 1328.7 1279.19 1321.49 C 1288.46 1317.71 1313.19 1304.6 1318.6 1317.89 C 1317.92 1320.61 1316.5 1322.86 1313.78 1323.98 C 1276.49 1339.31 1238.44 1350.53 1204.46 1373.08 C 1217.39 1373.44 1274.79 1372.8 1280.78 1375.09 C 1283.21 1377.89 1282.43 1376.31 1283.07 1380.06 C 1281.83 1384.29 1278.88 1387.55 1274.41 1387.67 C 1245.04 1388.48 1213.81 1388.54 1184.53 1388.04 C 1172.91 1396.36 1161.41 1402.11 1149.87 1410.02 C 1165.39 1411.05 1180.6 1410.44 1196.13 1410.32 C 1202.18 1410.28 1208.92 1410.41 1209.99 1417.46 C 1209.41 1419.1 1208.97 1420.3 1207.54 1421.43 C 1199.28 1427.92 1147.55 1424.53 1135.74 1423.53 C 1127.27 1430.28 1116.93 1441.49 1109.46 1449.55 C 1060.35 1502.56 1044.38 1568.31 1027.17 1636.21 L 1023.97 1650.47 C 1021.49 1634.6 1015.41 1611.36 1011.26 1595.94 C 996.623 1541.46 974.83 1486.36 934.966 1445.27 C 927.849 1437.93 920.485 1429.59 912.409 1423.12 C 900.459 1424.76 843.126 1429.41 838.477 1417.48 C 838.885 1413.63 838.186 1415.27 840.463 1412.32 C 846.521 1409.57 888.263 1410.04 898.007 1409.78 C 886.386 1402.48 874.21 1395.47 862.384 1388.05 C 834.486 1388.1 806.04 1388.54 778.127 1387.84 C 772.906 1387.71 768.57 1386.97 765.825 1382.32 C 766.617 1377.31 770.99 1373.16 776.13 1373.31 C 798.688 1373.95 821.184 1373.48 843.757 1373.15 C 818.942 1356.76 791.084 1345.12 763.313 1334.67 C 755.096 1331.57 746.421 1329.16 738.376 1325.69 C 735.913 1324.62 733.198 1323.5 731.965 1320.92 C 731.106 1319.13 730.906 1316.88 731.895 1315.08 C 732.693 1313.62 734.103 1312.31 735.648 1311.74 C 746.002 1307.92 806.564 1337.28 820.249 1342.99 C 814.013 1336.6 797.878 1322.32 798.95 1314.01 C 801.163 1311.05 800.952 1311.21 804.342 1309.76 C 816.753 1309.6 841.263 1349.55 851.887 1358.84 C 865.613 1370.83 877.135 1378.33 892.215 1388.01 C 884.709 1376.3 874.518 1365.84 867.123 1353.95 C 864.161 1349.19 862.097 1348.48 864.287 1342.79 C 867.76 1339.84 865.872 1340.51 869.847 1340.01 C 884.858 1346.26 911.637 1394.98 920.884 1408.16 C 926.34 1415.93 936.649 1424.3 943.432 1431.52 C 966.697 1456.29 983.081 1479.72 998.721 1509.89 C 994.111 1484.44 993.416 1468 986.528 1441.13 C 964.326 1354.52 919.615 1292.42 864.312 1225.22 L 883.348 1224.73 C 896.074 1237.4 908.628 1254.32 919.44 1268.72 C 972.511 1339.45 998.742 1406.34 1014.38 1492.49 C 1016.03 1454.87 1016.46 1417.2 1015.67 1379.54 C 1012.92 1282.35 988.139 1205.01 915.644 1136.5 C 879.024 1137.03 841.381 1136.2 804.811 1135.22 C 800.058 1135.1 798.018 1128.34 800.096 1123.57 C 805.463 1119.06 823.635 1120.99 831.254 1121.04 C 853.01 1121.37 874.771 1121.33 896.526 1120.92 C 884.082 1111.55 858.52 1092.39 845.239 1085.82 C 832.019 1087.91 726.498 1093.59 716.333 1091.11 C 712.038 1087.1 711.407 1084.28 715.476 1079.45 C 722.888 1075.23 809.588 1073.86 825.752 1072.85 C 808.405 1062.49 781.208 1047.56 762.374 1039.29 C 752.563 1037 738.165 1038.38 728.785 1038.14 C 713.291 1037.75 644.773 1038.33 639.059 1025.86 C 638.952 1021.75 642.106 1017.35 646.433 1017.8 C 678.183 1021.09 709.501 1022.82 741.395 1024 C 715.088 1007.38 686.983 990.197 661.887 971.597 C 657.6 968.419 654.856 965.447 655.869 960.012 C 658.266 957.353 658.188 957.068 661.676 955.905 C 668.821 955.954 716.39 990.408 727.187 996.542 C 744.72 1006.5 763.632 1020.75 782.073 1030.37 L 783.502 1031.11 C 773.918 1017.84 761.666 1005.19 751.822 992.032 C 745.814 984 731.756 970.345 733.544 960.005 C 735.891 957.103 734.467 958.196 738.111 956.794 C 748.567 957.67 790.942 1018.47 800.703 1029.26 C 803.301 1032.13 806.735 1040.32 808.107 1044.3 C 821.102 1053.98 856.976 1073.64 872.309 1082.34 C 865.683 1069.4 831.324 1012.67 831.348 1004.83 C 832.673 1001.89 832.836 1002.11 835.567 1000.24 C 837.832 1000.1 839.196 1000.46 841.079 1001.79 C 852.833 1010.1 883.079 1067.64 889.338 1082.51 C 891.349 1087.29 892.643 1091.94 893.666 1097.02 C 899.766 1102.89 907.038 1108.76 913.563 1114.26 C 909.538 1102.15 889.246 1056.25 889.813 1049.37 C 891.386 1045.92 891.487 1046.12 894.661 1044.33 C 905.097 1044.31 908.912 1060.62 912.539 1068.75 C 921.051 1087.83 926.714 1107.55 933.018 1127.42 C 936.523 1138.47 951.947 1149.96 958.676 1159.31 C 983.823 1190.84 1006.13 1228.85 1015.72 1268.28 C 1016.79 1189.89 1016.6 1125.11 987.852 1051.21 C 963.515 988.639 932.837 968.339 891.996 919.181 C 852.093 927.017 801.972 901.326 786.953 861.048 C 781.923 847.559 798.555 841.775 809.622 840.557 C 789.16 826.553 757.8 789.735 767.312 762.821 C 773.534 745.217 799.778 753.633 811.75 759.241 C 798.419 719.466 788.75 651.9 796.877 611.237 C 806.375 613.352 815.91 618.793 822.549 625.861 C 846.902 651.786 858.798 678.417 859.273 713.36 C 900.394 709.926 893.58 766.026 888.085 791.199 C 891.93 790.907 896.174 791.038 900.059 791.062 C 900.281 791.202 900.503 791.341 900.725 791.481 L 901.815 792.209 C 927.953 809.431 920.562 848.559 916.256 874.272 C 917.707 874.781 919.119 875.392 920.483 876.101 C 938.597 885.68 958.873 930.464 963.84 948.806 C 971.73 977.947 979.673 998.91 994.306 1025.51 C 1002.9 1041.13 1010.56 1064.26 1015.55 1081.54 C 1016.3 1023.56 1016.47 965.574 1016.04 907.588 C 1016.36 868.808 1016.45 830.026 1016.3 791.244 C 1007.63 781.17 947.323 692.644 969.108 689.088 C 971.655 690.16 973.729 691.756 975.159 694.122 C 989.482 717.823 1001.5 743.353 1015.88 767.089 C 1016.26 739.675 1016.32 712.258 1016.08 684.843 C 1005.81 671.084 961.981 595.243 972.01 582.905 C 976.836 581.641 979.807 583.874 982.171 587.924 C 987.132 596.422 990.922 605.664 995.073 614.596 C 1001.55 628.859 1008.48 642.916 1015.84 656.747 C 1016.8 610.559 1015.31 563.081 1016.93 516.835 C 1017.01 514.559 1019.24 512.37 1020.77 510.829 z"/>
<path transform="translate(0,0)" fill="rgb(44,59,57)" d="M 808.938 634.939 C 817.031 641.594 826.845 655.278 831.278 664.773 C 848.692 702.078 843.807 712.797 832.416 747.913 C 831.448 751.566 830.715 755.612 829.948 759.342 C 821.326 733.523 805.009 660.336 808.938 634.939 z"/>
<path transform="translate(0,0)" fill="rgb(44,59,57)" d="M 1238.76 634.735 C 1243.27 661.347 1227.62 729.757 1218.79 757.335 L 1216.58 748.012 C 1211.8 735.232 1205.56 719.609 1205.9 705.89 C 1206.58 679.037 1220.07 653.215 1238.76 634.735 z"/>
<path transform="translate(0,0)" fill="rgb(44,59,57)" d="M 783.082 769.063 C 785.119 768.966 787.159 768.993 789.192 769.144 C 823.99 771.75 831.37 800.638 841.111 827.892 C 842.671 832.256 846.94 839.846 846.449 844.183 C 821.713 831.927 800.005 814.187 786.627 789.377 C 783.491 783.563 780.916 775.603 783.082 769.063 z"/>
<path transform="translate(0,0)" fill="rgb(44,59,57)" d="M 1181.48 729.751 C 1190.56 729.709 1194.43 735.452 1198.06 743.411 C 1211.45 772.758 1203.33 790.456 1192.47 818.731 L 1191.33 820.436 L 1190.01 820.115 C 1179.43 796.62 1160.12 752.615 1181.48 729.751 z"/>
<path transform="translate(0,0)" fill="rgb(44,59,57)" d="M 1256.2 769.119 C 1260.69 768.782 1262.24 768.649 1265.75 771.199 C 1268.27 776.39 1266.89 779.214 1264.4 784.164 C 1252.58 807.683 1233.62 826.127 1210.83 838.997 L 1201.09 844.109 C 1217.24 809.429 1213.49 780.322 1256.2 769.119 z"/>
<path transform="translate(0,0)" fill="rgb(44,59,57)" d="M 861.484 729.864 C 875.073 728.926 875.26 744.604 875.71 754.242 C 876.865 778.974 867.906 798.51 858.113 820.393 L 856.847 819.914 C 842.02 796.162 836.495 749.116 861.484 729.864 z"/>
<path transform="translate(0,0)" fill="rgb(44,59,57)" d="M 888.224 807.908 C 915.928 807.078 901.189 882.803 891.353 888.686 L 889.482 887.589 C 887.595 884.929 885.765 882.229 883.994 879.49 C 874.772 865.025 867.49 849.789 872.136 832.405 C 874.853 822.238 879.177 813.608 888.224 807.908 z"/>
<path transform="translate(0,0)" fill="rgb(44,59,57)" d="M 1154.83 807.71 C 1168.27 808.82 1173.42 824.042 1176.57 835.138 C 1182.15 854.8 1171.03 869.108 1161.23 884.768 L 1156.62 891.134 C 1147.04 871.325 1134.89 823.66 1154.83 807.71 z"/>
<path transform="translate(0,0)" fill="rgb(44,59,57)" d="M 808.309 856.232 C 827.062 854.439 849.508 860.837 862.296 875.868 C 865.726 879.899 877.856 899.318 877.481 903.48 L 875.245 904.238 C 852.756 903.713 832.909 893.147 816.862 877.714 C 811.943 872.983 805.39 867.302 804.343 860.288 C 805.438 856.814 804.403 858.307 808.309 856.232 z"/>
<path transform="translate(0,0)" fill="rgb(44,59,57)" d="M 1230.05 855.378 C 1235.15 855.69 1239.86 855.557 1243.45 859.361 C 1244.85 866.192 1238.44 870.809 1233.97 875.414 C 1219.97 889.832 1203.34 898.117 1184.11 903.398 C 1179.73 904.106 1173.19 904.418 1168.62 904.777 C 1186.69 875.157 1191.1 859.861 1230.05 855.378 z"/>
<path transform="translate(0,0)" fill="rgb(44,59,57)" d="M 912.193 890.364 C 914.328 891.167 914.658 891.779 916.346 892.619 C 925.975 897.41 948.127 948.769 948.679 955.576 L 946.182 953.824 C 932.599 937.333 916.643 924.695 905.05 905.762 C 906.557 901.664 910.179 894.573 912.193 890.364 z"/>
<path transform="translate(0,0)" fill="rgb(44,59,57)" d="M 1134.93 890.56 C 1138.62 892.341 1141.78 901.506 1143.63 905.662 C 1136.5 918.355 1116.1 938.975 1105.24 950.578 C 1103.34 952.774 1102.74 953.691 1100.45 955.519 C 1100.97 943.691 1124.82 898.196 1134.93 890.56 z"/>
<path transform="translate(0,0)" fill="rgb(63,97,94)" d="M 1336.43 906.418 C 1341.94 905.724 1357.94 905.661 1363.98 905.83 C 1410.94 907.144 1460.96 911.782 1504.71 929.507 C 1494 998.775 1454.34 1082.6 1400.08 1127.02 C 1336.48 1179.08 1234.09 1192.8 1154.31 1190.21 C 1134.66 1189.57 1116.02 1189.82 1096.15 1187.77 C 1106.75 1174.3 1123.68 1155.93 1135.76 1143.76 C 1150.47 1142.98 1242.85 1144.9 1249.09 1140.81 C 1253.15 1138.15 1255.47 1133.28 1256.03 1128.56 C 1256.43 1125.16 1255.76 1122.09 1253.46 1119.46 C 1250.55 1116.14 1246.06 1114.59 1241.83 1113.87 C 1235.18 1112.73 1227.95 1113.59 1221.22 1113.69 C 1205.89 1113.93 1190.14 1114.44 1174.86 1113.54 L 1173.7 1113.46 C 1183.24 1107.36 1195.74 1098.92 1205.4 1093.79 C 1231.36 1094.66 1257.32 1095.77 1283.26 1097.12 C 1292.67 1097.67 1332.15 1101.78 1336.06 1097.13 C 1362.08 1066.28 1308.54 1069.01 1299.65 1068.65 C 1282.58 1067.9 1265.5 1067.3 1248.42 1066.84 C 1256.81 1062.55 1280.87 1047.38 1288.96 1046.52 C 1328.21 1042.32 1375.66 1049.67 1412.41 1033.62 C 1414.91 1032.53 1415.67 1024.28 1415.84 1022.06 C 1414.89 1019.64 1413.86 1016.82 1411.95 1015 C 1402.2 1005.69 1350.47 1015.99 1334.79 1016.09 L 1333.27 1016.09 C 1345.3 1007.26 1361.69 996.852 1374.67 988.822 C 1385.17 982.328 1416.46 957.296 1389.15 949.294 C 1386.24 948.413 1383.11 948.532 1380.27 949.631 C 1372.8 952.559 1361.7 961.308 1354.45 965.897 C 1337.09 976.885 1319.8 989.076 1301.94 999.185 C 1309.64 987.196 1337.28 962.977 1314.94 950.883 C 1311.81 949.185 1303.35 951.231 1300.9 953.605 C 1274.2 979.45 1252.71 1011.89 1230.55 1041.63 C 1226.66 1046.83 1200.31 1059.65 1194.47 1062.35 C 1204.69 1047.97 1220.48 1023.15 1225.44 1006.55 C 1209.21 961.347 1172.78 1039.03 1165.84 1052.28 L 1165.59 1050.5 C 1165.01 1046.19 1164.04 1042.23 1160.45 1039.48 C 1144.39 1027.18 1135.54 1050.06 1131.19 1060.39 C 1126.35 1071.61 1122 1083.03 1118.14 1094.62 C 1115.59 1102.38 1109.8 1125.5 1105.69 1131.16 C 1092.4 1149.5 1073.93 1165.59 1061.45 1184.8 C 1062.78 1171.54 1066.11 1159.09 1068.56 1146.15 C 1095.48 1003.89 1189.98 917.341 1336.43 906.418 z"/>
<path transform="translate(0,0)" fill="rgb(63,97,94)" d="M 661.193 906.5 C 727.212 900.998 811.667 918.407 865.655 956.433 C 948.836 1015.02 970.162 1093.11 987.543 1185.69 C 975.516 1165.87 957.538 1149.65 943.841 1131.13 C 940.584 1126.73 937.108 1115.12 935.47 1109.58 C 929.812 1090.41 922.338 1072.43 914.3 1054.07 C 910.37 1045.1 903.132 1031.34 890.914 1037.71 C 885.951 1040.3 883.747 1043.88 882.607 1049.24 C 871.935 1045.77 849.082 969.507 825.167 999.62 C 817.431 1009.36 849.62 1056.22 856.182 1065.08 C 847.288 1058.52 821.41 1046.87 815.989 1039.09 C 798.621 1014.16 780.383 990.493 760.857 967.156 C 757.152 962.728 754.481 959.407 750.209 955.567 C 736.255 943.024 718.688 954.128 727.33 971.872 C 733.444 984.427 741.947 991.502 750.144 1002.22 C 722.236 987.494 696.913 966.456 669.792 950.488 C 666.894 948.782 662.281 948.022 658.976 948.73 C 655.145 949.575 651.81 951.913 649.709 955.226 C 638.055 973.934 702.263 1008.16 715.746 1016.37 C 705.906 1014.97 694.404 1014.55 684.366 1013.97 C 672.089 1012.63 655.416 1009.11 643.564 1010.97 C 638.933 1011.7 635.107 1015.11 632.939 1019.02 C 631.504 1021.62 630.103 1025.54 631.484 1028.14 C 641.718 1047.37 705.698 1043.54 726.15 1045.23 C 734.807 1046.18 752.188 1043.45 759.932 1046.51 C 772.884 1051.63 788.258 1060.49 800.634 1067.12 C 775.083 1067.05 747.466 1068.76 721.803 1070.11 C 716.934 1070.78 711.854 1071.18 709.047 1075.74 C 701.598 1087.83 706.339 1093.47 716.834 1099.48 C 729.096 1099.75 748.33 1098.13 761.22 1097.51 L 844.481 1093.64 C 853.833 1099.98 864.46 1106.83 873.179 1113.85 C 849.591 1114.34 825.377 1112.83 802.657 1113.43 C 796.953 1116.51 791.705 1120.46 791.778 1127.53 C 791.857 1131.51 793.507 1135.3 796.367 1138.07 C 803.34 1144.89 829.65 1142.88 839.583 1142.92 L 912.353 1143.03 C 923.072 1152.74 943.195 1176.46 951.792 1187.96 C 938.091 1190.08 913.424 1190.06 898.915 1190.42 C 822.054 1192.34 727.423 1182.04 662.476 1137.36 C 595.603 1091.35 557.981 1007.21 543.504 929.324 C 579.823 914.576 622.26 909.176 661.193 906.5 z"/>
<path transform="translate(0,0)" fill="rgb(63,97,94)" d="M 1024.3 401.777 C 1032.15 410.236 1048.84 435.012 1055.4 444.752 C 1099.6 510.398 1129.56 581.678 1131.8 661.761 C 1133.65 728.151 1115.23 792.992 1077.77 848.223 C 1065.87 865.771 1053.57 878.95 1039.16 894.276 C 1038.88 861.528 1038.84 828.777 1039.03 796.028 C 1043.6 789.066 1048.67 782.458 1053.22 775.484 C 1063.03 760.464 1095.5 706.924 1091.53 691.531 C 1090.67 688.205 1087.92 685.411 1085.03 683.696 C 1082.03 681.917 1078.74 681.524 1075.42 682.61 C 1062.94 686.69 1046.44 727.423 1039.74 740.231 C 1040.15 723.153 1039.64 705.168 1039.55 687.978 C 1053.62 668.283 1081.79 613.556 1087 589.824 L 1086.46 588.304 C 1084.55 582.809 1078.77 572.187 1072.12 574.562 C 1055.78 580.391 1048.8 611.266 1039.53 625.46 L 1038.73 626.657 C 1039.48 609.386 1041.39 520.659 1037.51 511.319 C 1035.4 506.253 1029.26 504.183 1024.56 502.424 C 1002.17 508.307 1009.51 527.853 1008.95 547.307 C 1008.19 573.331 1010.15 599.814 1009.3 625.913 C 1002.83 614.673 998.063 602.413 992.365 590.76 C 989.648 585.204 984.647 576.648 978.037 575.141 C 975.208 574.497 972.792 574.785 970.263 576.186 C 966.48 578.283 963.542 581.922 962.655 586.181 C 958.857 604.395 997.756 670.59 1008.9 687.775 C 1009.61 704.507 1009.05 724.388 1008.98 741.348 C 1000.95 724.874 992.063 707.997 983.189 692.022 C 977.91 677.767 954.494 681.131 956.119 694.41 C 959.221 719.763 994.127 776.379 1008.99 793.686 C 1009.84 825.122 1009.68 862.747 1009.41 894.238 C 959.605 845.997 927.667 782.273 918.822 713.505 C 903.275 593.68 952.972 494.135 1024.3 401.777 z"/>
<path transform="translate(0,0)" fill="rgb(63,97,94)" d="M 735.164 1281.58 C 778.788 1276.93 837.891 1290.49 875.367 1313.07 C 932.224 1347.34 957.041 1393.72 973.146 1455.55 C 959.001 1436.6 942.073 1421.92 926.483 1404.37 C 923.476 1400.98 918.362 1390.42 915.902 1386.07 C 911.016 1377.26 905.491 1368.83 899.373 1360.83 C 893.44 1352.93 879 1332.16 869.265 1332.37 C 857.057 1332.65 856.841 1344.94 857.003 1352.85 C 842.265 1338.18 830.869 1318.13 813.826 1305.47 C 805.627 1299.37 797.525 1301.73 792.871 1310.95 C 790.399 1315.84 793.217 1321.26 795.296 1325.9 C 781.702 1318.41 749.97 1301.73 733.517 1304.85 C 723.44 1306.77 721.147 1325.43 731.193 1330.01 C 746.612 1337.03 763.322 1342.22 779.378 1348.79 C 790.067 1353.6 803.093 1359.71 813.144 1365.41 C 801.326 1365.26 789.501 1365.51 777.708 1365.68 C 756.616 1366 751.367 1382.72 769.099 1394.86 C 783.285 1395.44 859.044 1392.55 866.084 1399.65 C 867.523 1401.1 867.178 1400.42 867.207 1402.37 C 860.736 1404.59 852.24 1402.24 845.79 1403.45 C 827.687 1406.85 827.082 1422.31 841.605 1431.46 C 857.844 1432.69 893.193 1431.2 910.68 1431 C 922.166 1442.5 934.314 1453.94 943.999 1466.97 C 876.86 1466.11 814.964 1449.34 759.996 1409.37 C 716.897 1378.02 687.603 1344.58 665.536 1295.73 C 688.641 1287.2 710.924 1283.9 735.164 1281.58 z"/>
<path transform="translate(0,0)" fill="rgb(63,97,94)" d="M 1279.57 1281.41 C 1307.63 1277.01 1356.82 1286.46 1383.81 1295.09 C 1352.4 1362.69 1297.5 1412.1 1229.88 1442.32 C 1189.24 1460.49 1148.34 1466.06 1104.33 1466.44 C 1114.67 1453.44 1125.8 1442.33 1137.74 1430.91 C 1153.49 1431.3 1200.82 1435.89 1212.02 1427.25 C 1214.62 1425.24 1216.85 1422.22 1217.09 1418.86 C 1217.34 1415.48 1216.28 1411.97 1214 1409.46 C 1205.49 1400.07 1187.5 1402.87 1175.94 1403.07 C 1179.14 1400.62 1183.81 1397.61 1187.22 1395.25 C 1207.5 1393.86 1229.4 1395.89 1249.87 1395.22 C 1263.6 1394.64 1289.61 1399.25 1290.14 1378.97 C 1290.6 1361.07 1244.38 1364.32 1231.58 1365.45 L 1232.33 1364.11 C 1233.32 1363.78 1234.31 1363.45 1235.3 1363.1 C 1251.17 1357.53 1263.64 1351.04 1282.33 1343.3 C 1296.67 1337.05 1345.02 1327.93 1315.86 1305.3 C 1308.64 1299.69 1263.13 1319.61 1254.19 1324.08 C 1255.95 1320.16 1258.11 1313.37 1255.68 1309.76 C 1236.18 1280.82 1204.44 1344.81 1192.38 1350.58 C 1192.67 1345.66 1192.85 1341.57 1189.77 1337.44 C 1187.54 1334.46 1183.89 1332.19 1180.1 1332.08 C 1161.03 1331.51 1131.91 1390.37 1121.71 1403.91 C 1116.95 1410.23 1111.04 1415.83 1105.79 1421.75 C 1096.47 1432.28 1087.5 1443.09 1077.41 1452.91 C 1081.06 1420.59 1102.32 1380.12 1123.03 1355.44 C 1163.41 1307.32 1218.5 1286.94 1279.57 1281.41 z"/>
</svg>