<?xml version="1.0" encoding="UTF-8"?>
<svg id="Calque_1" data-name="Calque 1" xmlns="http://www.w3.org/2000/svg" xmlns:xlink="http://www.w3.org/1999/xlink" viewBox="0 0 318.47 444.25">
  <defs>
    <style>
      .cls-1 {
        fill: url(#Dégradé_sans_nom_18-6);
      }

      .cls-2 {
        fill: url(#Dégradé_sans_nom_18-8);
      }

      .cls-3 {
        fill: url(#Dégradé_sans_nom_18-9);
      }

      .cls-4 {
        fill: url(#Dégradé_sans_nom_18-5);
      }

      .cls-5 {
        fill: url(#Dégradé_sans_nom_18-7);
      }

      .cls-6 {
        fill: url(#Dégradé_sans_nom_18);
      }

      .cls-7 {
        fill: url(#Dégradé_sans_nom_18-3);
      }

      .cls-8 {
        fill: url(#Dégradé_sans_nom_18-4);
      }

      .cls-9 {
        fill: url(#Dégradé_sans_nom_18-2);
      }
    </style>
    <linearGradient id="Dégradé_sans_nom_18" data-name="Dégradé sans nom 18" x1="159.23" y1="417.76" x2="159.23" y2="28.89" gradientUnits="userSpaceOnUse">
      <stop offset="0" stop-color="#c58c67"/>
      <stop offset="1" stop-color="#e1ba93"/>
    </linearGradient>
    <linearGradient id="Dégradé_sans_nom_18-2" data-name="Dégradé sans nom 18" x1="159.23" x2="159.23" y2="28.89" xlink:href="#Dégradé_sans_nom_18"/>
    <linearGradient id="Dégradé_sans_nom_18-3" data-name="Dégradé sans nom 18" x1="142.02" x2="142.02" y2="28.89" xlink:href="#Dégradé_sans_nom_18"/>
    <linearGradient id="Dégradé_sans_nom_18-4" data-name="Dégradé sans nom 18" x1="176.37" y1="417.76" x2="176.37" y2="28.89" xlink:href="#Dégradé_sans_nom_18"/>
    <linearGradient id="Dégradé_sans_nom_18-5" data-name="Dégradé sans nom 18" x1="190.15" y1="417.76" x2="190.15" y2="28.89" xlink:href="#Dégradé_sans_nom_18"/>
    <linearGradient id="Dégradé_sans_nom_18-6" data-name="Dégradé sans nom 18" x1="128.86" y1="417.76" x2="128.86" y2="28.89" xlink:href="#Dégradé_sans_nom_18"/>
    <linearGradient id="Dégradé_sans_nom_18-7" data-name="Dégradé sans nom 18" x1="159.28" y1="417.76" x2="159.28" y2="28.89" xlink:href="#Dégradé_sans_nom_18"/>
    <linearGradient id="Dégradé_sans_nom_18-8" data-name="Dégradé sans nom 18" x1="159.64" y1="417.76" x2="159.64" y2="28.89" xlink:href="#Dégradé_sans_nom_18"/>
    <linearGradient id="Dégradé_sans_nom_18-9" data-name="Dégradé sans nom 18" x1="159.56" y1="417.76" x2="159.56" y2="28.89" xlink:href="#Dégradé_sans_nom_18"/>
  </defs>
  <path class="cls-6" d="M318.47,93.59v4.24l-6.44,9.98c-1.54,2.39-3.73,4.19-5.77,6.16-7.4,7.13-18.02,12.65-28.53,12.19-3.63,5.73-7.12,10.91-10.49,17.42,9.76-5.73,19.86-10.29,31.32-10.26,2.4,0,5.9-.01,7.01,2.84-.9,2.64-2.83,6.11-4.8,8.15l-5.08,5.27c-7.91,8.21-18.23,13.35-29.67,14.7-2.02.24-3.81,1.31-5.87.15-.94-.52-3.05-.59-4.07-.46l-3.44,6.18-6.95,13.47c-.13.25-.74.79-.89.96s.45.78.63.63.63-.73.89-.89c10.78-6.49,24.12-9.79,36.71-8.54,1.84.18,4.23.5,4.8,1.67.6,2.53-.35,4.57-1.91,6.34-5.1,5.78-8.57,9.33-15.64,13.11-8.58,4.58-24.67,9.16-34.44,4.88l-12.03,23.17c6.1-2.29,11.42-4.92,17.47-6.3l4.17-.96,17.85.02c-.55,0,5.39,1.22,5.29,3.29-.05,1.02-.53,2.26-.99,3.58-7.62,7.76-16.82,14.57-27.52,17.18-8.74,2.13-16.99,3.01-25.61-.29l-13.51,25.93c-7.35,14.11-14.12,28.14-18.71,43.74l11.09-11.57c.21-1.85-.23-4.25.25-6.06,3.49-13.31,12.66-23.89,24.66-30.71,11.81-6.71,29.18-9.23,42.12-6.1,9.37,2.26,18.07,5.48,26.15,10.47.55.34,1.35,1.67,1.42,2.28.09.69-.45,1.94-.94,2.86-10.5,19.63-29.66,33.35-51.73,36.72l-6.02.92c-4.28.65-8.95.62-13.25,0l-4.9-.72-12.84-2.88c-2.69.27-4.64,3.46-6,5.44l-5.5,8.03c-.74,1.08-1.81,2.23-2.9,3.35l-12.98-.07c1.27-10.22,5.9-19.93,9.56-29.23,3.25-8.28,6.89-15.9,10.71-23.85l5.99-12.48,10.91-20.9c-5.01-6.66-8.03-13.88-9.44-21.87-7.98,16.69-16.96,26.58-35.61,31.78l-.02,76.49h-7.48s-.04-76.91-.04-76.91c-17.42-3.89-27.72-16.02-35.08-31.15-2.04,8.06-4.85,14.86-9.67,21.51,1.19,2.92,2.6,5.6,4.23,8.6,10.53,19.38,19.77,39.2,27.7,59.83,2.34,6.08,4.23,11.42,5.72,18.11l-12.7.08c-2.51-1.74-3.98-4.96-5.83-7.37l-2.55-3.32c-1.75-2.27-4.15-4.56-6.15-6.58-2.33,1.03-4.32,1.68-6.69,2.18l-4.96,1.06c-5.51,1.18-13.84,1.66-19.46.85l-4.45-.64c-13.21-1.89-25.21-7.4-35.74-15.71-4.33-3.42-8.04-7.47-11.56-11.64-1.8-2.13-7.08-9.91-6.85-12.18.09-.94.99-2.57,2.1-3.18,9.58-5.32,19.85-8.95,30.76-10.76,4.55-.76,12.86-.35,17.81.61,20.62,4.02,39.19,17.93,43.87,39.15.25,1.11-.21,3.26.24,4.15,4.61,4.23,6.06,7.48,10.84,12.25-8.02-24.06-19.61-45.98-31.49-68.13-.4-.75-.94-2-1.55-2.05s-1.84.53-2.49.65l-4.53.84c-7.55,1.4-19.19-1.08-26.07-4.42s-12.92-7.16-17.92-13.13c-1.06-1.26-3.33-2.67-2.97-4.49.53-2.68,3.38-2.72,5.63-3.58,17.92-.48,22.56-.27,39.91,7.37l-12.27-23.19c-12.76,4.87-30.77-1.56-41.44-9.2-3.58-2.56-11.55-10.64-11.05-13.84s3.85-2.66,5.99-2.87c13.1-1.31,24.59,1.92,36.49,8.7-3.05-7.64-7.42-15.79-10.76-21.34-10.19,2.22-19.82-.67-28.61-5.4-5.55-2.99-9.87-6.95-14.22-11.54-2.75-2.91-5.79-6.84-6-10.67-.19-3.39,10.07-2.4,12.09-2,9.37,1.66,17.71,4.53,26.21,10.46l-10.56-18.11c-7.71.46-14.5-2.17-20.8-5.79-9.74-5.58-15.87-14.47-20.65-23.33v-3.55c7.67-2.91,20.23,1.76,27.79,6.9-3.33-12.36-3.04-13.49-2.58-26.04.03-.85.9-2.63,1.09-3.29,4.05-3.68,12.1,5.82,14.43,8.8,5.02,6.42,8.38,13.7,9.92,21.95.66,3.55.48,7.75.05,11.53-1.27,11.3-7.5,2.66,5.5,22.06.59-12.68,2.79-22.84,9.55-32.48.77-1.09,1.69-1.94,2.77-1.97s2.4.64,3.02,1.76c5.76,10.44,7.27,23.42,5.94,35.07-1.46,12.71-8.04,20.38-8.13,21.15-.12,1,.74,2.26,1.24,3.16l7.77,14.09c.71-13.71,4.46-24.47,12.57-34.3.42-.51,1.5-1.04,2.03-1.11s1.63.48,2.04.98c5.75,7.08,6.79,22.5,5.55,31.08-1.08,7.47-2.9,14.44-7.27,20.62-1.02,1.44-3.02,3.66-2.64,5.56l8.13,14.78c.86-1.77,1.2-3.91,1.52-6.01,1.44-9.29,5.6-17.67,12.14-24.35l2.85-.11c1.79,3.23,3.06,6.46,3.71,10.44,12.47,3.94,20.91,10.03,29.26,20.22,2.57,3.57,4.65,6.68,7.12,11.02l.11-28.21c-11.17-2.36-19.3-9-26.6-17.11s-11.27-17.13-13.8-27.28c-.52-2.08-.55-4.39-.12-6.7.17-.92,2.5-1.45,3.51-1.24,16.24,3.38,29.38,15.96,36.93,30.88l.16-15.81c.04-3.94.39-7.84-.5-11.57-18.97-4.59-32.12-22.18-36.35-40.08-.28-1.17-1.15-8.35.88-9.4.98-.5,2.34-.14,3.45.19,11.43,3.31,17.9,8.29,25.42,17.39,2.87,3.47,4.64,6.78,6.87,11.03l.25-13.23c.08-4.01.48-7.99-.45-11.46-15.33-3.48-26.33-18.07-30.29-31.94-.8-2.79-1.78-7.76-.5-10.08,2.04-3.69,15.61,2.82,19.95,6.64s7.74,7.63,11.01,12.5l.36-8.08c.15-3.38,1-6.48.43-9.93-16.81-2.2-27.3-14.76-31.88-30.49-.56-1.92-.13-4.38-.21-6.53l3.16-1.21c8.33,1.32,15.4,4.73,21.94,10.3-1.37-4.33-1.33-7.81-.1-11.59-.49-6.62,4.1-16.62,8.55-21.45.59-.64,2.78-.63,3.45-.14,4.89,5.27,7.84,12.09,8.97,19.28.71,4.53.07,8.9.55,13.85,5.52-5.74,12.03-8.19,19.23-9.86,1.98-.46,3.48-.39,4.88,1.07s.54,3.41.07,5.26c-3.99,15.6-15,28.92-31.72,31.58l.06,19.33c2.33-4.23,4.16-7.73,7.84-10.46,2.98-5.26,20.77-14.49,23.68-9.92.54.85,1.17,2.34.93,3.79-2.87,16.91-14.57,34.56-32.48,38.23l.11,25.19c6.98-13.25,15.81-24.42,31.46-28.77,1.68-.47,4.95-1.96,6,.58.74,1.79.34,4.92-.07,6.81-2.8,12.88-9.33,23.58-19.07,32.38-5.21,4.7-11.33,7.55-18.45,9.7l.11,27.09c7.17-14.62,20.68-28.11,36.33-31.06,2.18-.41,3.57.23,4.73,1.73,1.08,1.38.11,2.78-.22,4.46-4.27,21.59-18.62,40.42-40.93,46.36l.05,28.13,6.1-9.55c6.97-10.9,17.77-18.27,30.26-21.88.73-2.47,3.5-13.47,7.17-9.78,7.92,7.97,12.34,19.31,13.03,30.99l4.22-7.64,5.12-9.74c-6.53-8.04-9.98-16.91-11.08-26.87-.41-3.68-.69-7.55-.02-11.19s2.81-18.16,7.27-18.82c.53-.08,1.69.46,2.1.94,6.73,7.81,10.78,16.93,12.22,27.06.38,2.68.14,5.2.73,7.96l9.58-17.35c-3.83-6.09-7.08-12.67-7.87-20.13-.7-6.57-.69-13.72.03-20.25.44-3.93,5.27-24.37,10.99-16.26,4.47,6.34,7.07,13.28,8.72,21,.85,4,.29,8.26.75,12.7l8.92-14.96c-.89-1.93-2.43-4.01-2.61-6.15-.41-4.9-.8-10.35.08-15.16,2.14-11.65,8.49-21.36,17.76-28.3,1.6-1.2,3.48-1.9,5.17-1.07,1.84.91,1.42,3.32,1.81,4.97.9,3.82,1.49,6.95.07,10.77l-.44,6c-.17,2.37-1.21,4.43-1.44,7.08,5.83-3.67,21.72-9.37,26.74-5.9ZM159.46,43.83c3.89-8.38,3.88-15.34,3.16-23.57-.27-3.11-1.84-6.12-2.88-9.18-4.2,4.99-4.72,16.07-3.83,21.84l.71,4.63c.34,2.22.95,4.47,2.83,6.29ZM141.68,37.3c-2.94-2.19-5.73-4.53-8.99-4.65,3.32,9.8,10.2,17.57,20.14,20.36-2.48-6.38-6.15-11.98-11.15-15.71ZM185.88,32.28c-9.67,3.83-16.09,11.69-19.99,20.61,8.51-.85,19.03-13.18,19.99-20.61ZM152.59,93.95c-2.1-11.45-9.31-21.5-20.25-25.52,2.68,11.22,10.01,20.2,20.25,25.52ZM165.79,94.01c10.62-4.29,18.73-15.56,20.88-25.58-10.85,3.43-18.37,15.44-20.88,25.58ZM43.23,101.68c-1.67-7.72-5.17-14.52-10.68-20.11-.04,3.1-.22,5.77.33,8.19,1.69,7.53,3.64,14.7,8.31,20.95.28.37.74,1.53,1.12,1.41,2.02-.67,1.18-9.25.93-10.43ZM276.32,112.49c6.06-5.98,10.96-23.24,9.43-30.36-7.58,8.63-11.7,18.71-9.43,30.36ZM36.39,117.8c-3.68-4.12-6.88-7.34-10.34-10.48-5.09-2.28-9.12-6.18-14.91-6.29,3.38,5.59,7.97,9.59,13.09,12.58,3.76,2.21,7.4,4.53,12.16,4.19ZM306.13,103.59c.52-.78,1.71-1.61.99-2.43-6.58,1.2-11.72,4.48-16.84,8.53-2.98,2.36-5.18,5.7-7.86,8.83,7.82-.93,19.77-8.96,23.71-14.93ZM126.59,107.54c3.23,14.67,12.73,26.36,26.11,32.09-4-13.46-13.11-26.39-26.11-32.09ZM177.3,132.62c2.65-1.43,4.01-3.54,5.69-5.68,4.45-5.68,8.21-11.99,9.51-19.56-11.47,3.66-23.11,20.34-25.75,32.1,3.75-1.7,7.42-3.79,10.55-6.87ZM66.11,150.55c1.79-3.68,3.51-7.19,3.9-11.22.5-5.13,1.16-20.28-1.87-25.36-1.22,2.97-2.28,5.61-3.12,8.64l-.93,3.36c.04,6.33-1.56,19.77,2.02,24.58ZM254.31,145.9c2.65-10.81,1.17-22.39-3.83-32.05l-1.32,6.17c-.33,1.53.21,4.17-.31,5.44-1.12,2.73-.35,4.65-.11,7.25.55,5.91.49,12.23,4.49,17.57l1.07-4.38ZM55.55,156.1c-8.79-8.27-18.94-13.22-30.49-15.11,5.32,7.46,21.52,17.73,30.49,15.11ZM293.84,141.04c-12.21,1.66-22.71,7.5-31.21,15.65,10.9.62,24.6-6.78,31.21-15.65ZM152.71,188.55c-2.03-9.2-9.22-21.7-16.57-27.26-3.92-3.17-7.76-6.35-13.09-7.7,2.57,8.02,6.37,15.28,11.4,21.79,4.65,6.02,11.22,9.9,18.27,13.17ZM177.17,182.13c9.68-7.6,15.09-16.85,18.15-28.6-14.4,4.2-25.01,20.41-28.6,34.19,3.91-.74,6.93-3.07,10.45-5.59ZM87.49,188.98c6.03-7.31,7.54-25.5,4.54-35.14-2.96,4.35-4.62,9.38-5.45,14.73-.54,3.53-.97,15.87.91,20.41ZM231.6,188.39c1.64-2.09-.03-4.07.9-5.72,1.88-3.35.39-6.99-.03-10.3-1.2-9.54-1.57-8.96-5.19-18.2-.97.72-1.45,2.07-1.26,3.62.12,1.01-.71,2.39-.78,3.15-.71,7.47.63,21.45,6.36,27.46ZM250.6,195.67c7.93-.77,20.45-6.33,26.14-12.71-2.01-1.16-3.92-.08-5.78.27-1.41.26-3.17.17-4.47.56-8.9,2.66-17.03,6.21-24.61,12.05,2.92.82,5.97.83,8.72-.16ZM76.91,196c-2.92-3.03-5.89-4.32-9.08-5.98-8.48-4.42-15.57-7.11-25.09-6.75,3.78,3.8,7.63,6.51,12.17,8.39,5.26,2.18,16.78,5.95,22,4.34ZM107.16,227.25c6.68-9.26,8.19-20.77,5.46-31.7-5.81,9.37-7.59,20.19-5.46,31.7ZM212.21,213.67c-.93-6.48-2.1-11.75-5.85-17.86-1.47,1.58-.36,3.32-.96,4.59-1.69,3.59-.42,7.23.04,10.88.77,6.03,2.75,11.73,6.23,16.43,1.78-8.76,1.63-6.5.55-14.04ZM184.76,224.4c4.48-5.97,8.14-12.44,8.9-20.53-5.97,2.49-10.28,6.72-14.69,11.32-5.82,6.07-9.93,13.72-12.38,21.97,5.71-.6,15.19-8.79,18.18-12.76ZM125.08,204.11c2.67,15.01,12.96,28.12,27.73,33.69-4.02-13.04-14.09-28.11-27.73-33.69ZM98.3,235.93c-7.24-5.67-15.18-8.55-23.68-10.51-1.64-.38-3.62-.25-5.41-.52-2.3-.34-4.54-1.51-7.06-.2,11.76,8.84,21.57,12.47,36.15,11.23ZM250.72,228.91c2.2-1.34,4.25-2.28,5.69-4.61-11.1-.63-26.08,4.43-35.46,11.54,11.29,1.29,20.5-1.28,29.77-6.93ZM71.01,273.85l-5.8-10.73c-6.37.54-13.34,2.99-19.91,4.98,8.9,2.29,17.45,3.44,25.72,5.74ZM95.5,281.06c-2.88-5.59-5.19-10.14-7.11-15.66-3.13-.85-13.04-3.6-15.56-1.77,9.23,14.53,7.35,12.93,22.67,17.43ZM246.23,263.22c-3.13-.18-5.53-.35-7.78.21l-8.3,2.07c-1.33,5.55-4.33,9.82-6.85,15.35,16.87-5.98,13.22-1.68,22.94-17.63ZM262.37,270.67c2.05-.35,3.75-.62,5.47-1.07,1.85-.49,3.68.78,5.54-1.3-5.62-2.26-14.04-5.08-20.08-4.99-1.51,3.63-3.24,6.81-5.41,10.25l9.51-2.03,4.97-.86ZM117.58,292.28c-2.78-10.66-11.59-17.82-20.15-23.19,2.2,5.54,4.54,9.92,7.31,14.49,3.9,3.24,7.68,6.11,12.83,8.7ZM221.15,269.26c-10.83,6.51-15.6,12.46-20.04,23.49,13.81-9.4,13.8-7.5,20.04-23.49ZM73.17,281.84c-5.49-1.52-10.28-2.85-15.48-3.87l-7.93-1.56c-2.18-.43-4.52-.41-7.25-.53,1.64,3.46,11.54,13.07,14.04,13.04.21,0,7.89-3.76,9.67-4.44l6.95-2.64ZM260.09,287.88c1.51.87,3.19,1.37,4.58.2,4.06-3.42,7.68-7.01,11-11.66-2.07-.81-4.04-.02-6.06.29l-7.06,1.08c-5.63.86-10.97,2.09-16.65,3.8,5.47,2.09,9.6,3.66,14.19,6.3ZM241.42,299.24c5.67-.77,10.65-3.24,15.18-6.01-5.5-3.06-10.7-5.05-16.43-6.7-1.32-.38-2.67-1.13-3.77-1.78l-3.55.67c-3.75.7-7.34,2.26-10.94,3.8l19.51,10.02ZM80.3,297.28l16.08-8.07c-6.89-2.61-11.37-5.47-17.69-2.82-5.39,2.26-10.6,4.15-16.14,7.15,4.28,2.17,14.32,8.4,17.75,3.73ZM232.58,302.48l-17.92-9.81-11.3,7.5,5.02,1.4c6.2,1.73,16.52,1.41,24.2.9ZM115.41,299.79l-10.59-6.57c-6.51,2.55-12.5,5.11-18.89,9.31,9.09.42,22.08,1.1,29.48-2.74Z"/>
  <path class="cls-9" d="M160.95,444.25h-2.96c-1.74-.98-2.53-2.23-2.53-4.48l.06-75.17,1.03-4.47c2.01-.07,4.21,0,6.45.22l-.02,82.15-2.03,1.75Z"/>
  <path class="cls-7" d="M148.62,398.97c-3.11,13.33-6.7,26.48-12.56,38.68-1.3.29-3.24.43-4.41.36-.99-.06-1.74-1.79-2.19-3.21,6.23-14.58,13.01-37.86,15.18-53.08l.84-5.86.97-9.2c.22-2.1.8-4.01.7-6.55l7.36-.05c.32,2.77-.53,5.1-.7,7.92l-.26,4.37c-.13,2.16-.62,4.03-.99,6.26l-.93,5.63-.82,4.58-1.01,5.09-1.18,5.06Z"/>
  <path class="cls-8" d="M188.57,436.87c-.63,1.55-4.34,1.69-5.52.47-6.48-13.57-10.81-27.6-13.9-42.16l-.98-4.62-.93-5.3-.87-5.34-.95-6.22-.84-6.18c-.35-2.58-1.39-4.8-.45-7.46l6.93.07c1.65,3.53.91,6.63,1.43,10.13l.98,6.6.88,5.78.9,5.3.72,3.99c2.25,12.56,6.35,24.55,10.97,36.43,1.04,2.69,2.97,5.27,1.65,8.51Z"/>
  <path class="cls-4" d="M204.99,411.44c1.24,1.65,1.96,3.28,1.31,4.78-.48,1.11-3.04,2.49-4.41,1.57-2.95-1.98-5.34-4.84-7.42-7.93-10.17-15.1-16.54-31.67-20.72-49.62l7.22-.24c.8,1.28,1.53,2.77,1.87,4.28,3.83,17.19,11.43,32.84,22.15,47.15Z"/>
  <path class="cls-1" d="M118.76,416.96c-1.45,1.75-4.31,1.08-5.46-.33-1.48-1.8-1.14-3.26.5-5.45,13.33-17.88,16.67-27.32,23.13-48.15.21-.67.18-1.7.51-2.14.46-.62,1.83-.86,2.63-.84l5.3.12c-4.59,19.6-13.61,41.08-26.61,56.78Z"/>
  <path class="cls-5" d="M183.78,334.29l-45.68.24c-2.8.01-4.64-1.02-4.91-3.65-.19-1.87.89-4.81,3.81-4.82l42.59-.18c2.26,0,4.45.54,5.26,2.49.61,1.45,1.09,5.01-1.08,5.93Z"/>
  <path class="cls-2" d="M185.23,354.02c-.69,1.1-2.07,2.57-3.11,3.51l-45.51-.11c-1.98-.58-2.62-2.86-2.54-4.28.07-1.24.75-3.98,2.67-3.99l45.32-.08c1.51,1.31,2.72,2.72,3.17,4.94Z"/>
  <path class="cls-3" d="M172.98,345.76c-2.04-.24-4.17.32-6.21.32l-28.63-.03c-2.13,0-4.16-1.67-4.27-3.33-.09-1.37.41-4.74,2.42-4.74l46.59-.09c1.44,1.27,2.57,2.9,2.35,4.51-.71,5.21-9.13,3.72-12.25,3.36Z"/>
</svg>