<?xml version="1.0" encoding="UTF-8"?>
<svg id="Calque_1" xmlns="http://www.w3.org/2000/svg" version="1.1" xmlns:xlink="http://www.w3.org/1999/xlink" viewBox="0 0 490 439">
  <!-- Generator: Adobe Illustrator 30.2.1, SVG Export Plug-In . SVG Version: 2.1.1 Build 1)  -->
  <defs>
    <style>
      .st0 {
        fill: #122528;
      }

      .st1 {
        fill: url(#Dégradé_sans_nom);
      }

      .st2 {
        fill: #ca956d;
      }
    </style>
    <linearGradient id="Dégradé_sans_nom" data-name="Dégradé sans nom" x1="694.71" y1="166.29" x2="336.27" y2="212.98" gradientTransform="translate(-5.5 316) scale(.5 -.5)" gradientUnits="userSpaceOnUse">
      <stop offset="0" stop-color="#c48b65"/>
      <stop offset="1" stop-color="#d5a984"/>
    </linearGradient>
  </defs>
  <path class="st1" d="M222,11.59c12.53-.41,25.15-.14,37.69-.25,7.98-.07,10.66-.74,15.78,5.78.51,6.25-1.26,20.59-1.93,27.44,8.77.38,9.54,6.89,7.1,14.26-1.2,3.63-4.15,4.48-7.45,5.74-.07,11.39-1.23,39.22,1.54,48.69,6.68,22.81,44.85,32.81,49.24,59.05.9,5.37.58,15.86.53,21.67-.12,11.48-.32,22.97-.59,34.45l-2.12,101.73c-.66,25.46-.26,51.13-1.38,76.59-.33,2.17-2.18,6.27-3.62,7.79-10.08,10.62-33.45,12.4-47.17,13.85-6.74.54-13.48,1.04-20.24,1.12-17.35.22-62.79-1.42-74.96-13.84-2.56-2.6-4.09-5.91-4.6-9.52-.99-6.95-.46-14.76-.57-21.81l-.69-41.39-2.03-114.19c-.19-17.5-1.68-44.11,1.35-60.59,3.26-17.71,38.31-33.92,45.44-49.77,6.25-13.91,4.17-38.41,3.91-54.07-8.79-1.85-10.3-9.59-6.54-17.5.84-1.76,4.06-2.02,5.93-2.3.05-5.65-.96-11.5-1.34-17.15-.52-7.81-.8-12.1,6.73-15.79Z"/>
  <path class="st0" d="M224.67,103.98c11.05,1.72,29.43.77,40.88.34,3.22,25.35,15.79,30.72,34.27,46.14,7.33,6.12,16.71,15.07,17.1,25.42.55,14.55-.12,29.5-.32,44.12l-1.97,96.26-1.02,57.96c-.08,7.32.28,27.31-1.07,33.7-5.14,6.99-12.8,8.57-20.82,10.19-8.94,1.8-18.26,3.01-27.35,3.49-22.69,2.17-48.33.11-70.68-4.68-5.08-1.09-11.49-3.47-14.91-7.42-1.38-1.6-1.82-4.21-1.85-6.26-.54-11.39-.42-22.82-.6-34.22-.48-22.08-.82-44.15-1.01-66.22l-1.33-68.31c-.21-9.85-1.86-57.36.82-63.9,11.55-28.18,45.69-28.41,49.85-66.58Z"/>
  <path class="st2" d="M244.03,184.71c24.59.53,38.98,10.41,52.63,30.04,3.88.07,8.42-.1,12.05,1.07,1.59,2.08.12,37.79,0,43.31-.76,26.92-1.36,53.86-1.79,80.79-4.07.43-7.74.54-11.84.67-11.82,17.98-25.38,25.47-46.68,27.9-24.56.13-39.88-7.92-53.7-27.89-3.71-.12-7.67-.51-11.39-.79-1.4-12.7-.55-29.31-.88-42.4-.68-27.31-1.35-55.05-.94-82.36,4.18-.23,8.61-.27,12.82-.37,11.86-19.07,27.28-28.56,49.73-29.97Z"/>
  <path class="st0" d="M238.84,192.17c22.32-3.14,42.57,9.95,52.67,29.33,3.5.26,7.37.32,10.91.45.21,25.65-1.81,52.04-1.86,77.76-.02,11.1-.25,23.19-.99,34.24l-9.43.48c-9.59,16.2-19.37,23.12-38.02,26.5-6.86.8-13.8.38-20.52-1.24-15.6-3.78-23.71-12.09-31.66-25.17-3.1-.08-6.49-.38-9.61-.59-.86-14.82-.78-32.41-.98-47.36-.44-21.56-.74-43.13-.89-64.7l10.26-.36c9.04-16.68,20.9-26.6,40.13-29.35Z"/>
  <path class="st2" d="M237.84,391.72c9.13-.27,59.67.9,62.32,9.92-.85,1.87-2.29,2.73-3.92,4.05-15.35-4.7-25.37-5.75-41.11-6.66-22.88-.65-39.58.42-61.67,6.29-1.56-1.52-2.56-2.18-3.28-4.16l.55-1.14c7.06-5.7,37.15-7.8,47.11-8.31Z"/>
  <path class="st0" d="M224.41,64.9c14.11.37,27.42.2,41.52-.01-.55,10.55-.4,21.96-.45,32.58-13.37.6-27.28,1.18-40.62-.05-.49-10.29-.37-22.09-.45-32.51Z"/>
  <path class="st0" d="M244.75,18.24c5.33.13,19.4-1,22.68,1.63,1.68,2.75-.84,19.1-1.15,24.65-6.55.14-13.1.22-19.66.21-7.36-.09-14.92.03-22.29.06-2.94-28.02-8.6-26.35,20.42-26.55Z"/>
  <path class="st0" d="M261.52,51.76c2.42-.07,11.47-.95,12.65.98-.1,1.55,0,2.56-.77,3.9-3.68,1.64-37.26,1.1-43.77,1.02-3-.03-11.6.66-13.26-1.64-.22-1.6-.47-2.29.15-3.79,4.81-1.31,37.52-.36,45-.49Z"/>
  <path class="st2" d="M386.93,105.65c9.7-.53,23.91-.39,33.84.1,3.86.19,6.03,2.35,8.2,5.33.37,5.2-.48,13.5-.9,18.9,1.75.2,2.35.24,4.08.78,3.7,3.24,3.08,8.93,1.14,12.92-1.46,3.01-2.83,3.25-5.8,4.33-.24,5.8-.89,24.57.77,29.36,6.4,18.52,34.78,16.68,42.71,38.16,1.52,4.17,2.26,8.59,2.19,13.03-.04,7.41-.95,16.85-1.48,24.37l-3,42.69-5.41,76.62c-.49,6.68-1.77,36.86-4.32,42.1-4.04,8.27-28.3,10.99-37.84,12.1-5.1.34-10.21.55-15.31.65-12.83.12-54.87-.86-57.26-16.93-1.04-6.99-1.65-22.22-2.21-29.83l-4.57-65.11c-1.25-18-2.62-35.99-4.11-53.97-.84-10.71-1.82-21.84-2.09-32.33-1.3-17.83,13.58-29.17,28.57-35.94,21.18-9.57,16.98-24.38,16.82-44.96-4.6-2.03-6.39-3.93-6.89-9.17-.53-5.51,1.28-8.32,6.53-9.07-.04-9.26-5.21-21.15,6.33-24.13Z"/>
  <path class="st0" d="M387.32,179.11c11.88,1.97,21.78,1.64,33.72.26,5.64,17.19,22.03,18.74,34.96,28.6,13.82,10.52,9.65,29.66,8.52,45.05l-2.54,37.42-5.3,74.67c-.64,8.99-1.58,38.41-4.73,46.14-1.96,4.79-23.76,7.4-30.49,8.04-14.68,2.28-54.97.74-65.52-9.47-1.5-9.87-2.23-28.34-2.95-38.82l-4.65-64.08-3.4-45.54c-.9-11.01-1.92-21.7-2.03-32.77-.3-29.74,36.92-24.78,44.22-48.82l.2-.69Z"/>
  <path class="st2" d="M397.54,237.67c20.42-2.72,35.67,4.48,48.13,20.28,3.99.09,7.97.2,11.95.33,0,5.54-.2,11.28-.65,16.8-2.72,32.67-4.29,65.5-7.1,98.15-9.84,3.53-26.37,5.35-36.74,6.24-18.03.8-36.07-1.18-53.49-5.86-2.41-18.42-3.31-42.34-4.73-61.16-1.22-16.05-3.43-38.13-3.42-53.98,4.05-.08,8.11-.19,12.16-.32,9.77-12.77,17.58-17.98,33.91-20.48Z"/>
  <path class="st0" d="M401.27,244.2c17.51-1.66,30.62,5.79,39.6,20.4,3.11.17,6.5.19,9.65.26l-7.09,102.84c-10.96,3.26-23.94,4.5-35.29,5.15-16.13.36-26.53-1.56-41.97-4.87-1.27-9.86-1.91-22.59-2.68-32.74-1.79-23.52-3.41-47.05-4.84-70.59,3.22.09,5.98-.02,9.2-.17,8.45-13.11,17.76-18.74,33.42-20.28Z"/>
  <path class="st2" d="M393.69,393.75c7.68-.84,52.72-.65,53.06,8.66-.57,1.09-2.77,3.57-4.14,3.11-8.59-2.89-16.74-4.11-25.69-4.98-18.77-.52-33.11-.42-51.34,5.38-1.54-1.51-2.41-2.86-3.64-4.58,7.54-5.71,22.21-6.63,31.74-7.59Z"/>
  <path class="st0" d="M388.43,148.41c10.57.16,21.14.16,31.7-.01-.15,7.08.46,18.05-.25,24.77-7.71.86-24.35.74-31.71-.34-.18-7.88.12-16.49.26-24.42Z"/>
  <path class="st0" d="M386.51,112.52c11.01-.5,24.82-.17,35.91.02-.43,5.44-.93,10.88-1.52,16.3-4.83.92-27.46.35-33.25.17-.15-5.69-1.31-10.51-1.15-16.48Z"/>
  <path class="st0" d="M380.93,136c4.72.07,44.66-.05,45.98.48.68,1.45.3,2.67.07,4.31-4.34,1.17-42.07,1.5-44.95-.22-1.06-1.68-.93-2.51-1.1-4.57Z"/>
  <path class="st2" d="M69,105.67c1.33-.07,2.66-.11,4-.14,3.98-.06,8.12-.14,12.11-.09,27.96.33,25.86-2.24,24.22,24.42,7.55.68,7.65,6.74,5.79,12.82-1.04,3.41-2.9,4.19-6.03,5.55-.15,6.27-.93,23.17.66,28.54,6.21,20.96,41.05,18.23,43.89,44.35,1.67,15.31-.73,31.66-1.9,47.04l-6.08,77.49c-1.63,20.33-3.04,40.8-4.64,61.14-.33,2.03-.87,6.88-2.18,8.3-7.85,8.51-25.6,9.86-36.42,11.29-6.67.58-13.36.83-20.05.75-12.34-.2-51.3-1.89-52.83-17.4-1.03-10.49-1.94-24.8-2.77-35.52-2.07-25.88-3.91-51.77-5.51-77.67l-2.8-43.14c-.59-9.21-1.26-17.92-1.1-27.03.44-24.63,23.23-28.28,39.11-40.6,8.57-6.65,6.05-27.24,6.37-37.83-3.93-1.57-6-2.88-6.75-7.29-1.07-6.35.07-10.04,6.58-10.85-.68-9.79-5.38-20.73,6.32-24.14Z"/>
  <path class="st0" d="M69.02,179.02c8.97,2.43,24.59,1.3,33.83.31,7.11,22.67,34.62,19.76,42.48,38.79,3.63,8.78-.14,41.38-.95,52.38-1.91,26.56-3.98,53.11-6.22,79.65-.68,8.69-3.36,55.08-5.31,60.58-6.08,6.54-21.9,7.69-30.75,8.73-4.42.34-8.86.56-13.29.66-12.65.26-42.34-1.27-51.24-9.79-1.96-5.56-3.32-32.02-3.87-39.43-2.42-32.26-4.63-64.54-6.63-96.82-.95-15.21-2.44-30.74-2.82-45.96-.08-3.19,1.26-8.39,2.74-11.28,9.48-18.49,34.6-15.82,41.81-37.14l.22-.68Z"/>
  <path class="st2" d="M83.38,237.21c18.81-.94,32.27,6.27,43.41,20.95l11.72.36c.18,10.21-1.64,27.77-2.44,38.31l-5.88,76.62c-13.75,3.74-27.9,5.8-42.15,6.12-16.77.08-31.56-1.54-47.82-5.98-.95-6.52-1.56-14.52-1.81-21.09-1.19-30.95-5.4-63.11-5.81-93.96l12.52-.57c10.12-13.97,21-19.5,38.25-20.76Z"/>
  <path class="st0" d="M81.58,244.19c18.22-1.28,30.77,4.87,40.32,20.32,2.99.29,6.3.28,9.32.35-1.73,33.26-4.71,69.56-7.46,102.83-10.47,3.22-23.48,4.62-34.35,5.09-14.55.82-28.56-1.76-42.66-4.77-2.19-34.49-4.98-68.49-6.86-103.16,3.24-.07,6.53-.21,9.77-.32,7.34-12.96,17.22-18.65,31.92-20.34Z"/>
  <path class="st2" d="M75.06,393.71c8.5-.99,50.13-.1,52.3,8.51-.44,1.15-2.77,3.9-3.98,3.49-8.68-2.89-16.91-4.21-25.95-5.16-18.06-.55-32.67-.27-49.94,4.87-1.76.53-3.72-2.4-3.8-4.33,5.22-5.2,23.54-6.74,31.39-7.38Z"/>
  <path class="st0" d="M70.12,148.48l31.9-.03c-.18,8.31.05,16.21.27,24.5-7.8,1-24.42.87-32.34.16l.16-24.64Z"/>
  <path class="st0" d="M69.85,112.22c11.36,0,22.73.11,34.08.36-.18,2.91-.78,14.78-2.04,16.48-10.34.49-21.94.19-32.36.1-.51-4.45-1.44-10.38-1.27-14.92.05-1.3.76-1.53,1.6-2.01Z"/>
  <path class="st0" d="M62.6,135.98c6.51.12,44.4-.71,46.26.75.39,1.74.09,2.4-.32,4.12-5.38,1.06-41.28,1.52-44.91-.35-1-1.4-.89-2.77-1.03-4.53Z"/>
</svg>