<?xml version="1.0" encoding="UTF-8"?>
<svg id="Calque_1" data-name="Calque 1" xmlns="http://www.w3.org/2000/svg" viewBox="0 0 317.57 591.84">
  <defs>
    <style>
      .cls-1 {
        fill: #231f20;
      }
    </style>
  </defs>
  <path class="cls-1" d="M172.48,509.58c6.25-8.16,12.12-16.86,17.57-26.11,7.19-12.19,13.54-25.14,19.01-38.7,15.02-3.26,77.79-22.16,108.51-114.26-4.47,1.2-63.74,22.1-96.78,79.56,5.66-20.5,9.48-41.98,11.32-64,.21-2.46.38-4.93.54-7.39,11.72-6.83,67.31-44.44,66.79-143.52-3.87,2.59-53.84,41.88-66.3,107.61-.97-26.47-4.9-52.29-11.68-76.59,10.04-10.45,52.36-61.51,25.58-155.86-3.17,3.68-43.93,59.26-34.07,130.1-7.23-18.77-16.78-36.85-28.43-53.99,5-12.4,24.87-73.2-31.11-146.43-1.45,4.28-16.96,64.69,12.28,121.73-12.08-14.23-25.72-27.6-40.78-39.94-4.43-5.41-9.33-10.2-14.8-14.63C79.26,42.23,39.71,28.27.04,28.31c-.95,12.47,15.48,23.99,24.09,30.5,19.71,14.91,40.45,25.06,64.56,31.57,13.04,3.52,27.5,6.43,41.26,7.07,19.55,17.47,36.31,36.81,49.91,57.52-5.44-5.63-11.46-10.86-18.09-15.69-18.93-13.75-40.71-23.23-63.19-29.74.05,4.66.69,9.31,1.9,13.81,1.51,5.57,3.88,10.88,6.5,16.02,20.34,39.94,61.05,77.84,105.93,88.35,10.26,36.58,13.66,76.45,10.56,115.71-9.28-80.56-62.84-122.5-67.16-125.46,2.13,95.66,50.91,136.86,64.84,146.7-5.67,40.47-18.31,79.5-37.53,112.69,16.87-85.07-32.4-149.89-36.08-154.15-26.46,96.86,14.24,152.68,27.62,167.77-18.53,27.86-41.23,49.96-67.39,65.81,40.73-69.55,14.14-144.07,12.01-148.83-49.73,78.22-29.27,137.01-21.27,154.11-19.56,10.45-40.89,17.59-63.74,21.2-2.35.37-3.95,2.58-3.58,4.93.34,2.12,2.17,3.63,4.25,3.63.22,0,.45-.02.68-.05,40.86-6.46,77.06-23.67,107.2-50.62,15.08,2.64,80.39,8.87,143.62-64.91-4.44-.56-63.3-3.36-114.45,33.32Z"/>
</svg>