<?xml version="1.0" encoding="UTF-8"?>
<svg id="Calque_1" data-name="Calque 1" xmlns="http://www.w3.org/2000/svg" viewBox="0 0 317.57 592.2">
  <defs>
    <style>
      .cls-1 {
        fill: #231f20;
      }
    </style>
  </defs>
  <path class="cls-1" d="M317.53,28.31c-39.67-.04-79.22,13.92-110.08,38.86-4.98,4.02-9.48,8.36-13.59,13.18-15.25,12.35-29.07,25.76-41.31,40.03,28.32-56.64,13.04-116.14,11.61-120.38-55.41,72.49-36.51,132.79-31.27,146.03-11.45,16.81-20.88,34.53-28.08,52.92,9.1-70.13-31.12-124.97-34.27-128.62-26.53,93.46,14.75,144.44,25.29,155.56-6.69,23.9-10.62,49.28-11.69,75.3-12.96-64.78-62.16-103.46-66-106.02-.51,98.07,53.93,135.92,66.41,143.3.16,2.54.34,5.09.55,7.64,1.81,21.59,5.52,42.66,10.99,62.8C62.92,352.33,4.44,331.7,0,330.51c30.44,91.27,92.35,110.65,108.08,114.17,5.5,13.66,11.89,26.7,19.13,38.97,5.26,8.92,10.9,17.32,16.9,25.22-50.92-35.95-109.05-33.17-113.47-32.61,62.63,73.08,127.29,67.66,143.17,64.99,30.23,27.1,66.57,44.41,107.59,50.9.25.04.49.06.73.06,2.25,0,4.24-1.64,4.6-3.94.4-2.54-1.33-4.93-3.88-5.34-22.81-3.61-44.11-10.74-63.64-21.17,8.1-17.52,27.99-76.06-21.43-153.79-2.13,4.75-28.55,78.82,11.64,148.19-25.91-15.82-48.4-37.8-66.78-65.45,13.61-15.48,53.67-71.2,27.37-167.49-3.67,4.24-52.53,68.54-36.28,153.08-18.94-33.01-31.41-71.73-37.01-111.86,14.35-10.24,62.4-51.53,64.52-146.47-4.29,2.93-57.07,44.25-66.95,123.6-2.86-38.69.62-77.92,10.75-113.94,44.72-10.64,85.25-48.44,105.53-88.27,2.62-5.15,4.99-10.45,6.5-16.02,1.22-4.5,1.86-9.15,1.9-13.81-22.47,6.51-44.26,15.99-63.19,29.74-6.1,4.43-11.67,9.2-16.75,14.31,13.47-20.21,29.97-39.09,49.14-56.17,13.6-.69,27.84-3.57,40.69-7.04,24.11-6.51,44.85-16.66,64.56-31.57,8.61-6.51,25.04-18.03,24.09-30.5Z"/>
</svg>