<?xml version="1.0" encoding="UTF-8"?>
<svg id="Calque_1" xmlns="http://www.w3.org/2000/svg" version="1.1" xmlns:xlink="http://www.w3.org/1999/xlink" viewBox="0 0 675.29 525.88">
  <!-- Generator: Adobe Illustrator 30.2.1, SVG Export Plug-In . SVG Version: 2.1.1 Build 1)  -->
  <defs>
    <style>
      .st0 {
        fill: #1b3a3d;
      }

      .st1 {
        fill: #b27f5c;
      }

      .st2 {
        fill: #292a2a;
      }

      .st3 {
        fill: #d0cfcf;
      }

      .st4 {
        fill: url(#Dégradé_sans_nom_2);
      }

      .st5 {
        fill: url(#Dégradé_sans_nom);
      }

      .st6 {
        fill: url(#Dégradé_sans_nom_3);
      }

      .st7 {
        fill: #d69f7f;
      }
    </style>
    <linearGradient id="Dégradé_sans_nom" data-name="Dégradé sans nom" x1="673.49" y1="274.37" x2="529.55" y2="11.34" gradientTransform="translate(40.82 266.41) scale(.5 -.5)" gradientUnits="userSpaceOnUse">
      <stop offset="0" stop-color="#d08b6c"/>
      <stop offset="1" stop-color="#ffcbab"/>
    </linearGradient>
    <linearGradient id="Dégradé_sans_nom_2" data-name="Dégradé sans nom 2" x1="826.09" y1="-356.57" x2="380.88" y2="382.34" gradientTransform="translate(40.82 266.41) scale(.5 -.5)" gradientUnits="userSpaceOnUse">
      <stop offset="0" stop-color="#cb886b"/>
      <stop offset="1" stop-color="#e4a37f"/>
    </linearGradient>
    <linearGradient id="Dégradé_sans_nom_3" data-name="Dégradé sans nom 3" x1="848.92" y1="-219.5" x2="1064.7" y2="-228.02" gradientTransform="translate(40.82 266.41) scale(.5 -.5)" gradientUnits="userSpaceOnUse">
      <stop offset="0" stop-color="#aa6146"/>
      <stop offset="1" stop-color="#f4b898"/>
    </linearGradient>
  </defs>
  <path class="st0" d="M9.9,283.53c1.36,12.91,5.82,29.2,14.02,40.98l4.85-3.9,25.2,23.34,262.49,152.5s4.78,17.91,48.55,0c43.77-17.91,271.91-170.44,271.91-170.44,0,0,20.4-16.6,10.21-27.95-1.47-1.63-.71-3.18,1.65-4.63-7.11-5.12-16.98-8.16-22.31-13.81-6.21-6.57-5.98-33.27-.34-40.7,2.24-2.95,9.28-6.17,12.49-8.32,12.86-7.97,19.19-20.9,18.44-35.92-.83-16.5-12.49-21.17-24.93-28.29l-24.13-13.84-88.11-51.34-96.07-55.89-34.73-20.58c-5.3-3.1-12.31-7.43-17.65-9.96-6.9-3.33-14.57-4.76-22.21-4.16-7.64.59-15.09,2.72-21.89,6.24-14.99,7.81-35.76,21.38-50.75,30.48l-87.89,53-105.68,63.99c-15.7,9.52-31.79,18.83-47.4,28.51-3.48,2.16-8.34,6.93-10.9,10.07-13.84,16.96-15.98,36.26-15.6,57.44.14,7.92-.08,15.03.77,23.17Z"/>
  <path class="st0" d="M128.17,380.07c-2.24-.92-9.76-5.46-11.99-6.79l-25.65-15.6c-16.52-9.95-33.58-19.24-49.8-29.98-11.78-7.46-18.76-25.01-20.71-38.55-2.22-15.45-2.26-39.33.33-54.76,2.16-12.89,11.62-27.15,22.66-34.01,12.86-8,26.26-15.89,39.36-23.85l94.88-57.21,104.52-63.2c16.25-9.81,32.38-20.03,48.81-29.51,22.67-13.08,37.61-2.31,57.07,9.04l34.22,20.17,88.73,51.51,80.9,47.16,32.54,18.73c5.85,3.39,11.98,6.78,17.57,10.56,3.53,2.39,4.82,5.12,5.52,9.3-.06.86-.13,2.67-.3,3.43-.11,2.15-.15,4.78-.43,6.87l-.71-2.98c-1.88,9.16-4.72,13.48-12.82,18.51-5.47,3.39-11.13,6.5-16.7,9.7-9.39,5.41-18.71,10.92-27.97,16.55l-133.76,81-70.21,43.12c-10.58,6.4-21.2,13.86-32.51,18.87-7.54,3.34-16.5,4.46-24.62,2.8-11.73-2.4-43.02-23.34-55.47-30.63l-139.6-81.52c-27.75-16.52-56.68-33.24-85.07-48.74-2.56-1.12-7.1-1.23-9.38.3-7.6,5.11-6.94,17.55-6.66,25.95.74,17.32-2.12,30.28,5.22,46.63,7.67,17.08,20.43,16.84,34.55,25.97,30.32,19.6,64.77,36.68,94.29,57.17-12.1,2.19-18.65,1.28-29.91-3.85-2.02-.91-4.77-2.26-6.91-2.13Z"/>
  <path d="M43.88,214.47c4.67,1.42,15.59,7.67,20.03,10.17,11.66,6.64,23.28,13.37,34.84,20.19l152.1,89.2,42.33,24.82c8.04,4.74,25.44,15.58,33.58,18.15,6.91,2.2,14.38,1.97,21.14-.66,7.47-2.98,21.75-11.95,29.13-16.36l54.36-32.94,194.62-117.4c5.35-3.22,10.38-7.17,15.21-11.1,1.43-1.16,4.71-5.17,5.9-5.48-.06.86-.13,2.67-.3,3.43-.32.39-.64.78-.96,1.17-8.04,9.65-16.25,13.45-26.77,19.87-10.51,6.54-21.09,12.94-31.76,19.2l-69.26,41.78-112.52,68.09c-16.35,9.73-32.58,19.86-49.13,29.22-11.18,6.33-24.19,8-35.92,2.05-10.58-5.36-20.63-11.49-30.8-17.68-8.12-4.84-16.27-9.62-24.46-14.33l-114.41-67.22-71.54-42.03c-8.35-4.93-28.56-16.31-35.44-22.13Z"/>
  <path class="st7" d="M349.24,33.11c12.76-1.44,28.14,10.9,38.8,17.34,14.23,8.45,28.52,16.8,42.88,25.04l178.54,103.24c4.27,2.47,8.8,5.52,10.01,10.6.83,3.4.21,7-1.7,9.93-3.52,5.39-20.9,14.2-26.88,17.7l-37.3,22.18c-27.04,16.03-54.15,32.79-81.03,49.16-28.8,17.76-57.75,35.27-86.86,52.54-6.35,3.8-12.68,7.65-18.96,11.57-10.39,6.6-14.87,10.65-27.21,13.07-14.66.39-19.34-4.17-31.35-11.46l-21.3-12.68-83.78-49.03c-37.78-21.72-75.57-43.98-113.17-66.04-4.51-2.63-11.35-4.21-15.35-7.52-20.54-16.99,9.11-28.72,20.15-35.3l44.39-26.52,160.71-97c7.99-4.8,15.92-9.68,23.77-14.71,8.46-5.42,15.44-10.85,25.63-12.11Z"/>
  <path class="st0" d="M326.45,48.88l.42.41c2.95,20.16,46.05,19.3,49-.67,60.05,35.61,120.37,70.75,180.98,105.4,13.15,7.64,26.84,14.96,39.83,22.73-5.85.74-9.96,1.4-14.76,5.38-6.18,5.13-7.8,13.8-2.22,20.03,4.16,4.64,10.24,6.51,16.29,7.06-25.78,14.19-53.43,31.53-78.8,46.75l-152.52,92.26-2.03.93c-2.62-3.6-4.48-8.26-9.01-10.14-14.33-5.97-35.89-4.6-43.12,11.05l-126.18-74.09c-29.5-17.04-61.8-34.89-90.59-52.69,25.07-7.47,22.82-26.98-1.94-32.55,9.59-6.39,21.52-12.91,31.54-18.91,18.78-11.49,37.66-22.8,56.65-33.94,49.01-29.35,97.83-59.02,146.46-89.01Z"/>
  <path class="st5" d="M305.14,199.05c6.82-2.08,18.51-7.08,25.39-9.83l47.77-19.07,27.99-10.84c3.54-1.36,15.26-6.7,18.48-5.29,1.57,1.79,1.93,3.75,2.66,6.06,4.6,5.23,13.06,27.17,15.21,34.71.21.73-.41,1.6-1.08,1.96-9.03,4.97-22.33,8.18-32.09,11.24l-54.71,17.01c-18.2,5.59-36.24,11.61-54.67,16.61-7.2,1.95-14.78,4.45-22.01,6.04l-1.2.25c-2.92-1.67-14.3-31.41-16.55-36.53-.32-.72-.19-1.74-.05-2.52-1.34-5.77-12.63-24.3-11.65-29.27,2.93-2.85,38.86-15.75,43.72-15.83,2.86,1.88,11.21,30.47,12.77,35.29Z"/>
  <path d="M427.44,160.08c4.6,5.23,13.06,27.17,15.21,34.71.21.73-.41,1.6-1.08,1.96-9.03,4.97-22.33,8.18-32.09,11.24l-54.71,17.01c-18.2,5.59-36.24,11.61-54.67,16.61-7.2,1.95-14.78,4.45-22.01,6.04l-.54-.72c3.35-1.58,9.59-3.78,13.21-5.18l26.26-10.15,70.14-27.78c13.76-5.39,32.28-11.98,45.32-17.92-.62-6.63-3.65-18.46-5.04-25.82Z"/>
  <path d="M260.3,208.86c2.27,5.16,15.07,35.9,17.26,38.07l.54.72-1.2.25c-2.92-1.67-14.3-31.41-16.55-36.53-.32-.72-.19-1.74-.05-2.52Z"/>
  <path class="st0" d="M347.15,37.53c20.4-1.81,36.53,16.24,9,21.77-7.56,1.06-21.64.03-24.17-8.7-.45-1.6-.25-3.32.56-4.77,2.42-4.38,9.98-7,14.61-8.3Z"/>
  <path class="st7" d="M349.02,45.47c2.65-.1,7.08-.47,7.43,3.03-.88,1.6-1.46,1.76-3.02,2.67-2.9.36-6.06.49-6.96-2.88.88-1.98.6-1.36,2.55-2.81Z"/>
  <path class="st0" d="M335.68,340.16c22.56-1.39,31.76,16.18,3.39,20.81-6.58.16-13.43-.59-18.76-4.35-8.86-6.27-.64-13.1,6.54-14.97,3.57-.93,5.25-1.19,8.83-1.48Z"/>
  <path class="st7" d="M333.98,348.04c2.77-.43,7.24-.64,7.96,2.81-.6,1.65-1.29,1.89-2.76,2.88-2.86.42-6.87.28-7.83-2.98.81-1.88.66-1.34,2.63-2.71Z"/>
  <path class="st0" d="M596.71,180.05c16.46-1.16,28.67,17.19,3.78,25-25.66.88-25.16-21.64-3.78-25Z"/>
  <path class="st1" d="M596.61,188.94c2.82.22,5.48.49,5.77,3.86-.79,1.8-1.44,1.95-3.15,2.92-3.18-.03-6.57-.66-5.86-4.65,1.2-1.5,1.48-1.5,3.25-2.14Z"/>
  <path class="st0" d="M88.3,194.56c19.81-.17,27.13,20.96,1.98,24.76-19.25,2.22-26.69-21-1.98-24.76Z"/>
  <path class="st1" d="M89.16,203.47c2.79.51,4.94.78,4.81,4.1-.96,1.77-1.18,1.78-3.04,2.78-2.88-.42-5.77-.75-5.2-4.51,1.04-1.53,1.73-1.64,3.43-2.37Z"/>
  <path class="st4" d="M40.81,339.63c-1.13-1.05-6.89-4.62-9.12-6.48-13.25-11.04-20.07-33.1-21.8-49.61-.85-8.14-.63-15.25-.77-23.17-.38-21.18,1.76-40.48,15.6-57.44,2.57-3.15,7.42-7.91,10.9-10.07,15.61-9.67,31.7-18.99,47.4-28.51l105.68-63.99,87.89-53c14.99-9.1,35.75-22.67,50.75-30.48,6.8-3.53,14.24-5.65,21.89-6.24,7.64-.61,15.3.83,22.21,4.16,5.34,2.53,12.34,6.86,17.65,9.96l34.73,20.58,96.07,55.89,88.11,51.34,24.13,13.84c12.44,7.12,24.11,11.79,24.93,28.29.75,15.02-5.58,27.95-18.44,35.92-3.21,2.15-10.25,5.37-12.49,8.32-5.64,7.44-5.86,34.13.34,40.7,8.65,9.16,29.27,11.47,30.63,26.91.45,5.13-3.07,11.53-6.32,15.29-6.85,5.95-19.77,13.28-28.02,18.29l-40.11,24.44-3.98-8.15c19.33-13.28,41.14-24.39,60.68-37.51,25.03-16.79-14.82-23.43-21.05-34.04-5.84-9.01-6.65-32.52-4.08-42.66,5.01-19.76,26.74-12.91,32.17-38.86.28-2.09.33-4.72.43-6.87.17-.76.24-2.57.3-3.43-.7-4.17-1.99-6.91-5.52-9.3-5.59-3.78-11.72-7.16-17.57-10.56l-32.54-18.73-80.9-47.16-88.73-51.51-34.22-20.17c-19.46-11.35-34.4-22.12-57.07-9.04-16.43,9.48-32.56,19.71-48.81,29.51l-104.52,63.2-94.88,57.21c-13.1,7.96-26.49,15.85-39.36,23.85-11.04,6.86-20.5,21.12-22.66,34.01-2.59,15.44-2.55,39.31-.33,54.76,1.95,13.55,8.93,31.1,20.71,38.55,16.21,10.73,33.28,20.03,49.8,29.98l25.65,15.6c2.23,1.33,9.75,5.86,11.99,6.79,32.33,20.1,67.69,39.77,100.54,59.36l65.22,38.61c10.18,6.02,20.16,12.31,30.52,18.03,16.89,9.32,28.84-.3,42.9-8.88l24.93-15.16,76.83-46.6c12.81-7.83,26.11-16.46,38.98-23.94l3.97,8.63c-26.33,16.66-54.52,33.21-81.21,49.48l-41.93,25.66c-4.76,2.91-9.49,5.83-14.29,8.73-14.72,8.9-31.42,21.52-49.33,12.99-12.73-6.07-25.3-14.1-37.53-21.31l-73.24-43.45-127.55-75.23c-15.25-9.08-31.25-17.86-46.16-27.35Z"/>
  <path class="st3" d="M49.85,240.56c9.75,4.53,21.74,11.8,31.24,17.26l53.91,31.54,114.08,67.1c12.82,7.73,25.71,15.35,38.66,22.85,11.28,6.61,26.24,16.47,38.36,20.12,4.64,1.4,15.68,1.38,20.07-.32,15.01-5.79,31.9-16.98,45.83-25.32l65.01-38.99c2.82,2.09,5.91,4.09,8.84,6.04-9.38,7.19-24.02,15.6-34.2,22.36-26.1,17.33-53.67,33.47-79.64,50.95l.19,1.35c25.45-13.76,50.05-29.58,75.23-43.87,14.88-8.45,29.31-17.85,44.33-25.99l6.93,7.15c-10.81,6.48-22.31,14.25-33,21.07l-62.37,39.72c-5.1,3.27-33.05,20.47-35.68,23.41,5.47-1.91,29.16-16.55,35.99-20.51,33.27-19.08,66.32-38.51,99.17-58.3,2.72,2.76,4.02,4.51,6.35,7.63-6.53,3.65-14.04,8.85-20.43,13.01-8.77,5.63-17.57,11.21-26.4,16.73-32.48,20.32-64.8,40.9-96.96,61.74,8.74-3.51,29.88-16.38,38.57-21.49l72.76-42.47c10.81-6.36,25.71-16.24,36.64-21.43,1.59,2.52,3.18,5.38,4.7,7.97-32.46,20.92-68.34,42.29-101.5,62.42l-31.53,19.26c-4.97,3.03-12.54,7.91-17.64,10.35-3.71,1.75-7.78,2.57-11.86,2.39-3.42-.17-6.85-1.33-9.82-3-16.17-9.1-31.95-18.88-47.87-28.37l-69.02-40.58-75.87-44.54c-20.48-11.83-41.05-23.57-61.45-35.52-2.47-1.72-10.67-6.25-12.04-8.43-13.36-21.33-9.81-48.83-9.56-73.28Z"/>
  <path class="st2" d="M344.96,419.53c2.39-2.56,4.11-3.49,7.03-5.38l.19,1.35c-2.15,1.36-4.95,2.79-7.22,4.03Z"/>
  <path d="M70.47,305.33c4.11.91,40.58,22.32,46.02,25.41,46.16,26.01,91.94,52.71,137.31,80.07,23.99,14.36,49.54,29.35,72.84,44.68-8.48-.42-233.95-134.2-256.16-150.16Z"/>
  <path d="M73.83,269.39c6.58.62,240.48,137.71,253.41,149.14-4.05-.96-32.67-17.55-38.42-20.82-46.6-26.33-92.71-53.52-138.3-81.57l-44.51-26.64c-10.34-6.16-22.55-13.16-32.18-20.11Z"/>
  <path d="M73.04,287.85c4.24,1.13,17.04,8.87,21.28,11.31l33.43,19.29c46.03,25.78,91.61,52.36,136.73,79.72l33.05,20.16c9,5.44,20.39,12.01,28.64,18.19-2.9-.48-22.36-11.64-26.18-13.73-48.9-26.72-96.01-55.53-143.75-84.12-16.76-9.96-33.46-20.03-50.1-30.2-10.35-6.26-23.2-13.73-33.09-20.62Z"/>
  <path class="st6" d="M523.3,294.05c24.66,22.05,40.44,46.52,53.03,77.05,6.02,13.07,13.48,35.2,16.63,49.22-7.72-.73-18.98-4.01-26.85-6.07l-8.08-1.74c-6.98,14.65-12.5,37.73-22.88,50.81-6.73-43.89-30.14-109.58-69.61-134.2,19.11-11.91,38.36-23.61,57.75-35.08Z"/>
  <path class="st7" d="M566.11,414.26c.37-.26,1.72-1.15,1.85-1.65,1.71-6.21,1.68-40.96,6.33-43.26l2.04,1.76c6.02,13.07,13.48,35.2,16.63,49.22-7.72-.73-18.98-4.01-26.85-6.07Z"/>
  <path class="st3" d="M604.05,244.97c.67,1.2.15,8.07.09,10.01-15.64,8.56-31.74,20.15-47.3,29.19-5.33,3.1-13.73,8.98-19.15,11.23-1.45-.3-2.4-1.54-3.53-2.62l-3.53-2.95,73.42-44.87Z"/>
  <path class="st3" d="M603.96,264.41c.43,1.82,1.01,7.31,1.28,9.42-8.49,4.19-52.43,33.33-56.79,33.61l-1.28-1.34-4.15-4.65c6.55-4.35,14.84-9.08,21.72-13.24l39.22-23.8Z"/>
  <path class="st3" d="M606,282.91c.74,1.02,2.45,6.2,2.99,7.71-7.3,3.89-47.57,30.2-50.35,29.99-1.71-2.16-3.15-4.33-4.68-6.61,17.18-10.64,34.53-21,52.04-31.09Z"/>
  <path class="st3" d="M612.48,298.07c1.22,1.21,3.26,4.97,4.26,6.65-15.46,10.07-33.03,20.42-48.89,29.93l-4.22-6.8c15.09-9.83,33.1-21.09,48.85-29.78Z"/>
</svg>