<?xml version="1.0" encoding="UTF-8"?>
<svg id="Calque_1" data-name="Calque 1" xmlns="http://www.w3.org/2000/svg" xmlns:xlink="http://www.w3.org/1999/xlink" viewBox="0 0 317.13 359.92">
  <defs>
    <style>
      .cls-1 {
        fill: url(#Dégradé_sans_nom_18);
      }
    </style>
    <linearGradient id="Dégradé_sans_nom_18" data-name="Dégradé sans nom 18" x1="158.57" y1="347.37" x2="158.57" y2="17.12" gradientUnits="userSpaceOnUse">
      <stop offset="0" stop-color="#c58c67"/>
      <stop offset="1" stop-color="#e1ba93"/>
    </linearGradient>
  </defs>
  <path class="cls-1" d="M53.22.24c19.21.1,47.05,10.2,61.69,23.07l3.86,3.39c14.5,12.74,26,31.09,29.63,50.04.26,1.36.62,2.86.77,4.05l.87,7.12c.37,2.98.38,6.37,0,9.37l-.93,7.32c-1.15,4.59-1.86,8.94-4.21,13.23,5.79,8.92,10.05,18.1,13.87,28.59,3.43-10.14,7.46-19.33,13.62-28.28-2.41-4.53-3.83-8.9-4.29-13.53l-.5-5.06c-.47-4.74-.73-8.9-.12-13.54l.98-7.43c2.64-20.04,14.6-37.53,29.54-51.21,14.7-13.45,32.78-22.23,52.41-25.57l4.83-.82c2.46-.42,32.36-2.23,35.15.45,1.09,1.05,1.89,3.02,2.01,5.11.53,8.71.67,21.02-.72,29.84l-.97,6.19c-2.09,13.29-7.13,25.68-13.95,37.48-12.69,21.94-38.84,43.42-63.07,46.53l-6.7.86c-3.52.45-7.62.47-11.12.03l-5.61-.69c-1.15-.14-3.06-.49-4.11-.84l-7.02-2.35c-7.69,11.87-12.65,24.75-15.16,38.42-.36,1.96-1.04,4.39-1.04,6.5l-.03,84.41c5.36-8.88,9.1-17.22,15.27-24.53.6-.64,1.33-1.58,1.4-2.24.09-.85-.56-1.84-.75-2.59l-.77-3.02c-.26-1.01-.9-2.92-.93-3.96-.17-6.39-.69-13.21.18-19.32,1.94-13.63,7.94-25.34,16.93-35.8,13.68-15.93,33.47-25.31,54.21-27.56,6.4-.69,12.87-.56,19.43-.1,2.03.14,4.39.67,6.44.96,11.5,1.62,21.99,5.48,32.57,10.31,3.78,1.73,7.09,3.49,10.25,5.91,0,0-.51,6.25-.55,6.4l-.32,1.11c-4.91,17.19-12.68,33.66-24.73,47.02-4.27,4.74-8.53,9.15-13.38,13.09-14.31,11.64-30.84,19.62-49.06,21.46l-5.64.57c-3.69.37-7.66.27-11.2-.12l-7.08-.77c-6.74-.74-12.92-3.06-19.06-6.47-1.72,1.43-2.99,2.96-4.3,4.84-8.49,12.26-14.46,25.88-17.12,40.56-.32,1.76-.47,3.38-.95,5.07-.68,2.39-.93,74.05-.93,74.05-.49.61-1.44,1.63-1.68,2.11h-5.12c-.36-.6-1.06-1.48-1.66-2.21l-.19-69.43c0,.43-1.63-10.89-1.74-11.41-3.26-15.97-10.56-30.89-21.06-43.5-6.89,3.56-14.09,5.99-21.63,6.75-1.51.15-12.38,1.05-16.52.58l-7.4-.84c-.94-.11-2.26-.32-3.4-.54-16.38-3.14-31.4-10.51-44.19-21.37-16.08-13.66-26.51-29.6-33.94-49.09-1.58-4.15-2.41-8.34-4.28-11.9v-5.97c11.62-7.43,24.37-13.03,38.17-15.44l5.13-.9c9.4-1.64,21.17-1.65,30.48.03l3.85.7c29.33,5.3,56.62,29.63,62.27,59.61,1.26,6.68,1.33,10.39.96,17.57-.07,1.4-.48,4.52-.48,4.52l-3,9.33c6.58,7.94,11.55,16.35,16.87,25.82l-.05-88.17c-3.11-14.62-7.53-28.29-16.09-40.65-6.56,3.78-19.41,5.02-26.53,4.11l-4.15-.53c-44.82-5.71-77.59-48.56-81.8-91.45l-.85-8.64c-.51-5.23-.4-10.69-.2-16.18.05-1.41.95-2.85.67-4.59-.3-1.83.29-5.1,2.4-5.64,3.09-.8,25.34-.26,25.56-.26ZM96.25,75.39l-36.8-37.16c-2.17-2.19-4.26-4.25-2.79-7.66.81-1.89,3.79-2.27,6.03-1.62l27.57,27.66c5.04,5.06,9.04,10.54,15.16,15.26-.4-3.03-.82-5.79-1.72-8.55l-4.6-14.15c-.61-1.88,1.16-4.07,2.49-4.49,1.76-.56,3.73,0,4.77,1.92,4.36,8.03,6.61,16.75,8.39,25.74.66,3.32-.01,6.85.49,10.37,1.85,2.7,4.71,4.86,6.89,7.34l8.45,9.65,8.34,9.79c2.29-6.31,3.46-16.05,2.58-22.15l-.67-4.65c-3.03-21.14-14.93-39.17-31.49-52.65-13.2-10.73-28.69-16.91-45.14-20.04-1.94-.37-4.07-.79-5.95-.98l-8.59-.87c-3.85-.39-7.8-.3-11.6-.04-1.2.08-3.91.65-3.91.65h0c-.83,1.88-1.27,3.9-1.3,5.95-.05,3.97-.1,7.9.18,11.91.1,1.41,1.2,8.4,1.41,10.14,1.51,12.29,6.63,27.17,12.92,38.04,12.41,21.45,32.28,37.84,56.72,42.98,5.04,1.06,13.12,2.13,18.48,1.06,3.37-.67,7.04-.47,10.13-2.79l-11.45-13.98-9.49-10.58c-.85-.95-1.88-1.86-2.7-2.22-1.09-.48-2.66.66-3.52.7-3.73.17-7.67.51-11.06-.2-2.02-.42-3.93-.43-6.09-.71-4.05-.53-11.49-1.98-15.54-3.2-2.5-.76-3-4.15-1.81-5.92,1.69-2.52,3.54-2.29,6.05-1.82l10.31,1.93c.55.1,14.21,2.24,13.6.44-2.24-1.27-3.02-3.35-4.73-5.08ZM216.4,80.62c3.43.28,6.26.4,9.11-.03l5.08-.77c3.82-.58,7.52-1.29,11.39-2.17,1.68-.38,3.11.9,4.14,2.27.77,1.03.8,3.91,0,4.82-1.67,1.89-4.23,1.86-6.32,2.3l-5.48,1.18c-6.35,1.37-7.71.63-12.34,1.56-10.96,2.2-12.72-3.6-16.86,1.94-2.67,3.58-6.14,6.7-9.09,10.18l-4.95,5.84-6.69,8.5c2.51.85,4.78,1.81,7.02,2.12l5.7.78c2.23.3,4.97.21,7.19-.02l5.78-.6c18.58-1.93,34.81-12.83,47.56-26.7,14.42-15.68,22.79-36.36,25.51-56.78l.81-6.1c.88-6.59.06-13.3.32-19.94l-3.82-.8c-4.02-.85-8.42-.42-12.59,0l-8.61.85c-1.79.18-3.79.54-5.65.88-15.51,2.87-30.36,8.48-43.07,18.02-18.14,13.6-31.38,33.97-34.24,56.28-.27,2.12-.19,3.7-.72,5.73-.49,1.9-.44,4.86-.02,6.81,1.18,5.55.38,6.92,2.67,12.82l3.73-4.23,5.55-6.4,6.12-6.93c2.72-3.08,5.13-6.11,8.31-9,.26-2.82-.11-5.85.38-8.57l.66-3.73c1.44-8.08,3.92-16.07,7.25-23.47,1.24-2.75,4.13-3.19,6.15-2.02,2.32,1.34,1.98,3.85,1.12,6.26-1.99,5.58-4.62,14.13-5.25,20.2,8.09-7.45,14.81-15.31,22.42-22.9l18.77-18.73c1.64-1.64,4.49-1.7,5.98-.66s2.12,3.69,1.34,5.77l-30.43,30.88-13.95,14.58ZM81.05,190.47c-12.72-7.92-25.72-14.59-39.7-19.62-2.7-.97-3.94-2.48-3.67-5.17.22-2.21,1.82-3.99,4.59-3.8,9.82,3.55,19.43,7.49,28.58,12.66l20.9,11.8c-2.54-7.81-7.13-14.15-10.24-21-1.07-2.36.31-4.77,2.08-5.47,1.67-.66,4.13-.48,5.35,1.59,5.64,9.58,11.29,19.65,14.14,30.49.86,3.28,2.13,4.68,5.14,6.68,1.53,1.02,3.54,2.93,5.11,4.27l5.28,4.48c4.03,3.42,7.32,7.69,11.74,10.76,1.11-.22,1.86-5.43,1.96-6.42,1.97-19.98-8.67-40.63-24.49-53.03-10.39-8.14-22.72-13.65-35.82-15.71-8.33-1.31-14.79-1.25-23.32-.74-1.07.06-2.68.53-3.92.72-11.96,1.77-23.41,5.75-34.08,11.5-.53.29-1.25,1.18-1.27,1.65s.33,1.28.53,1.97c4.37,15.11,11.69,29.23,21.8,41.4,12.15,14.63,34.22,29.5,52.59,31.47l8.2.88c4.02.43,7.58.86,11.68.27,6.96-1,14.27-1.34,20.86-5.67-1.48-2.37-3.48-4.59-5.62-6.49l-11.44-10.22c-2.91-2.6-5.87-4.69-9.2-7.17-.64.63-9.11,2.18-9.41,2.18-9.86.22-19.64.32-29.19-.06-2.72-.11-3.34-3.27-3.17-4.99.21-2.08,2.24-3.21,4.55-3.21l24.16-.05c.69,0,2.1-.79,3.12-1.1l-7.82-4.87ZM228.97,195.27l7.36,1,20.76.47c2.11.05,3.21,2.18,3.66,3.83.38,1.37-1.47,3.35-3.02,4.25l-29.01-.03c.15,0-9.02-1.36-9.97-2.39l-7.49,5.73c-1.32,1.01-2.73,2.09-3.9,3.18l-11.82,10.97c-1.18,1.1-2.2,2.91-3.51,4,7.02,4.19,14.91,4.84,22.34,5.84,4.14.56,7.7.16,11.75-.3l7.12-.82c18.6-2.15,41.32-18.19,53.84-33.21,10.28-12.32,17.29-26.78,20.93-42.43-11.04-6.45-22.53-9.85-34.6-12.22-2.05-.4-17.58-1.68-23.32-.82l-6.3.94c-35.95,5.38-64.91,38.81-57.32,75.93,3.39-3.11,6.25-6.07,9.35-8.85l6.51-5.82,5.82-4.8c1.8-1.48,3.44-2.86,5.48-4.11,1.74-9.95,8.54-23.57,13.76-32.57.96-1.65,2-2.92,3.9-3.33,1.79-.38,3.5.92,4.34,2.35,1.13,1.93.55,2.96-.61,5.02-3.3,5.86-6.49,11.61-8.73,18.6l21.37-11.99c8.39-4.71,16.91-8.34,25.9-11.32,1.61-.53,3.41-.74,4.55.56.91,1.05,2.49,2.38,2.03,4.03-.62,2.19-2.46,3.37-4.51,4.08-16.71,5.8-32.19,14.03-46.64,24.24Z"/>
</svg>