<?xml version="1.0" encoding="UTF-8"?>
<svg id="Calque_1" xmlns="http://www.w3.org/2000/svg" version="1.1" xmlns:xlink="http://www.w3.org/1999/xlink" viewBox="0 0 675.29 525.88">
  <!-- Generator: Adobe Illustrator 30.2.1, SVG Export Plug-In . SVG Version: 2.1.1 Build 1)  -->
  <defs>
    <style>
      .st0 {
        fill: #a88870;
      }

      .st1 {
        fill: url(#Dégradé_sans_nom_7);
      }

      .st2 {
        fill: url(#Dégradé_sans_nom_6);
      }

      .st3 {
        fill: #cb9c7a;
      }

      .st4 {
        fill: #9f6e55;
      }

      .st5 {
        fill: #5c7a7a;
      }

      .st6 {
        fill: #323431;
      }

      .st7 {
        fill: #b5bdba;
      }

      .st8 {
        fill: url(#Dégradé_sans_nom_2);
      }

      .st9 {
        fill: #604536;
      }

      .st10 {
        fill: url(#Dégradé_sans_nom);
      }

      .st11 {
        fill: #182c2f;
      }

      .st12 {
        fill: url(#Dégradé_sans_nom_4);
      }

      .st13 {
        fill: #ad7a5b;
      }

      .st14 {
        fill: url(#Dégradé_sans_nom_3);
      }

      .st15 {
        fill: url(#Dégradé_sans_nom_5);
      }

      .st16 {
        fill: #dab090;
      }

      .st17 {
        fill: #355b59;
      }

      .st18 {
        fill: url(#Dégradé_sans_nom_8);
      }
    </style>
    <linearGradient id="Dégradé_sans_nom" data-name="Dégradé sans nom" x1="1218.57" y1="124.63" x2="768.75" y2="476.19" gradientTransform="translate(40.82 389.94) scale(.5 -.5)" gradientUnits="userSpaceOnUse">
      <stop offset="0" stop-color="#b7835e"/>
      <stop offset="1" stop-color="#dbaf92"/>
    </linearGradient>
    <linearGradient id="Dégradé_sans_nom_2" data-name="Dégradé sans nom 2" x1="1132.49" y1="154.51" x2="855.82" y2="278.18" gradientTransform="translate(40.82 389.94) scale(.5 -.5)" gradientUnits="userSpaceOnUse">
      <stop offset="0" stop-color="#a16f52"/>
      <stop offset="1" stop-color="#c89b7c"/>
    </linearGradient>
    <linearGradient id="Dégradé_sans_nom_3" data-name="Dégradé sans nom 3" x1="714.8" y1="121.44" x2="678.08" y2="-68.1" gradientTransform="translate(40.82 389.94) scale(.5 -.5)" gradientUnits="userSpaceOnUse">
      <stop offset="0" stop-color="#c49675"/>
      <stop offset="1" stop-color="#e1bf9f"/>
    </linearGradient>
    <linearGradient id="Dégradé_sans_nom_4" data-name="Dégradé sans nom 4" x1="310.41" y1="145.4" x2="406.05" y2="176.35" gradientTransform="translate(40.82 389.94) scale(.5 -.5)" gradientUnits="userSpaceOnUse">
      <stop offset="0" stop-color="#a87758"/>
      <stop offset="1" stop-color="#e2b390"/>
    </linearGradient>
    <linearGradient id="Dégradé_sans_nom_5" data-name="Dégradé sans nom 5" x1="322.75" y1="155.15" x2="382.1" y2="171" gradientTransform="translate(40.82 389.94) scale(.5 -.5)" gradientUnits="userSpaceOnUse">
      <stop offset="0" stop-color="#9b6d51"/>
      <stop offset="1" stop-color="#d2a688"/>
    </linearGradient>
    <linearGradient id="Dégradé_sans_nom_6" data-name="Dégradé sans nom 6" x1="423.41" y1="-40.97" x2="586.44" y2="-96.84" gradientTransform="translate(40.82 389.94) scale(.5 -.5)" gradientUnits="userSpaceOnUse">
      <stop offset="0" stop-color="#9e7053"/>
      <stop offset="1" stop-color="#dfb599"/>
    </linearGradient>
    <linearGradient id="Dégradé_sans_nom_7" data-name="Dégradé sans nom 7" x1="1096.05" y1="440.52" x2="1194.71" y2="652.12" gradientTransform="translate(40.82 389.94) scale(.5 -.5)" gradientUnits="userSpaceOnUse">
      <stop offset="0" stop-color="#bd8866"/>
      <stop offset="1" stop-color="#dcb28f"/>
    </linearGradient>
    <linearGradient id="Dégradé_sans_nom_8" data-name="Dégradé sans nom 8" x1="1084.26" y1="415.02" x2="1238.45" y2="423.88" gradientTransform="translate(40.82 389.94) scale(.5 -.5)" gradientUnits="userSpaceOnUse">
      <stop offset="0" stop-color="#ac7959"/>
      <stop offset="1" stop-color="#dfb088"/>
    </linearGradient>
  </defs>
  <path class="st11" d="M315.76,117.09c-15.8-20.77-14.58-49.65.08-70.63,13.46-19.26,31.13-29.91,54.64-31.62,4.5,8.2,7.41,19.64,8.41,28.92,2.32,19.76-3.41,39.62-15.89,55.11-10.81,13.19-24.01,19.24-40.72,20.96-8.28,14.94-15.49,35.31-21.05,51.46,2.92-3.79,5.59-6.61,8.84-10.08.95-12.61,14.6-26.11,25.21-31.68,14.9-7.81,31.47-9.06,47.49-4.28-4.4,21.79-30.65,45.48-52.88,47.55-6.27.58-13.77-.25-18.7-4.42-10.27,9.26-16.18,18.02-19.7,31.24,3.33-2.47,6.62-7.7,10.64-9.68,4.07-2.01,9.14-2.88,13.64-3.26-.64,7.62-1.56,12.74-5.56,19.4-.79,1.31-3.1,4.44-3.36,5.56,38.81-16.61,69.89-36.93,98.54-68.32,6.2-6.79,14.28-18.02,20.29-23.7l.59-.55c2.93-4.16,6.77-8.14,9.98-12.09,22.1-27.14,51.85-40.22,83.49-18.41,15.65,9.75,27.26,26.59,37.43,41.48-.23-5.44-.55-11.06-.6-16.49-27.46-18.91-18.81-66.57,3.3-85.62,21.26,17.8,28.92,57.59,10.31,79.89-2.13,2.58-4.67,4.8-7.51,6.56.24,5.87.73,14.98.68,21.1,0,.26-1.04,1.63-1.27,1.91.82,3.29,8.47,18.38,10.47,22.03.83,2.41,1.1,3.51,2.48,5.69,2.37,5.6,5.64,13.95,7.39,19.69.57,2.39,3.1,10.49,4.31,12.44.46,2.66.73,4.41,1.57,7.01,3.08,10.06,6.46,25.99,8.26,36.42,2.73-.86,5.57-1.77,8.35-2.42,20.25-4.75,45.48,1.8,59.82,17.34-7.31,10.99-23.98,18.76-36.59,21.16-9.67,1.84-17.48,1.37-26.91-1.01,2.44,26.77,1.91,57.34-2.67,83.31-6.46,36.66-22.58,89.71-65.92,94.16-4.05.42-12.16-.06-15.89-1.64-17.14-4.26-36.91-19.35-51.91-29.55-48.99-33.31-102.29-50.65-161.82-50.1-1.94.17-4.3.46-6.21.37-2.97-.59-13.15.31-16.83.59l-5.12.22c-4.13.35-3.73-.02-6.07,3.7-7.86,5.86-19.67,7.6-29.03,4.83.8-.41.53-.11.89-.82-3.06.02-11.04-5.55-12.31-8.17,1.01-.09.6-.08,1.64-.07l.74.02-.52-.73c-2.74-.46-3.92-.76-5.98-2.61l-.88.17-.79-.67c-2.21-2.84-3.26-4.3-5.99-6.67-11.43-15.16-15.81-25.48-20.69-43.95-2.5-14.26-5.36-36.95-1.34-51.17.98-3.32,1.82-7.78,2.57-11.25.27-2.13,2.24-6.87,3.09-9.05,1.75-1.46,2.22-3.99,1.18-6l-1.1-.22c8.42-1.33,7.78-15.08,29.83-18.21,7.81-1.84,18.52,1.33,24.17,7.02,3.14-.46,13.51-2.73,15.62-4.73-2.46-2.69-10.41-2.22-14.29-3.34-20.22-5.87-26.39-25.15-27.52-44.45,21.32,1.78,44.92,9.77,47.28,34.82.26,2.73-.23,8.86.63,10.85l.96.36c2.54-1.28,3.8-8.63,4.4-11.4,5.26-24.09,11.02-39.15,2.26-63.28-3.8-.42-7.53-1.28-11.13-2.57-15.65-5.56-28.7-18.74-35.65-33.7-9.21-20.35-9.97-43.52-2.14-64.43,13.69,3.09,24.24,6.83,35.7,15.63,15.02,11.53,25.88,28.48,28.41,47.4,1.55,11.66-1.45,26.52-8.74,35.93,2.92,11,4.18,16.25,4.3,27.74,3.21-10.81,6.46-21.03,10.63-31.54,3.34-8.42,7.72-16.98,10.73-25.45Z"/>
  <path class="st11" d="M559.87,27.94c21.26,17.8,28.92,57.59,10.31,79.89-2.13,2.58-4.67,4.8-7.51,6.56.24,5.87.73,14.98.68,21.1,0,.26-1.04,1.63-1.27,1.91.82,3.29,8.47,18.38,10.47,22.03.83,2.41,1.1,3.51,2.48,5.69,2.37,5.6,5.64,13.95,7.39,19.69.57,2.39,3.1,10.49,4.31,12.44.46,2.66.73,4.41,1.57,7.01,3.08,10.06,6.46,25.99,8.26,36.42,2.73-.86,5.57-1.77,8.35-2.42,20.25-4.75,45.48,1.8,59.82,17.34-7.31,10.99-23.98,18.76-36.59,21.16-9.67,1.84-17.48,1.37-26.91-1.01,2.44,26.77,1.91,57.34-2.67,83.31-6.46,36.66-22.58,89.71-65.92,94.16-4.05.42-12.16-.06-15.89-1.64.57-.57.35-.2.5-1.17-7.54-3.7-24.08-15.2-29.73-21.71l-3.89-4.29c-.25-.2-1.39-1.83-1.66-2.2-3.15-3.66-6.18-7.4-9.11-11.24l.85-.96c-23.6-34.04-37.97-81.79-45.55-121.98-1.85-9.82-4.35-21.84-5.14-31.64.4-5.78-1.69-23.24-1.85-30.57-.66-31.57.6-62.06,11.39-92.09,2.91-8.11,4.08-12.57,8.31-20.33,1.57-2.73,5.55-10.1,7.93-11.8-.61,2.09-5.56,9.62-7.26,12.18-3.57,5.39-5.15,10.87-6.91,17.1-.52,1.84-1.39,3.35-2.21,5.05-.68,3.72-1.59,6.1-2.9,9.63l.35.7c4.49-.91,3.22.73,4.97-.45,1.4-3.39,1.39-5.41,3.03-9.18,4.8-11.04,10.15-25.34,19.1-34,2.2-3.01,4.89-4.87,6.74-8.09-.37-2.3-.64-.57-1.18-1.85-1.07-2.48.1-3.56-1.31-5.7-7.21-1.92-31.21,31.13-34.96,32.09,2.93-4.16,6.77-8.14,9.98-12.09,22.1-27.14,51.85-40.22,83.49-18.41,15.65,9.75,27.26,26.59,37.43,41.48-.23-5.44-.55-11.06-.6-16.49-27.46-18.91-18.81-66.57,3.3-85.62Z"/>
  <path class="st10" d="M559.87,27.94c21.26,17.8,28.92,57.59,10.31,79.89-2.13,2.58-4.67,4.8-7.51,6.56.24,5.87.73,14.98.68,21.1,0,.26-1.04,1.63-1.27,1.91.82,3.29,8.47,18.38,10.47,22.03.83,2.41,1.1,3.51,2.48,5.69,2.37,5.6,5.64,13.95,7.39,19.69.57,2.39,3.1,10.49,4.31,12.44.46,2.66.73,4.41,1.57,7.01,3.08,10.06,6.46,25.99,8.26,36.42,2.73-.86,5.57-1.77,8.35-2.42,20.25-4.75,45.48,1.8,59.82,17.34-7.31,10.99-23.98,18.76-36.59,21.16-9.67,1.84-17.48,1.37-26.91-1.01,2.44,26.77,1.91,57.34-2.67,83.31-6.46,36.66-22.58,89.71-65.92,94.16-4.05.42-12.16-.06-15.89-1.64.57-.57.35-.2.5-1.17-7.54-3.7-24.08-15.2-29.73-21.71l-3.89-4.29c-.25-.2-1.39-1.83-1.66-2.2-3.15-3.66-6.18-7.4-9.11-11.24l.85-.96c-23.6-34.04-37.97-81.79-45.55-121.98-1.85-9.82-4.35-21.84-5.14-31.64.4-5.78-1.69-23.24-1.85-30.57-.66-31.57.6-62.06,11.39-92.09,2.91-8.11,4.08-12.57,8.31-20.33,1.57-2.73,5.55-10.1,7.93-11.8-.61,2.09-5.56,9.62-7.26,12.18-3.57,5.39-5.15,10.87-6.91,17.1-.52,1.84-1.39,3.35-2.21,5.05-.68,3.72-1.59,6.1-2.9,9.63l.35.7c4.49-.91,3.22.73,4.97-.45,1.4-3.39,1.39-5.41,3.03-9.18,4.8-11.04,10.15-25.34,19.1-34l.84.08c-17.74,22.79-24.99,48.33-28.63,76.5-1.58,12.28-2.55,24.84-2.45,37.23.52,61.8,22.48,164.3,67.78,208.54,10.33,10.09,23.2,18.67,38.21,18.35,11.65-.25,21.62-6.51,29.49-14.71,27.95-29.09,34.75-90.39,33.78-129.44-1.33-53.49-12.74-109.84-38.93-156.94-3.69-6.64-7.49-13.38-12.01-19.49-8.31-11.24-14.41-15.9-24.12-25.11l-.18-1.03c-2.98-1.98-4.67-3.88-2.99-7.39l1.96-.64c15.65,9.75,27.26,26.59,37.43,41.48-.23-5.44-.55-11.06-.6-16.49-27.46-18.91-18.81-66.57,3.3-85.62Z"/>
  <path class="st9" d="M473.71,410c1.77,2.41,8.1,10.09,8.27,12.2-3.15-3.66-6.18-7.4-9.11-11.24l.85-.96Z"/>
  <path class="st13" d="M483.64,424.4l1.12-.71c2.08,1.03,2.47,1.7,3.29,3.92l-.53,1.08-3.89-4.29Z"/>
  <path class="st11" d="M609.42,255.44c2.58-.13,20.09,11.91,25.02,14.33-3.18,1.02-6.58,1.75-9.84,2.52-10.07,1.35-14.96-.43-24.1-4.49l-1.38-10.58c3.44-.55,6.88-1.14,10.3-1.78Z"/>
  <path class="st11" d="M546.6,60.46c5.26,3.67,14.54,25.26,9.58,30.61-5.16-4.89-7.92-9.56-11.5-15.57-.08-5.69.66-9.52,1.92-15.05Z"/>
  <path class="st11" d="M620.01,255.01c13.15-.37,21.02,1.58,33.58,4.19l-5.7,3.82c-2.92,1.77-4.4,2.5-7.52,3.87-3.65-1.83-17.52-9.03-20.52-11.19l.16-.69Z"/>
  <path class="st11" d="M573.47,62.73c1.16,1.47,1.47,8.38,1.49,10.47.08,7.78-5.74,12.28-10.96,17.35-.47.22-.16.12-.98.07-.36-3.16.02-8.36.17-11.72,3.3-5.55,7.04-10.26,10.28-16.17Z"/>
  <path class="st11" d="M556.91,39.16c1.5,2.14.73,25.89.65,30.07l-3.29-4.84-5.39-9.69c2.47-6.24,4.38-9.89,8.02-15.54Z"/>
  <path class="st11" d="M562.66,40.17c4.02,4.05,7.23,11.34,9.33,16.57l-5.4,8.63-3.55,5.93c.18-6.92.36-24.78-.39-31.13Z"/>
  <path class="st11" d="M615.46,242c1.27-.13,3.91-.02,5.3,0-8.28,4.7-8.07,6.89-18.1,8.96-1.61.3-1.85.47-3.47.11-1.16-1.39-1.08-2.68-1.45-4.66,6.98-2.52,10.35-3.71,17.72-4.4Z"/>
  <path class="st11" d="M544.42,83.08c.97.62,9.27,11.16,11.96,13.64.04,2.87-.07,5.97-.11,8.86l-.76-.04c-6.15-5.34-9.62-14.63-11.09-22.46Z"/>
  <path class="st11" d="M629.12,243.49c4.49.35,7.37,1.49,11.51,3.07-3.65,1.21-9.1,2.71-12.86,3.17-4.36.34-8.16.49-12.54.58,4.53-2.81,8.63-5.8,13.89-6.81Z"/>
  <path class="st11" d="M573.63,86.3c2.3,2.84-7.85,18.72-10.73,21.57-.91-1.26-.04-9.11.11-11.3,4.32-3.42,7.15-6.04,10.62-10.28Z"/>
  <path class="st11" d="M644.89,248.85c1.97.72,7.67,2.65,8.66,4.26h-1.63c-3.62-1.13-7.72-1.62-11.51-2.19,1.49-.59,3.02-1.37,4.47-2.07Z"/>
  <path class="st16" d="M426.26,119.07c2.93-4.16,6.77-8.14,9.98-12.09,22.1-27.14,51.85-40.22,83.49-18.41l-1.96.64c-1.68,3.51.01,5.41,2.99,7.39l.18,1.03c-25.03-16.01-41.78-16.16-63.12,5.06l-.84-.08c2.2-3.01,4.89-4.87,6.74-8.09-.37-2.3-.64-.57-1.18-1.85-1.07-2.48.1-3.56-1.31-5.7-7.21-1.92-31.21,31.13-34.96,32.09Z"/>
  <path class="st11" d="M443.33,310.89c-8.6-38.15-14.51-73.43-10.77-113.07,3.12-30.39,11.14-71.4,34.98-92.22,21.58-18.84,47.97-3.46,63.34,15.09,9.82,10.91,18.84,27.4,24.9,40.66,22.74,51,33.08,106.66,30.17,162.42-1.71,31.8-8.89,77.02-33.08,99.52-21.24,19.76-47.32,5.6-62.84-13.73-22.52-28.03-37.85-64.06-46.7-98.67Z"/>
  <path class="st16" d="M487.09,226.04c34.74-6,46.05,78.99,15.34,81.69-1.81-.6-1.81-.58-3.73-.67-3.05-1.06-3.61-1.13-6.22-3.05-17.74-16.92-23.2-52.05-10.42-73.15,1.71-1.78,3.23-3.18,5.03-4.82Z"/>
  <path class="st16" d="M515.88,277.65c-.45,10.35-5.69,31.73-21.33,21.9-9.4-6.94-11.62-20.06-14.37-29.78-3.59-12.71,1.9-51.02,21.84-34.01,9.43,10.06,15.01,28.29,13.85,41.88Z"/>
  <path class="st11" d="M515.88,277.65c-.45,10.35-5.69,31.73-21.33,21.9-9.4-6.94-11.62-20.06-14.37-29.78-3.59-12.71,1.9-51.02,21.84-34.01l-.55,1.16c-4.93-3.7-10.78-6-14.86.44-6.31,9.95-5.86,23.13-3.5,34.21,1.64,7.96,9.26,30.45,20.61,27.58,8.21-2.08,10.76-15.29,11.09-22.86l1.07,1.35Z"/>
  <path class="st6" d="M502.03,235.77c9.43,10.06,15.01,28.29,13.85,41.88l-1.07-1.35c-.12-14.49-3.24-28.45-13.33-39.37l.55-1.16Z"/>
  <path class="st11" d="M479.06,231.53c1.45-.78,1.35-.72,3-.67-12.78,21.1-7.32,56.23,10.42,73.15,2.61,1.92,3.17,1.99,6.22,3.05-3.52.23-5.7-2.1-8.32-1.99-4.66.19-9.88,1.11-14.54,1.78l-26.58,3.83c-6.18-25.11-9.53-44.3-11.43-70.33.13-1.11.2-1.34.53-2.42,2.27-.9,11.27-2.03,14.2-2.45,8.85-1.18,17.68-2.5,26.49-3.94Z"/>
  <path class="st4" d="M479.06,231.53c1.45-.78,1.35-.72,3-.67-12.78,21.1-7.32,56.23,10.42,73.15-.91-.15-2.39-.44-3.16-.98-18.74-13.35-24.11-49.08-11.96-67.69l1.9-2.94-.2-.87Z"/>
  <path class="st8" d="M526.95,124.12c.66-1.01-.22-1.63.73-3.56l1.38-.44.87.84.96-.27c9.82,10.91,18.84,27.4,24.9,40.66,22.74,51,33.08,106.66,30.17,162.42-1.71,31.8-8.89,77.02-33.08,99.52-21.24,19.76-47.32,5.6-62.84-13.73-22.52-28.03-37.85-64.06-46.7-98.67,2.05.45,3.24.04,4.76.41l.34.67.77-.52,1.23,3.17c2.58,6.81,4.89,16.82,7.49,24.25,8.15,23.85,19.17,45.16,34.57,65.13,13.14,17.03,36.1,32.16,55.8,15.36,20.29-17.3,28.23-55.81,30.97-81.75,7.11-67.45-8.62-159.87-52.31-213.49Z"/>
  <path class="st16" d="M443.33,310.89c-8.6-38.15-14.51-73.43-10.77-113.07,3.12-30.39,11.14-71.4,34.98-92.22,21.58-18.84,47.97-3.46,63.34,15.09l-.96.27-.87-.84-1.38.44c-.95,1.93-.07,2.55-.73,3.56-33.66-36.38-60.71-23.09-77.03,19.97-10.81,28.53-13.52,58.6-12.36,88.9,0,1.85-.18,5.77.27,7.35,1.91,26.03,5.25,45.22,11.43,70.33l-.07.78-.77.52-.34-.67c-1.52-.37-2.71.04-4.76-.41Z"/>
  <path class="st13" d="M437.57,232.99c14.83-1.89,35.34-5.86,49.52-6.96-1.8,1.64-3.33,3.05-5.03,4.82-1.65-.05-1.55-.11-3,.67-8.81,1.45-17.64,2.76-26.49,3.94-2.93.42-11.93,1.56-14.2,2.45-.33,1.08-.4,1.3-.53,2.42-.45-1.58-.27-5.5-.27-7.35Z"/>
  <path class="st13" d="M449.27,310.67l26.58-3.83c4.66-.67,9.88-1.59,14.54-1.78,2.61-.11,4.8,2.22,8.32,1.99,1.92.09,1.92.06,3.73.67-12.18,2.42-39.49,5.99-51.99,6.89l-1.23-3.17.07-.78Z"/>
  <path class="st13" d="M572.14,308.33c1.07,27.53.24,44.75-10.85,70.48,2.11-17.41,6.49-34.89,8.54-52.33.48-4.15,1.42-11.45,1.36-15.43l.96-2.72Z"/>
  <path class="st6" d="M571.19,311.05c-.11-2.69-.18-3.24.53-5.8.58,1.27.4,1.61.42,3.08l-.96,2.72Z"/>
  <path class="st3" d="M315.76,117.09c-15.8-20.77-14.58-49.65.08-70.63,13.46-19.26,31.13-29.91,54.64-31.62,4.5,8.2,7.41,19.64,8.41,28.92,2.32,19.76-3.41,39.62-15.89,55.11-10.81,13.19-24.01,19.24-40.72,20.96-8.28,14.94-15.49,35.31-21.05,51.46,2.92-3.79,5.59-6.61,8.84-10.08.95-12.61,14.6-26.11,25.21-31.68,14.9-7.81,31.47-9.06,47.49-4.28-4.4,21.79-30.65,45.48-52.88,47.55-6.27.58-13.77-.25-18.7-4.42-10.27,9.26-16.18,18.02-19.7,31.24,3.33-2.47,6.62-7.7,10.64-9.68,4.07-2.01,9.14-2.88,13.64-3.26-.64,7.62-1.56,12.74-5.56,19.4-.79,1.31-3.1,4.44-3.36,5.56,38.81-16.61,69.89-36.93,98.54-68.32,6.2-6.79,14.28-18.02,20.29-23.7l.59-.55c3.76-.97,27.75-34.02,34.96-32.09,1.41,2.13.24,3.21,1.31,5.7.55,1.28.82-.46,1.18,1.85-1.85,3.23-4.54,5.08-6.74,8.09-8.95,8.66-14.3,22.96-19.1,34-1.64,3.78-1.62,5.79-3.03,9.18-1.75,1.18-.47-.46-4.97.45l-.35-.7c1.31-3.54,2.22-5.92,2.9-9.63.83-1.7,1.69-3.21,2.21-5.05,1.76-6.23,3.34-11.71,6.91-17.1,1.7-2.56,6.64-10.09,7.26-12.18-2.38,1.7-6.36,9.08-7.93,11.8l-.1-.84c-.95-.44-1.91-.86-2.87-1.28l-2.02,3.11c-5.25,7.25-10.35,14.51-16.12,21.35-29.4,34.85-65.33,62.38-107.45,80.05-27.09,11.36-55.15,20.81-84.32,25.47-1.77.28-3.54.55-5.3.82,5.86-7.43,9.02-7.65,18.3-9.5,1.76-.35,3-.04,4.57-1.02-9.27-5.46-21.48,3.64-27.96,9.96-2.14.56-1.1.61-3.23-.26-1.64-3.47,2.46-6.5,4.8-8.68,1.46-.74,1.4-.64,2.23-2.03l-.31-1.03-1.03-.41c-2.66,1.5-4.6,3.66-6.88,5.56-3.56,2.96-4.16,4.22-6.31,8.04-1.6-.15-1.15-.18-2.62-1.66l-.48.13.77-.37c5.3-10.55,16.43-17.42,28.17-18.05l.73-.03-.36-.58.37.54-1.27-.5c-.9.26-1.13.14-2.07.05,7.81-1.84,18.52,1.33,24.17,7.02,3.14-.46,13.51-2.73,15.62-4.73-2.46-2.69-10.41-2.22-14.29-3.34-20.22-5.87-26.39-25.15-27.52-44.45,21.32,1.78,44.92,9.77,47.28,34.82.26,2.73-.23,8.86.63,10.85l.96.36c2.54-1.28,3.8-8.63,4.4-11.4,5.26-24.09,11.02-39.15,2.26-63.28-3.8-.42-7.53-1.28-11.13-2.57-15.65-5.56-28.7-18.74-35.65-33.7-9.21-20.35-9.97-43.52-2.14-64.43,13.69,3.09,24.24,6.83,35.7,15.63,15.02,11.53,25.88,28.48,28.41,47.4,1.55,11.66-1.45,26.52-8.74,35.93,2.92,11,4.18,16.25,4.3,27.74,3.21-10.81,6.46-21.03,10.63-31.54,3.34-8.42,7.72-16.98,10.73-25.45Z"/>
  <path class="st4" d="M291.49,199.62c3.33-2.47,6.62-7.7,10.64-9.68,4.07-2.01,9.14-2.88,13.64-3.26-.64,7.62-1.56,12.74-5.56,19.4-.79,1.31-3.1,4.44-3.36,5.56-2.52,1.99-17.3,7-20.68,8.08,1.96-6.73,1.79-13.39,5.33-20.09Z"/>
  <path class="st11" d="M308.07,193.71l.78.36c1.38,6.62-9.09,15.38-14.94,17.48-.5.02-.18.06-.84-.47,2.25-7.22,8.19-14.14,15-17.37Z"/>
  <path class="st0" d="M437.91,111.27c1.02-1.01,2.18-3.22,2.29-3.33,2.14-2.1,9.89-10.99,12.16-11.35-.28,2.35-1.87,3.48-3.55,5-2.38,1.7-6.36,9.08-7.93,11.8l-.1-.84c-.95-.44-1.91-.86-2.87-1.28Z"/>
  <path class="st11" d="M269.77,70.03c4.77,2.84,10.69,11.01,13.46,15.81-1.35,10.41-2.73,18.52-4.98,28.77-.08.64-.28,1.39-.42,2.04-1.56-.75-8.63-13.8-9.11-15.98-1.57-7.07.54-23.79,1.06-30.63Z"/>
  <path class="st11" d="M328.48,39.75c.29.33,6.5,29.81,7.16,33.04-1.93,4.31-4.39,10.21-6.59,14.25l-.59-.02c-3.02-12.36-6.21-21.93-9.1-35.14,2.3-4.72,5.46-8.45,9.12-12.13Z"/>
  <path class="st11" d="M373.07,56.8c.83,1.81-1.52,12.11-2.24,14.49-7.24,4.16-25.67,11.3-34.51,15.5l-.41-.37c.17-2.07,5.6-12.15,7.21-13.19,9.47-6.09,20.3-10.35,29.95-16.44Z"/>
  <path class="st11" d="M236.68,94.38c9.34,3.81,19.01,9.13,28.72,13.13,2.85,4.41,5.38,9.82,7.62,14.61-6.22-1.38-24.34-8.55-30.02-11.31-3.48-4.71-4.89-10.85-6.32-16.42Z"/>
  <path class="st11" d="M367.84,78.28c.26.09.39.37.57.56-4.97,9.2-4.36,12.24-15.59,16.62-7.82,3.05-15.41,5.71-23.45,8.24-.4-.04-.13.02-.75-.39,2.5-8.65,5.7-10.58,13.77-14.24,8.39-3.8,17-7.11,25.45-10.79Z"/>
  <path class="st11" d="M286.89,92.09c1.12.69,1.5,1.46,1.97,2.68,6.6,17.32,5.89,27.93-1.05,44.26-1.73-2.85-5.65-12.55-6.93-15.75,3.15-8.37,5.1-22.3,6.02-31.19Z"/>
  <path class="st11" d="M315.27,57.61c1.45,1.94,8.91,30.31,11.19,35.88-.02,1.31-2.25,7.01-3.76,7.5-5.71-8.17-9.36-16.57-12.91-25.76.4-5.82,3.01-12.38,5.48-17.61Z"/>
  <path class="st11" d="M342.94,28.16c1.07,2.84,2.37,20.64,3.31,25.68-1.33,2.67-4.67,10.44-6.33,12.29l-.77-1.45c-3.12-10.11-4.73-18.12-6.75-28.44,3.46-2.9,6.91-5.41,10.53-8.08Z"/>
  <path class="st11" d="M245.88,117.12c1.75.47,7.14,3.06,9.25,3.92,6.95,2.84,13.28,5.22,20.68,6.64,2.61,4.15,4.73,9.71,6.57,14.32-14.43-1.59-28.6-13.23-36.5-24.88Z"/>
  <path class="st11" d="M235.06,74.52c6.42,3.42,11.21,8.06,19.16,11.78,2.98,4.76,5.52,9.79,8.14,14.77-6.42-1.8-21.35-9.56-26.86-12.94-.41-4.91-.44-8.71-.44-13.61Z"/>
  <path class="st11" d="M371.99,40.24l.76.52c.61,2.26.76,7.84.9,10.44-7.44,4.62-16.97,9.1-24.84,12.93l-.71.04-.11-.85c6.33-12.65,11.72-15.84,24-23.09Z"/>
  <path class="st11" d="M255.3,60.44c3.22,1.22,7.18,4.2,9.88,6.3.08,7.82-.92,18.44-1.3,26.6-2.37-2.43-8.8-16.88-9.74-20.7.06.26,1.11-10.99,1.16-12.2Z"/>
  <path class="st11" d="M349.75,142.69c6.11,1.98,10.85,1.78,17.21,2.05-.26.29-.53.57-.81.84-3.94,3.99-6.22,6.83-11.88,6.86-7.63-.06-11.88-.7-19.29-2,4.9-2.74,9.63-5.5,14.76-7.76Z"/>
  <path class="st11" d="M362.07,21.43l.42.21c.12,1.69-10.4,22.52-11.98,25.35l-.52-.35c-.52-6.93-1.02-13.72-2.37-20.56,5.14-2.13,9-3.59,14.45-4.65Z"/>
  <path class="st11" d="M331.64,152.7c.86.03,8.28,1.87,9.82,2.2,4.97,1.07,8.48,1.5,13.57,1.98-2.98,2.06-5.26,3.76-8.57,5.25-8.27-.86-15.01-1.37-23.23-2.93,2.73-2.27,5.54-4.43,8.42-6.49Z"/>
  <path class="st11" d="M237.72,55.7c1.36,1.21,12.18,22.27,12.28,23.76l-.73-.1c-4.53-3.34-9.5-6.31-14.28-9.29.56-4.85,1.33-9.69,2.73-14.37Z"/>
  <path class="st11" d="M355.54,98.89l-.08.62c-7.42,8.87-19.7,12.98-30.64,15.03-.12-1.79,1.02-3.69,1.81-5.39,8.57-1.88,20.88-6.86,28.91-10.25Z"/>
  <path class="st11" d="M240.97,204.87c14.98,5.26,13.7-.79,24.27,13.02-10.33-.01-18.66-4.36-24.27-13.02Z"/>
  <path class="st11" d="M336.98,134.3l.36.26c-4.93,11.15-10.35,15.4-20.08,21.64l-.33-.22c4.58-9.26,11.02-16.58,20.05-21.67Z"/>
  <path class="st11" d="M368.44,24.19c1.15,1.98,2.51,8.59,2.97,11.03-3.96,2.46-7.85,5.01-11.68,7.66l-.84.6-.3-.5c1.39-4.11,7.54-14.7,9.85-18.79Z"/>
  <path class="st11" d="M354.54,127.92l.47.35c-.02.14-.04.27-.07.41-4.32,8-10.34,10.9-17.28,14.55l-.26-.36c1.08-4,6.24-9.92,9.5-12.26,2.33-1.67,4.89-2.16,7.62-2.68Z"/>
  <path class="st11" d="M309.24,85.65c1.52,1.17,2.57,4.52,3.37,6.35,2.37,5.41,4.53,9.44,8.36,13.91l-1.83,4.56-.41.79-.62.18c-4.65-3.68-8.39-19.98-8.87-25.79Z"/>
  <path class="st11" d="M320.36,161.67c5.78,1.9,16.15,2.53,22.23,2.66-1.94.94-3.35,1.5-5.39,2.25-1.83.42-3.69.68-5.56.78-3.29.17-13.28.21-15.61-1.92l.06-.69,4.26-3.08Z"/>
  <path class="st11" d="M262.05,194.64c.57.4,1.12.84,1.62,1.33,4.8,4.61,6.71,12.62,6.97,19.06-1.92-1.07-5.88-6.9-7.45-9.01-.16-4.71-.16-6.78-1.14-11.37Z"/>
  <path class="st11" d="M248.46,186.05c3.97,1.66,5.83,2.98,8.89,5.78,1.21,3.11,1.56,7.69,1.88,11.05-6.46-5.01-8.34-9.52-10.77-16.83Z"/>
  <path class="st11" d="M236.62,195.01c9.29,1.83,11.04,2.69,17.4,9.91-8.61-1.99-13.78-1.22-17.4-9.91Z"/>
  <path class="st11" d="M374.13,132.88l.26.86c-1.46,2.97-3.46,4.81-5.98,6.91-3.82.14-8.47-.17-12.35-.32l-.58-.14c1.14-1.79,15.6-6.23,18.65-7.31Z"/>
  <path class="st11" d="M243.51,55.21c3.01,1.08,5.39,2.22,8.08,3.94.17,4.87.66,8.01,1.63,12.75-2.62-2.76-8.08-12.91-9.71-16.69Z"/>
  <path class="st11" d="M362.16,127.52c3.87-.11,7.79-.15,11.66-.22-3.21,1.54-4.93,2.14-8.32,3.25-2.96,1.01-5.94,1.98-8.93,2.92,1.72-2.2,3.36-5.12,5.58-5.96Z"/>
  <path class="st11" d="M233.82,186.01c2.96.68,7.8,6.01,10.21,8.4-6.09-2.3-8.07-2.05-10.21-8.4Z"/>
  <path class="st11" d="M237.74,183.63c6.55-.04,6.91,2.93,8.8,8.36-2.28-1.51-6.68-6.22-8.8-8.36Z"/>
  <path class="st14" d="M456.32,394.61c-8.68-14.99-20.19-41.25-24.09-58.22l.22-.33c4.07,8.68,7.51,18.05,11.94,26.47,8.71,16.55,17.32,33.39,28.48,48.43,2.93,3.84,5.97,7.58,9.11,11.24.27.36,1.41,1.99,1.66,2.2l3.89,4.29c5.65,6.52,22.19,18.02,29.73,21.71-.15.97.07.61-.5,1.17-17.14-4.26-36.91-19.35-51.91-29.55-48.99-33.31-102.29-50.65-161.82-50.1-1.94.17-4.3.46-6.21.37-2.97-.59-13.15.31-16.83.59l-5.12.22c-4.13.35-3.73-.02-6.07,3.7-2.12-4.23-10.8-4.38-14.95-3.22-.44.05-.88.09-1.33.13-1.88.16-3.59.36-5.05-.89-.06-1.65-.25-.85.96-2.39,2.08-.41,3.72-.49,5.83-.66l.26-.81c55.6-8.48,117.94-1.9,168.91,22.29,20.09,9.53,32.93,17.88,51.21,29.5-2.03-2.18-6.51-7.33-8.49-9.12-.68-2.3-2.27-5.15-3.81-6.99-1.47-2.86-4.28-7.17-6.02-10.03Z"/>
  <path class="st12" d="M200.28,240.45c8.42-1.33,7.78-15.08,29.83-18.21.94.09,1.16.21,2.07-.05l1.27.5-.37-.54.36.58-.73.03c-11.73.64-22.86,7.5-28.17,18.05l-.77.37.48-.13c1.47,1.47,1.02,1.51,2.62,1.66,2.15-3.82,2.75-5.07,6.31-8.04,2.28-1.9,4.22-4.06,6.88-5.56l1.03.41.31,1.03c-.83,1.39-.78,1.29-2.23,2.03-2.34,2.18-6.44,5.21-4.8,8.68,2.13.87,1.09.82,3.23.26-23.25,33.22-13.69,98.88,19.43,124.57,5.96,4.63,10.54,3.1,17.49,2.87l-.26.81c-2.1.16-3.74.25-5.83.66-1.21,1.54-1.02.73-.96,2.39,1.46,1.25,3.17,1.05,5.05.89.44-.04.88-.08,1.33-.13,4.16-1.15,12.83-1.01,14.95,3.22-7.86,5.86-19.67,7.6-29.03,4.83.8-.41.53-.11.89-.82-3.06.02-11.04-5.55-12.31-8.17,1.01-.09.6-.08,1.64-.07l.74.02-.52-.73c-2.74-.46-3.92-.76-5.98-2.61l-.88.17-.79-.67c-2.21-2.84-3.26-4.3-5.99-6.67-11.43-15.16-15.81-25.48-20.69-43.95-2.5-14.26-5.36-36.95-1.34-51.17.98-3.32,1.82-7.78,2.57-11.25.27-2.13,2.24-6.87,3.09-9.05,1.75-1.46,2.22-3.99,1.18-6l-1.1-.22Z"/>
  <path class="st15" d="M199.73,271.76c2.56-14.49,6.71-29.91,18.79-39.66l.65.48c-2.34,2.18-6.44,5.21-4.8,8.68,2.13.87,1.09.82,3.23.26-23.25,33.22-13.69,98.88,19.43,124.57,5.96,4.63,10.54,3.1,17.49,2.87l-.26.81c-2.1.16-3.74.25-5.83.66-1.21,1.54-1.02.73-.96,2.39,1.46,1.25,3.17,1.05,5.05.89.44-.04.88-.08,1.33-.13l.29.82c-5.95.14-9.88-.48-15.69-1.35-.9-1.28-4.74-3.99-6.49-4.08-.36-.79-.15-.54-.75-1.1-3.09-2.88-6.02-5.92-8.76-9.13-19.36-22.61-25.07-57.96-22.7-86.97Z"/>
  <path class="st11" d="M198.81,271.39l.92.38c-2.37,29.01,3.34,64.36,22.7,86.97,2.75,3.21,5.67,6.26,8.76,9.13.6.57.39.32.75,1.1-28.47-17.56-40.06-66.66-33.13-97.58Z"/>
  <path class="st6" d="M198.81,271.39c2.31-12.35,7.09-33.91,19.81-39.99l-.11.71c-12.08,9.75-16.23,25.17-18.79,39.66l-.92-.38Z"/>
  <path class="st11" d="M238.43,373.05c5.81.88,9.74,1.49,15.69,1.35,1.58-.2,4.99-.87,6.23-.24l-1.34.62-.36-.9-.14,1.04c-2.4.54-4.84.95-7.3,1.19-4.6.43-9.11-.05-12.79-3.06Z"/>
  <path class="st5" d="M239.74,357.12c10.16-2.15,21.2-3.24,31.56-3.88,56.42-3.49,114.66,1.67,165.15,29.1,7.33,3.98,12.72,6.42,18.1,12.98l1.76-.72c1.74,2.86,4.55,7.17,6.02,10.03,1.54,1.84,3.12,4.69,3.81,6.99-3.62-2.35-6.97-5.26-10.74-7.49-6.46-3.83-13.02-7.85-19.63-11.38-41.16-21.58-87.05-32.52-133.52-31.81-9.18.14-18.75.66-27.92,1.29-8.07.55-16.45,1.82-24.52,2.04-4.18-2.15-6.47-4.18-10.07-7.15Z"/>
  <path class="st17" d="M456.32,394.61c1.74,2.86,4.55,7.17,6.02,10.03l-.26.23c-1.55-.88-6.26-7.8-7.51-9.54l1.76-.72Z"/>
  <path class="st13" d="M437.91,111.27c.96.42,1.92.84,2.87,1.28l.1.84c-4.23,7.76-5.4,12.23-8.31,20.33-10.79,30.03-12.05,60.52-11.39,92.09.16,7.33,2.25,24.79,1.85,30.57l-.61.41c-.47,4.62-.19,11.39-.2,16.25-.08,1.84.09,4.23-.86,5.67-7.72-45.13-8.02-91.16,2.95-135.81,2.36-9.63,9.62-20.13,11.59-28.52l2.02-3.11Z"/>
  <path class="st4" d="M422.21,273.04c.57,4.16.51,8.23.43,12.42-.68-2.65-1.05-3.96-1.29-6.75.96-1.45.79-3.84.86-5.67Z"/>
  <path class="st17" d="M406.93,158.27c4.14-4.89,12.28-14.25,15.58-19.54-1.4,5.86-3.23,14.84-4.9,20.38.97,4.25-3.43,22.26-4.04,28.36-1.2,11.99-1.62,24.04-1.27,36.08.4,10.28,1.95,21.18.87,31.42-.45,4.27-1.59,8.74-4.04,12.32-21.67,31.65-151.02,40.59-191.07,48.1-.25-1.08-.49-2.17-.73-3.26-4.13-19.12-4.91-42.85,5.09-60.43,2.9-5.09,15.81-7.06,21.43-8.46,9.39-2.31,18.73-4.81,28.02-7.5,43.41-13.01,88.84-35.77,122.47-66.34,2.84-2.58,9.53-10.55,12.58-11.12Z"/>
  <path class="st7" d="M406.93,158.27c4.14-4.89,12.28-14.25,15.58-19.54-1.4,5.86-3.23,14.84-4.9,20.38-7.04,22.56-15.43,32.74-34.35,46.98-47.99,36.12-106.09,51.56-164.07,63.01,7.7-18.27,7.79-15.44,26.61-20.54,9.43-2.51,18.82-5.15,28.18-7.9,45.94-13.7,103.63-43.18,132.95-82.38Z"/>
  <path class="st3" d="M141.07,138.54c-9.88-22.62-6.08-48.14,2.44-70.57,6.15-16.19,23.17-44.82,39.3-51.91,4.21,7.03,7.2,17.84,8.9,25.75,5.57,26.01.55,55.49-14.31,77.67-6.69,9.98-17.28,21.54-29.7,23.99-4.57,12.62-8.43,39.48-9.62,53.08,4.93-6.85,4.43-9.27,7.02-17.09,3.73-10.9,9.97-20.77,18.22-28.81,16.68-16.24,44.61-27.23,67.87-26.95-.24,4.95-.79,8.26-2.29,13.03-7.25,22.39-23.04,41.01-43.95,51.82-11.16,5.75-25.48,11.23-37.98,7.21-3.01,3.53-6.09,6.99-9.25,10.4-1.49,12.72-.54,34.34.69,47.08,4.69-1.6,11.09-4.21,15.8-5,15.44-2.58,30.69-4.79,46.08-7.8l1.1.22c1.04,2.01.58,4.54-1.18,6-.85,2.18-2.82,6.92-3.09,9.05-.75,3.46-1.6,7.93-2.57,11.25-4.02,14.22-1.15,36.92,1.34,51.17,4.88,18.47,9.26,28.79,20.69,43.95,2.72,2.36,3.77,3.83,5.99,6.67l.79.67.88-.17c2.06,1.85,3.24,2.15,5.98,2.61l.52.73-.74-.02c-1.04-.01-.62-.03-1.64.07,1.27,2.62,9.25,8.2,12.31,8.17-.35.7-.08.4-.89.82,9.36,2.77,21.17,1.03,29.03-4.83,2.34-3.72,1.94-3.35,6.07-3.7l5.12-.22c3.68-.28,13.86-1.17,16.83-.59,1.91.09,4.27-.2,6.21-.37,2.79,13.51,6.35,28.18-1.98,40.81-4.28,6.44-10.92,10.93-18.49,12.51-.25.04-.49.09-.74.14,6.31,10.89,13.19,21.44,20.63,31.6,5.49,7.38,16.98,18.81,17.58,27.74-3.89,11.6-15.45,17.99-25.87,23.11-14.5,7.13-42.02,15.85-53.77-.42-4.71-6.53-7.93-18.92-10.31-26.76-3.49-11.29-7.09-22.55-10.79-33.78-1.9-5.79-3.85-11.96-6.14-17.61-.62-1.54-.6-1.24-1.89-1.7-10.52-1.28-16.56-2.12-27.24-1.06,3.67,10.74,3.37,18.54-1.71,28.9-8.7,17.16-25.27,29.04-43.22,35.07-6.36,2.92-6.19-3.24-7.34-8.72-4.92-23.42,4.53-65.64,35.45-63.27,8.27.64,10.1,2.66,19.92,1.34-2.82-1.27-5.65-2.52-8.49-3.75-14.31-6.15-28.36-6.51-42.79-.77l.12.41c.82,2.85,1.35,6.24,1.17,9.17-2.15,34.11-39.76,46.59-68.97,41.52-4.28-.74-11.22-2.03-14.69-3.96-4.93-5.89,9.4-32.58,13.67-38.03,11.14-14.24,22.59-20.14,40.13-22.66-2.77-1.69-5.48-3.52-8.19-5.31-9.77,2.67-17.41,3.03-27.26.41-18.95-5.04-38.42-22.42-48.05-39.18,10.15-2.36,18.19-2.62,28.51-1.17-19.7-17.57-28.19-32.53-34.38-58.02,22.49-1.49,52.41,8.5,68.58,24.38,1.69-15.49,7.7-31.6,17.12-44.06-39.34,4.08-74.07-32.13-86.32-66.56,10.29-1.68,30.55.04,40.86,2.14,21.83,4.43,45.61,12.71,61.86,28.54,4.57,4.45,7.9,9.36,11.46,14.51-.54-10.1-1.6-20.96-2.4-31.13-.41.13-.82.25-1.23.37-7.39,2.15-13.9.04-20.4-3.61-16.27-9.2-28.24-24.46-33.29-42.46,22.4,4.14,44.67,10.04,55.41,32.38.01-11.4,2.56-16.48-3.77-26.64-34.77-6.33-51.65-48.8-52.2-80.46,23.88,12.12,52.87,38.1,56.22,66.33.71,5.98-1.11,8.99,1.5,14.64l.37.79c1.8-15.71,5.46-33.84,9.41-49.11Z"/>
  <path class="st11" d="M114.67,307.18c1.14-10.16,2.59-17.6,7.82-26.56-11.89,36.44,3.1,89.95,42.89,102.4,18.83,5.9,45.86-3.61,65.88-5.9,2.82,1.9,5.17,3.7,8.51,4.53,9.36,2.77,21.17,1.03,29.03-4.83,2.34-3.72,1.94-3.35,6.07-3.7l5.12-.22c3.68-.28,13.86-1.17,16.83-.59,1.91.09,4.27-.2,6.21-.37,2.79,13.51,6.35,28.18-1.98,40.81-4.28,6.44-10.92,10.93-18.49,12.51-.25.04-.49.09-.74.14,6.31,10.89,13.19,21.44,20.63,31.6,5.49,7.38,16.98,18.81,17.58,27.74-3.89,11.6-15.45,17.99-25.87,23.11-14.5,7.13-42.02,15.85-53.77-.42-4.71-6.53-7.93-18.92-10.31-26.76-3.49-11.29-7.09-22.55-10.79-33.78-1.9-5.79-3.85-11.96-6.14-17.61-.62-1.54-.6-1.24-1.89-1.7.81-.29.36-.06,1.24-.82.1-2.12-.17-4.96-1.8-6.49l-2.3-.02c-2.77-1.65-11.03-26.13-15.82-32.72-3.35.12-6.98.91-10.4,1.03-17.07.62-31.62-6.29-44.04-17.38-16.94-20.78-23.6-36.99-23.48-64Z"/>
  <path class="st2" d="M296.82,372.29c1.91.09,4.27-.2,6.21-.37,2.79,13.51,6.35,28.18-1.98,40.81-4.28,6.44-10.92,10.93-18.49,12.51-.25.04-.49.09-.74.14,6.31,10.89,13.19,21.44,20.63,31.6,5.49,7.38,16.98,18.81,17.58,27.74-2.34-.16-3.73-.28-6.02-.73l-.3-1.23c-2.07-2.78-9.83-.6-13.41-.16-14.46-9.47-35.01-50.92-42.54-67.18-1.36-2.94-4.34-9.93-3.1-13.09,1.52-1.49,1.99-1.53,4.05-2.33,4.38.28,7.97-4.35,11.76-4.82,1.21-.15,1.34.83,3.53-.07-1.3,4.57-10.72,5.98-13.77,9.93-1.4,11.54,31.46,62.79,40.74,71.77,2.51-.59,4.67-1.29,7.11-2.07-6.37-7.94-35.71-49.89-35.53-56.71,2.82,2.3,5.8,1.65,9.09.61,22.76-7.15,20.09-29.46,15.19-46.36Z"/>
  <path class="st13" d="M210.71,420.27c1.28-1.3,2.95-1.55,4.74-2.06,10.58,27.05,18.24,55.32,29.16,82.15,1.33,3.28,5.43,6.75,8.63,8.11,14.66,6.23,44.08-9.55,55.05-18.72-11.29,4.77-35.03,13.63-46.5,15.42,15.69-8.58,32.62-15.15,49.81-19.59,1.45-.38,1.58-1.53,2.1-2.82l.3,1.23c2.3.45,3.68.57,6.02.73-3.89,11.6-15.45,17.99-25.87,23.11-14.5,7.13-42.02,15.85-53.77-.42-4.71-6.53-7.93-18.92-10.31-26.76-3.49-11.29-7.09-22.55-10.79-33.78-1.9-5.79-3.85-11.96-6.14-17.61-.62-1.54-.6-1.24-1.89-1.7.81-.29.36-.06,1.24-.82.1-2.12-.17-4.96-1.8-6.49Z"/>
  <path class="st13" d="M274.86,373.1l5.12-.22.13.62c2.42,10.71,9.41,19.45,10.58,30.28.36,3.36-5.51,13.19-9.1,10.73-.86-4.49,4.8-3.36,3.32-13.12-1.4-9.21-9.08-20.55-10.06-28.29Z"/>
  <path class="st4" d="M258.7,400.01c2.48-1.35,11.83-7.43,14.01-7.28.85.06,1.53.9,2.09,1.55.64,4.65-10.77,9.49-14.58,10.77,3.05-3.95,12.47-5.36,13.77-9.93-2.19.9-2.32-.08-3.53.07-3.79.47-7.38,5.09-11.76,4.82Z"/>
  <path class="st17" d="M225.41,391c7.82-1.18,22.61.12,30.63.29,2.82.06,3.59-.08,5.43,1.88.1.89.31,1.6-.63,2.17-9.79,5.93-14.02,8.54-21.13,17.59,1.13,2.99,2.42,5.71,3.73,8.62,10.48,23.23,22.02,46.14,31.88,69.64l-5.7,3.05c-3.56,1.67-8.4,3.84-12.29,4.82-10.28,2.57-13.19-18.01-16.73-24.71-3.9-7.38-22-58.75-26.32-61.75-.45.07-2.37.37-2.71.12-3.86-2.83-7.75-14.25-9.07-18.07,6.82-2.2,15.74-3.03,22.91-3.65Z"/>
  <path class="st11" d="M200.21,246.67c-.85,2.18-2.82,6.92-3.09,9.05-.75,3.46-1.6,7.93-2.57,11.25-4.02,14.22-1.15,36.92,1.34,51.17,4.88,18.47,9.26,28.79,20.69,43.95,2.72,2.36,3.77,3.83,5.99,6.67l.79.67c.3.44,2.09,2.43,2.54,2.95-24.33,3.73-51.17,14.6-73.64.48-42.79-26.9-45.04-112,14.05-119.9,10.34-1.38,23.69-4.06,33.91-6.29Z"/>
  <path class="st17" d="M194.54,266.97c-4.02,14.22-1.15,36.92,1.34,51.17-4.9.32-9.89.86-14.77,1.39-17.74,1.96-37.52,3.02-45.84,21.49-4.75-10.67-8.14-20.99-7.42-32.86.12-2.06.27-5.08,1.21-6.86,1.3-1.52,4.03-8.02,5.54-10.28,14.51-21.73,38.25-18.45,59.36-23.91l.57-.15Z"/>
  <path class="st7" d="M197.11,255.72c-.75,3.46-1.6,7.93-2.57,11.25l-.57.15c-21.11,5.46-44.85,2.18-59.36,23.91-1.51,2.26-4.24,8.75-5.54,10.28,5.61-30.31,17.87-37.04,46.76-41.95l21.29-3.64Z"/>
  <path class="st17" d="M216.57,362.09c2.72,2.36,3.77,3.83,5.99,6.67-2.83.03-10.8,1.87-13.92,2.35-24.71,3.83-35.31,8.84-56.85-5.38,12.1,4.45,18.39,5.24,31.36,2.79,10.93-2.06,22.45-4.97,33.42-6.44Z"/>
  <path class="st4" d="M114.67,307.18c-.12,27.01,6.54,43.22,23.48,64-7.35-3.8-10.26-14.05-15.04-19.76-1.51,1.85-1.92,1.69-1.93,3.73-.02,3.48,11.54,15.9,11.09,17.48l-1.08-.06-.63-.75-.46-.09c-7.94-.16-27.27-43.59-21.31-53.74.69.81.23,1.61.27,2.77.16,5.62,2.66,13.15,4.56,18.19l.71.28.7-.71-.24-2.62c1.22-.78,1.42-.72,2.05-1.97.17-2.63-.99-3.85-1.52-6.13-1.29-5.55-2.94-15.55-.64-20.62Z"/>
  <path class="st6" d="M130.09,371.73c-8.55-8.64-15.15-21.36-18.61-33-.66-2.23-2.07-5.87-1.52-8.14l.43.29-.42-.3c.54,1.21.62,1.73.94,2.99,2.64,10.16,7.19,19.82,13.14,28.46,1.03,1.51,6,8.62,6.5,9.79l-.46-.09Z"/>
  <path class="st11" d="M107.42,285.7c.16,1.24-1.23,5.09-1.78,6.47-10.97,27.35-1.37,64.89,19.77,84.98l-6.7-.23c-5.54.04-10.54-1.29-16.34-1.13-3.2-8.01-5.34-12.61-7.05-21.24-4.7-23.76-1.41-48.46,12.11-68.84Z"/>
  <path class="st11" d="M104.61,383.68c11.34,2.33,22.83,1.77,34.34.74,8.62,9.11,12.49,13.58,22.82,20.86l-5.72-.43c-7.74-.05-17.07,1.69-24.35,4.23l-.74-.47c-1.91-1.23-4.06-2.63-6.14-3.55-7.76-3.43-14.97-7.57-22.42-11.6,2.43-.9,2.98-.55,4.44-2.24.33-1.45.21-1.55-.36-2.95l-1.86-4.59Z"/>
  <path class="st11" d="M186.88,55.68c3.42,4.54-1.76,30.65-4.07,36.45-6.49,4.88-14.17,9.03-21.21,13.18l-.44-.57c.9-4.09,10.87-34.89,13.22-38.04,3.15-4.21,8.43-7.7,12.5-11.02Z"/>
  <path class="st11" d="M107.45,408c6.89-.67,13.16,1.07,19.08,4.48-4.32,4.29-12.61,10.46-17.65,14.41-4.54-.74-8.63-1.26-13.2-1.76-6.05-.92-14.65-1.22-20.71-1.01,10.36-10.81,17.46-14.54,32.47-16.12Z"/>
  <path class="st11" d="M192.52,138.24c.48.13.19,0,.77.52-8.68,21.91-25.2,31.87-42.8,46.77-.38.08-.14.07-.69-.21.16-.99.29-1.75.62-2.69,8.46-23.92,21.14-33.43,42.1-44.39Z"/>
  <path class="st11" d="M149.88,388.78c10.91,2.51,21.05,6.57,32.63,5.4,1.74-.17,5.88-.26,7.43.42,4.15,4.34,8.16,16.93,10.39,22.98-1.72.2-6.84-2.31-8.64-3.07-15.01-6.33-30.29-13.99-41.82-25.74Z"/>
  <path class="st11" d="M129.57,418.64c.54.2,1.22.67,1.28,1.3,2.13,21.82-12.52,32.19-30.54,38.7l-.86.03-.14-.54c2.64-4.42,5.07-8.54,7.44-13.09,2.15-4.12,4.53-11.52,7.73-14.65,4.03-3.95,10.42-8.33,15.09-11.76Z"/>
  <path class="st11" d="M206.55,162.87c.36.26.14.06.46.76-12.53,15.67-32.57,25.52-52.25,28.34l-.45-.5.05-.82c2-1.77,4.31-3.36,6.43-5.13,6.51-5.42,12.53-11.2,19.18-16.47,5.13-4.06,12.12-3.2,18.26-4.2,3.09-.5,5.33-1.05,8.32-1.99Z"/>
  <path class="st11" d="M71.06,429.37c10.64-.42,20.06-.3,30.66,1.38-5.77,4.49-15.86,10.43-22.32,14.43-6.86,4-12.71,7.5-19.89,10.93,2.47-10.53,5.18-17.8,11.55-26.74Z"/>
  <path class="st11" d="M159.87,48.69l.43.55c.63,5.02,4.4,24.67,3.41,28.07-1.75,6.02-5.89,19.45-8.35,25.37l-.7.22c-6.29-27.82-9.23-30.13,5.22-54.22Z"/>
  <path class="st11" d="M58.16,220.13c7,1.72,16.17,3.67,22.58,6.63l19.75,28.8c-5.76-1.68-22.46-9.48-26.36-14.06-5.33-6.26-10.93-14.59-15.96-21.37Z"/>
  <path class="st11" d="M26.77,308.75c5.77,2.72,36.16,26.03,40.96,31.03-10.76.38-16.15-.67-26.3-3.43-6.26-5.95-12.68-19.36-14.67-27.6Z"/>
  <path class="st11" d="M88.65,230.06c8.61,1.4,37.45,20.73,34.79,31.24-4.55,1.58-11.73-.96-16.16-2.7-7.24-11.21-9.74-17.09-18.63-28.54Z"/>
  <path class="st11" d="M104.53,436.25l.34.32c-.25,3.44-11.42,20.94-14.22,24.09-7.86,1.27-15.07.57-22.88-.2-.84-.12-.36,0-1.39-.54.63-1.34,34.28-21.4,38.16-23.66Z"/>
  <path class="st11" d="M179.75,100.81l.39.44c-2.42,11.72-18.48,29.42-29.32,34.78l-.28-.31c-.6-2.64,6.74-19.85,8.27-23.42,6.95-2.52,14.6-7.53,20.93-11.49Z"/>
  <path class="st11" d="M65.47,314.88c8.67,3.61,14.14,8.99,20.61,15.55.09,7.16.25,12.31.9,19.44-10.42-9.02-14.55-11.98-18.84-25.87-.88-2.84-2.22-6.11-2.67-9.12Z"/>
  <path class="st11" d="M145.85,79.16c1.19,8.55,3.03,24.34,6.42,31.88-2.08,5.85-4.29,11.66-6.63,17.41l-.82,1.08c-.53-.47-.72-.67-.96-1.37-4.8-13.92-3.41-35.67,1.99-49Z"/>
  <path class="st11" d="M78.26,253.12c2.32.28,16.88,7.09,19.64,8.44-7.58,1.72-17.57,2.43-25.38,2.79l-3.91.44c-6.1-2.85-9.84-5.15-15.31-9.06,6.18.11,19.32-.55,24.96-2.6Z"/>
  <path class="st11" d="M44.42,342.1c10.76,2.24,17.82,2.75,28.63,2.66,3.43,2.87,6.84,5.78,10.21,8.72l-.22.97c-17.63,4.48-26.69-.15-38.62-12.35Z"/>
  <path class="st11" d="M222.08,135.28c.35.37.13.08.31,1.06-2.57,7.96-6.52,15.52-12.19,21.72-7.28,1.73-14.65,3.07-22.08,3.99l-.21-.27c1.13-2.65,29.86-23.08,34.17-26.51Z"/>
  <path class="st11" d="M30.89,304.83c10.45,1.12,18.17,3.18,27.86,7.16,2.37,5.08,5.28,14.66,7.47,20.48-1.38-.71-10.53-8.66-12.45-10.19-7.41-5.91-15.61-11.52-22.89-17.45Z"/>
  <path class="st11" d="M88.24,359.01l.26.03c1.18,1.22,10.59,24.86,11.47,27.62-3.04-2.23-7.4-6.4-10.32-9.02-6.36-5.91-13.01-11.49-19.94-16.71,4.87.02,13.66-1.2,18.54-1.91Z"/>
  <path class="st11" d="M35.08,365.13c3.9,1.43,9.28,4.46,13.83,6.13,11.19,4.12,20.37,7.28,30.85,13.31-24.48.45-28.01.46-44.68-19.44Z"/>
  <path class="st11" d="M89.87,151.03c2.25.69,5.22,2.53,7.38,3.27,13.12,4.49,17.45,13.24,23.93,25.28-12.88-3.53-24.68-17.63-31.31-28.55Z"/>
  <path class="st11" d="M177.31,27.23c.48,3.19-8.15,36.66-9.83,38.62l-.44-1.16c-1.16-6.52-1.98-14.51-3.08-21.37,3.43-6.29,8.37-11.08,13.35-16.1Z"/>
  <path class="st11" d="M30.76,217.28c5.98-.3,15.5,1.01,21.6,1.73,3.45,4.13,11.61,15.34,14.38,19.89-2.23-.78-6.42-3.52-8.58-4.81-9.34-5.6-17.68-11.81-27.4-16.81Z"/>
  <path class="st11" d="M168.03,441.75c1.28,2.04,1.38,12.41,1.04,15.17-1.09,8.78-2.64,11.62-9.06,16.9l-.55-.13c-1.09-3.34.9-20.47,2.11-24.38.47-1.52,5.05-6.17,6.46-7.57Z"/>
  <path class="st11" d="M162.21,423.45c5.4-.12,8.55.95,13.51,2.77-2.75,1.65-3.85,2.61-6.29,4.66-6.72.33-8.98.78-15.39,2.88-4.09,1.45-6.27,2.36-10.16,4.28,4.9-7.83,8.52-13.02,18.34-14.59Z"/>
  <path class="st11" d="M103.99,265.39c2.01.03,8.67,1.91,10.73,2.53-8.82,7.1-17.4,6.03-27.95,4.69-4.58-.73-7.9-2.1-12.1-3.92,9.87.05,19.71-1.05,29.32-3.3Z"/>
  <path class="st11" d="M163.6,435.9l.93-.05.3.43c-12.61,14.9-10.52,7.8-25.61,16.08-.55.19-.21.14-1.03-.04-.36-3.45,2.69-8.28,4.9-10.82,6.91-2.4,13.43-3.95,20.53-5.59Z"/>
  <path class="st11" d="M80.91,122.03c3.49,4.12,6.4,8.65,9.59,13.02,4.13,5.66,8.44,11,12.04,17.02-17.2-3.67-19.6-14.46-21.63-30.04Z"/>
  <path class="st11" d="M26.88,220.72c4.63,1.87,24.62,15.79,30.77,19.57-3.74.06-16.82-2.06-20.55-3.32-4.35-4.34-7.6-10.73-10.21-16.25Z"/>
  <path class="st11" d="M154.81,457.11c.8,1.92-.09,16.33-.2,19.81-4.88,3.34-8.1,5.08-13.59,7.27-.46-4.18,10.88-22.74,13.79-27.08Z"/>
  <path class="st11" d="M39.94,242.15c9.42,1.45,25.21,1.16,32.44,6.69l.04.81c-5.2.53-10.84,1.21-16.03,1.14-8.32-.11-11.18-3.18-16.44-8.63Z"/>
  <path class="st11" d="M151.05,452.3c.13.26.26.51.39.76-6.67,8.45-10.03,15.38-14.59,24.83-1.75-2.26-.72-15.26-.28-18.6,3.98-2.92,9.82-5.09,14.48-6.98Z"/>
  <path class="st11" d="M178.51,430.61l.67.27c5.06,7.1-1.16,21.97-5.05,28.66-.28.11-.57.23-.85.34,1.74-10.43.27-13.21-.32-23.63l5.54-5.64Z"/>
  <path class="st11" d="M96.53,208.16c15.08,1.91,16.81,3.12,27.1,13.67-11.74-1.19-18.72-5.93-27.1-13.67Z"/>
  <path class="st11" d="M109.18,140.25c8.21,6.83,13.2,22.03,14.32,32.63-.95-1.18-3.08-5.27-4.16-6.85-6.74-9.86-7.5-14.46-10.16-25.78Z"/>
  <path class="st11" d="M215.6,131.49l.35.47c-8.04,6.42-16.05,12.87-24.02,19.37l-.32-.17c-.02-.59,7.69-13.5,8.71-15.32,4.44-2.19,10.4-3.62,15.28-4.35Z"/>
  <path class="st11" d="M182.67,31.61c1.79,3.64,3.37,14.67,3.65,18.9-2.5,2.01-5.21,3.93-7.81,5.83-1.17.8-.53.65-1.85.75-.05-.55,5.52-22.65,6-25.48Z"/>
  <path class="st11" d="M55.11,360.84c9.73.73,19.46,9.56,24.68,17.28-5.75-2.52-21.95-11.34-24.68-17.28Z"/>
  <path class="st11" d="M87.87,388.04c1.36-.07,2.86.79,3.95,1.51l.08.83c-3.39,2.51-16.35,1.3-20.48.52l-7.99-2.72c9.9.71,14.57.42,24.44-.14Z"/>
  <path class="st11" d="M84.85,193.64c6.55,2.15,12.69,6.45,17.62,11.18-2.9-.13-6.04-.43-8.95-.66-3.98-2.76-6.94-5.95-8.67-10.53Z"/>
  <path class="st6" d="M100.56,192.02c6.49,2.37,11.83,8.54,13.03,15.38-6.17-2.14-10.99-9.51-13.03-15.38Z"/>
  <path class="st11" d="M98.18,130.03c6.18,3.14,7.72,12.78,9.12,18.96-5.01-3.57-8.24-13.06-9.12-18.96Z"/>
  <path class="st11" d="M84.01,117.66c6.33,3.01,10.43,10.4,12.64,16.68-4.09-3.64-10.04-12-12.64-16.68Z"/>
  <path class="st11" d="M40.51,361.27c7.37-.16,11.53,2.46,16.55,7.59-4.6-.82-12.55-5.05-16.55-7.59Z"/>
  <path class="st11" d="M117.01,203.74c4.42,3.3,6.16,8.07,7.65,13.08-3.74-2.68-6.24-8.78-7.65-13.08Z"/>
  <path class="st11" d="M84.32,186.79c5.76,1.44,9.68,3.48,13.29,8.16-4.25-1.36-9.71-5.5-13.29-8.16Z"/>
  <path class="st13" d="M125.59,274.71c.21.23.24.57.33.87l-3.2,5.92-.58-.62c.65-2.37,2.05-4.1,3.44-6.16Z"/>
  <path class="st1" d="M578.55,152.73c-4.24-8.25-3.34-20.51-.49-29.15,9.86-29.9,40-50.46,70.87-52.55,2.88-.2,6.96-.8,8.79,1.69.63,4.02-.18,8.31-.74,12.18-4.63,32.27-28.04,64.12-62.06,68.34-3.06.38-5.94.63-9.1.77-5.36,3.63-6.46,7.41-10.78,11.1-1.38-2.19-1.65-3.28-2.48-5.69,1.52-2.91,3.51-4.58,6-6.69Z"/>
  <path class="st11" d="M643.36,107.88l.11.65c-1.48,5.07-6.47,11.52-10.01,15.39-8.89,2.64-18.49,5.91-27.58,7.14l.03-.88c9.25-14.05,22.32-16.93,37.45-22.31Z"/>
  <path class="st11" d="M607.7,92.65l.62.29c-.08,7.75-4.32,35.86-12.74,37.67-2.14-7.76-1.39-14.45-2.45-22.25,4.18-6.5,8.76-10.76,14.57-15.71Z"/>
  <path class="st11" d="M626.48,82.32l.6.96c-2.33,18.14-3.96,20.29-16.83,33.04l-.31-.37c.77-6.18,3.1-22.18,4.29-27.75,3.85-2.44,8-4.26,12.24-5.88Z"/>
  <path class="st11" d="M626.89,130.83l.52.14-.26.8c-11.32,10.04-21.16,14.28-35.92,16.58l-.72-.15-.09-.64c2.6-3.94,5.75-7.48,9.36-10.53,10.2-1.56,17.34-2.69,27.1-6.2Z"/>
  <path class="st11" d="M650.08,83.24l.35.4c.33,4.48-2.66,14.33-4.35,18.62l-20.68,7.03-.31-.16c.33-1.22,22.07-22.54,24.98-25.89Z"/>
  <path class="st11" d="M588.96,113.24l.36.47c-.09,5.29.36,18.42,1.95,23.02-2.53,3.28-5.57,6.78-8.22,10l-.92.41-.6-.53c-1.85-11.61,1.45-23.44,7.43-33.36Z"/>
  <path class="st11" d="M643,77.93c1.51-.18,2.48-.42,3.97-.08-.89,2.99-12.21,13.33-15.16,16.05l-2.91,3.14c1.43-5.77,2.51-10.93,3.64-16.76,3.78-1.06,6.59-1.63,10.47-2.35Z"/>
  <path class="st18" d="M582.42,184.8c14.9-26.81,51.55-34.09,78.53-22.83-6.23,16.39-23.71,29.63-39.32,36.37-12.54,5.42-20.12,6.39-33.33,5.91-.84-2.6-1.11-4.35-1.57-7.01-1.21-1.95-3.74-10.05-4.31-12.44Z"/>
  <path class="st11" d="M586.73,197.24c11.57-8.4,14.94-2.39,27.79-2.51l.54.34c-3.76,3.11-23.34,4.79-28.33,2.17Z"/>
  <path class="st11" d="M615.55,164.35l.32.42c-11.1,16.35-11.79,18.98-29.79,26.72l-.38-.26c5.84-13.66,16.49-21.48,29.85-26.87Z"/>
  <path class="st11" d="M629.69,162.5c.34-.05,1.68-.08,2.07-.09l.17.75c-4.17,8.96-8.93,11.07-17.07,14.7-.95.45-1.11.43-2.13.7.21-1.94,7.67-10.94,9.23-13.07,2.24-3.06,4-2.63,7.74-2.99Z"/>
  <path class="st11" d="M615.89,184.48c4.54.42,10.92,1.7,15.55,2.49-3.62,1.95-5.28,2.38-9.15,3.47-6.72.81-10.06.09-16.26-2.01,3.82-2.46,5.23-3.26,9.85-3.95Z"/>
  <path class="st11" d="M635.74,176.9c2.2-.05,4.98-.39,6.61,1.09l-.11,1.11c-1.61,2.08-3.74,2.98-6.08,4.28-2.74.1-5.18-.16-7.9-.39-3.3-.21-4.93-.27-8.17-1.01,4.57-1.85,10.86-4.02,15.65-5.08Z"/>
  <path class="st11" d="M639.1,162.34c4.35.52,8.11,1.11,12.43,1.89-3.69,1.42-7.84,2.77-11.6,4.09-3.39,1.12-6.29,2.26-9.61,3.59,3.27-3.11,6.17-5.87,8.77-9.57Z"/>
  <path class="st11" d="M648.13,170.83l.26.2.05.69c-2.67,2.43-5.55,2.59-9.04,3.09l-.29-.16c1.17-1.09,7.12-3.1,9.02-3.82Z"/>
  <path class="st13" d="M192.8,194.99c2.08-.14,2.4-.26,4.35.32.66.71,1.07.92.96,2.2-.98,11.09-7.24,23.19-14.36,31.17-10.35,11.6-20.76,15.94-35.61,16.97-1.84-.05-2.33,0-4.13-.56-1.21-1.08-2.27-3.08-2.22-4.71.76-26.15,27.78-43.33,51.02-45.4Z"/>
  <path class="st11" d="M189.45,206.75c.06,1.85-2.09,6.28-3.15,7.86-9.38,13.86-17.62,20.56-33.21,24.8.79-5.45,31.6-28.32,36.36-32.66Z"/>
  <path class="st11" d="M164.99,210.71c1.16,7.37-11.09,18.99-15.66,24.69-1.03-7.41,9.76-20.54,15.66-24.69Z"/>
  <path class="st11" d="M186.92,201.9l.26.04.07.52c-5.39,4.19-11.79,8.59-17.37,12.62l-.2.05-.42-.29c3.91-11.07,6.9-10.21,17.67-12.94Z"/>
</svg>