<svg version="1.1" xmlns="http://www.w3.org/2000/svg" style="display: block;" viewBox="0 0 2048 2048" width="1024" height="1024" preserveAspectRatio="none">
<path transform="translate(0,0)" fill="rgb(214,220,212)" d="M 0 0 L 2048 0 L 2048 2048 L 0 2048 L 0 0 z"/>
<path transform="translate(0,0)" fill="rgb(33,45,41)" d="M 1024 449.702 C 1028.12 452.495 1049.43 480.403 1054.33 486.514 C 1093.44 535.332 1133.58 583.265 1173.76 631.205 C 1252.98 726.289 1334.15 819.736 1417.21 911.486 C 1440.68 937.56 1464.6 963.238 1488.94 988.507 C 1500.4 1000.63 1511.08 1012.79 1523.02 1024.51 C 1452.21 1095.53 1379.55 1178.08 1313.82 1253.87 C 1215.36 1367.14 1119.04 1482.26 1024.9 1599.14 C 1021.02 1596.2 989.099 1556.05 983.34 1548.93 C 955.931 1514.95 928.167 1481.26 900.051 1447.86 C 775.886 1301.04 661.258 1162.35 525.653 1024.74 C 539.025 1011.65 554.612 994.288 567.815 980.44 C 611.561 934.279 654.493 887.354 696.591 839.685 C 808.955 712.436 918.125 582.401 1024 449.702 z"/>
<path transform="translate(0,0)" fill="rgb(201,149,116)" d="M 1024.09 472.607 C 1027.69 475.994 1030.5 490.856 1031.62 495.921 C 1086.27 743.189 1280.49 932.615 1510.74 1024.13 C 1462.63 1044.91 1421 1063.47 1376.09 1090.97 C 1277.35 1150.38 1192.99 1230.91 1129.05 1326.77 C 1107.08 1359.54 1085.67 1396.79 1070.16 1433.08 C 1057.96 1461.34 1047.8 1490.44 1039.78 1520.17 C 1034.59 1539.33 1032.2 1556.37 1025.18 1575.29 C 1021.92 1572.59 1016.12 1545.81 1014.56 1539.25 C 963.007 1322.3 793.696 1142.93 595.554 1048.49 C 577.343 1039.81 557.817 1033.15 539.292 1024.28 C 559.723 1015.1 581.139 1006.66 601.115 996.994 C 788.622 906.225 947.249 740.173 1007.12 538.217 C 1013.32 517.312 1016.55 492.831 1024.09 472.607 z"/>
<path transform="translate(0,0)" fill="rgb(33,45,41)" d="M 1024.26 521.609 C 1026.85 524.375 1032 542.83 1033.53 547.977 C 1082.25 711.924 1197.41 851.617 1337.87 946.596 C 1379.32 974.626 1422.55 999.448 1469.4 1017.81 L 1351.98 1017.56 L 1352.19 1030.96 C 1391.61 1030.47 1429.33 1029.71 1468.86 1030.02 C 1448.67 1038.08 1428.23 1048.9 1409.01 1059.14 C 1287.25 1123.35 1184.23 1218.08 1110.06 1334.05 C 1076.69 1386.29 1049.96 1442.13 1033 1501.93 C 1031.81 1506.13 1026.59 1527.22 1024.35 1529.39 C 1016.02 1497.94 1005.68 1467.06 993.388 1436.94 C 926.539 1277.25 787.325 1132.91 633.632 1055.64 C 614.784 1046.16 599.966 1037.87 580.408 1029.88 C 597.263 1030.71 613.838 1030 630.682 1030.02 C 652.861 1030.23 675.039 1030.57 697.214 1031.04 L 697.758 1017.18 C 658.711 1018.45 620.324 1017.56 581.303 1017.93 C 598.663 1011.34 617.379 1002.3 633.893 993.524 C 782.813 914.338 911.392 787.924 983.477 634.572 C 1000.45 598.461 1012.55 559.525 1024.26 521.609 z"/>
<path transform="translate(0,0)" fill="rgb(201,149,116)" d="M 1024.23 864.647 C 1027.24 871.703 1029.74 880.663 1032.25 888.153 C 1054.96 955.983 1118.37 1012.26 1189.96 1024.02 C 1101.57 1042.5 1051.33 1099.4 1025.26 1183.14 C 1023.31 1182.15 1021.91 1175.42 1021.15 1172.91 C 997.45 1094.07 940.528 1042.39 860.354 1024.08 C 945.888 1005.56 1002.18 948.435 1024.23 864.647 z"/>
<path transform="translate(0,0)" fill="rgb(67,108,95)" d="M 1129.67 907.903 C 1132.53 908.587 1140.68 911.647 1144.53 912.754 C 1158.37 916.679 1172.34 920.127 1186.41 923.094 C 1228.4 931.666 1280.36 938.163 1321.2 952.309 C 1336.16 957.49 1359.04 977.139 1374.07 984.627 C 1381.59 988.371 1403.25 1000.31 1408.61 1005.32 C 1309.43 1010.48 1204.92 972.081 1129.67 907.903 z"/>
<path transform="translate(0,0)" fill="rgb(67,108,95)" d="M 640.535 1042.5 C 647.729 1042.22 656.487 1042.61 663.758 1042.79 C 743.465 1045.04 820.816 1070.32 886.476 1115.56 C 894.021 1120.75 913.043 1133.73 919.248 1140.25 C 859.753 1119.93 792.077 1114.87 731.201 1098.76 C 728.402 1098.02 699.259 1079.54 697.303 1077.54 C 689.73 1069.77 642.75 1047.96 640.535 1042.5 z"/>
<path transform="translate(0,0)" fill="rgb(67,108,95)" d="M 915.343 909.029 L 915.968 909.067 L 916.254 910.027 C 857.192 960.063 783.36 992.643 706.491 1002.87 C 686.061 1005.59 663.897 1005.42 643.172 1005.63 L 641.999 1005.41 L 641.613 1004.24 C 644.359 1001.94 673.73 985.662 680.395 981.682 C 695.315 974.749 715.331 956.69 729.821 951.694 C 787.987 931.635 858.152 930.252 915.343 909.029 z"/>
<path transform="translate(0,0)" fill="rgb(67,108,95)" d="M 1390.97 1042.43 L 1411.63 1041.81 C 1407.63 1044.62 1315.54 1099.54 1317.28 1099.13 C 1261.45 1112.3 1203.08 1121.13 1146.73 1134.71 C 1142.13 1136.6 1134.45 1138.96 1129.53 1140.66 C 1211.41 1076.57 1286.95 1046.85 1390.97 1042.43 z"/>
<path transform="translate(0,0)" fill="rgb(67,108,95)" d="M 1008.08 728.514 C 1012.91 737.595 987.95 801.532 981.471 813.457 C 963.513 846.512 944.109 884.966 905.195 896.257 C 875.843 904.774 853.628 906.967 826.066 893.015 L 813.227 883.722 C 893.458 866.942 973.782 802.747 1008.08 728.514 z"/>
<path transform="translate(0,0)" fill="rgb(67,108,95)" d="M 1039.66 728.584 C 1041.77 729.74 1054.07 751.965 1056.37 755.779 C 1098.93 826.306 1161.69 860.761 1237.22 884.321 L 1225.96 892.055 C 1195.55 909.136 1148.43 904.614 1121.07 884.404 C 1078.06 852.632 1049.46 779.607 1039.66 728.584 z"/>
<path transform="translate(0,0)" fill="rgb(67,108,95)" d="M 854.67 1146.26 C 890.044 1142.51 927.407 1155.84 949.628 1184.03 C 981.111 1223.98 1000.8 1273.69 1010.09 1323.33 C 1005.3 1313.3 1001.92 1306.98 996.126 1297.39 C 954.937 1230.21 888.654 1182.24 811.969 1164.1 C 828.228 1153.97 836.112 1149.5 854.67 1146.26 z"/>
<path transform="translate(0,0)" fill="rgb(67,108,95)" d="M 1172.71 1146.37 C 1199.71 1143.15 1215.18 1150.13 1237.55 1163.86 C 1166.74 1183.59 1110.01 1218.36 1065.66 1277.92 C 1054.04 1295.19 1048.23 1304.42 1039.64 1323.28 C 1046.23 1280.04 1069.39 1224.08 1095.84 1189.12 C 1115.9 1162.6 1139.8 1150.5 1172.71 1146.37 z"/>
<path transform="translate(0,0)" fill="rgb(67,108,95)" d="M 813.962 1171.9 C 824.481 1171.33 846.463 1180.26 856.123 1184.25 C 919.722 1210.54 978.56 1262.69 1005.64 1326.44 C 1003.18 1325.42 993.126 1311.58 990.557 1308.49 C 970.492 1284.38 948.217 1263.27 923.584 1243.88 C 888.933 1216.6 849.939 1197.27 813.962 1171.9 z"/>
<path transform="translate(0,0)" fill="rgb(67,108,95)" d="M 1042.94 720.891 C 1047.58 724.409 1063.62 745.584 1068.95 751.505 C 1085.06 769.128 1102.37 785.612 1120.77 800.838 C 1141.69 817.981 1164.89 832.141 1187.94 846.196 C 1204.37 856.222 1219.6 864.584 1234.45 877.123 C 1225.28 875.315 1213.07 871.626 1204.16 868.396 C 1132.86 842.762 1074.79 789.639 1042.94 720.891 z"/>
<path transform="translate(0,0)" fill="rgb(67,108,95)" d="M 1229.48 1172.03 C 1231.67 1171.88 1230.61 1171.7 1232.65 1172.63 C 1231.54 1176.13 1220.84 1183.36 1217.35 1185.28 C 1152.45 1220.87 1091.47 1263.08 1046.88 1323.32 L 1046.09 1324.31 L 1045.36 1324.15 C 1071.55 1249.59 1156.93 1193.99 1229.48 1172.03 z"/>
<path transform="translate(0,0)" fill="rgb(67,108,95)" d="M 1004.88 720.857 C 1004.94 729.606 978.106 769.465 971.934 777.619 C 961.659 791.274 949.873 803.724 936.801 814.731 C 910.105 837.288 852.662 871.103 817.711 876.04 C 818.463 871.375 848.247 854.733 853.701 851.606 C 910.282 819.16 967.294 774.95 1004.88 720.857 z"/>
<path transform="translate(0,0)" fill="rgb(201,149,116)" d="M 1024.36 562.731 C 1027.28 566.549 1040.3 606.107 1043.43 614.403 C 1037.15 627.79 1031.16 641.779 1025.17 655.339 C 1022.55 654.183 1008.34 619.789 1006.04 614.521 C 1010.14 600.362 1019.19 577.971 1024.36 562.731 z"/>
<path transform="translate(0,0)" fill="rgb(201,149,116)" d="M 1024.36 1393.72 C 1027.18 1397.3 1041.31 1429.19 1043.86 1434.83 C 1036.84 1449.06 1030.68 1468.96 1025.79 1484.36 C 1022.74 1481.16 1008.8 1440.98 1006.19 1433.85 L 1024.36 1393.72 z"/>
<path transform="translate(0,0)" fill="rgb(67,108,95)" d="M 568.553 1050.75 C 594.863 1059.79 639.815 1084.98 663.552 1099.21 C 736.237 1142.78 793.169 1191.3 849.05 1254.53 C 928.935 1344.9 978.399 1437.87 1006.39 1555.37 C 999.889 1550.97 961.201 1501.1 953.165 1491.45 L 799.796 1308.55 C 725.405 1220.24 648.287 1134.27 568.553 1050.75 z"/>
<path transform="translate(0,0)" fill="rgb(67,108,95)" d="M 1478.9 1051.21 L 1479.34 1052.05 C 1423.87 1108.44 1368.08 1171.76 1316.15 1231.57 C 1270.66 1283.57 1225.73 1336.06 1181.37 1389.03 L 1095.49 1492.47 C 1079.76 1511.33 1058.39 1535.4 1044.18 1554.58 L 1043.5 1554.15 C 1043.24 1546.2 1062.93 1486.64 1066.03 1477.81 C 1118.96 1327.23 1233.85 1196.02 1367.33 1110.53 C 1402.07 1088.28 1441.62 1068.95 1478.9 1051.21 z"/>
<path transform="translate(0,0)" fill="rgb(67,108,95)" d="M 1042.96 493.684 C 1046.88 496.482 1069.13 525.206 1073.87 530.905 L 1179.42 658.149 C 1227.76 715.205 1276.59 771.839 1325.92 828.045 C 1376.2 886.226 1428.1 942.998 1481.54 998.297 C 1476.61 997.149 1464.93 991.294 1459.98 988.947 C 1295.45 911.042 1152.5 774.953 1080.17 606.582 C 1063.87 568.637 1053.08 533.748 1042.96 493.684 z"/>
<path transform="translate(0,0)" fill="rgb(67,108,95)" d="M 1005.75 492.793 C 1005.76 506.195 984.827 566.261 979.046 581.543 C 923.915 727.276 817.081 846.712 689.077 933.318 C 649.809 959.886 612.374 978.339 569.918 997.848 C 569.957 997.261 569.996 996.674 570.035 996.086 C 586.816 979.476 631.635 930.718 645.544 915.498 C 769.698 778.129 889.819 637.167 1005.75 492.793 z"/>
</svg>