<?xml version="1.0" encoding="UTF-8"?>
<svg id="Calque_1" xmlns="http://www.w3.org/2000/svg" version="1.1" viewBox="0 0 1024 1024">
  <!-- Generator: Adobe Illustrator 30.2.1, SVG Export Plug-In . SVG Version: 2.1.1 Build 1)  -->
  <defs>
    <style>
      .st0 {
        fill: #c57f5e;
      }

      .st1 {
        fill: #e4a986;
      }

      .st2 {
        fill: #3f615e;
      }
    </style>
  </defs>
  <path class="st2" d="M204.58,55.33l619.28-.33c21.19,21.18,185.62,234.35,195.55,256.58-.5,19.71-106.15,152.99-125.6,178.95-78.52,105.71-158.14,210.58-238.88,314.6-16.49,22.65-115.11,156.34-128.97,161.95-6.4,2.6-19.11,2.53-25.49-.14-8.48-3.55-16.64-16.08-22.18-23.02-100.6-126.13-195.53-257.34-293.83-385.3-40.46-52.4-80.61-105.04-120.46-157.91-15.23-20.21-49.44-63.59-59.42-83.96,2.21-5.35,5.7-12.86,9.15-17.44,54.83-72.65,112.1-143.45,166.94-216.11,7.7-10.2,14.63-19.03,23.9-27.89Z"/>
  <path class="st1" d="M336.03,353.53l355.47.1c-38.38,118.03-85.98,243.36-129.49,359.99-12.12,38.16-34.85,94.02-49.05,132.73-11.24-29.39-22.12-59.04-32.38-88.78-46.66-134.98-99.56-268.53-144.55-404.05Z"/>
  <path class="st0" d="M751.86,353.41l174.27.21c-82.41,109.02-165.74,224.11-249.62,331.36-26.73,34.56-56.72,70.26-81.73,105.68,14.86-37.89,27.88-78.5,42.06-116.92,39.73-106.27,78.07-213.06,115.02-320.32Z"/>
  <path class="st0" d="M101.6,353.79l172.14.21c23.98,57.44,48.25,132.55,69.93,192.25,28.33,78.01,59.92,159.47,86.57,237.55-21.44-12.81-288.27-377.8-328.64-430Z"/>
  <path class="st1" d="M512.53,133.16c13.18,6.54,133.92,141.25,154.89,163.83-53.17-.29-106.36-.23-159.52.17-48.53.06-102.87-1.24-150.86.99,51.64-52.37,102.99-111.21,155.5-164.98Z"/>
  <path class="st1" d="M260.37,113.68c60.11-2.36,131.66-.51,192.26.07-23.26,25.8-47.05,51.12-71.35,75.95-24.38,25.75-48.33,51.42-73.98,75.93-15.34-50.74-30.99-101.39-46.93-151.95Z"/>
  <path class="st1" d="M574.9,113.31c62.82-1.07,128.29-.23,191.18.44-11.6,39.17-23.84,78.15-36.68,116.93-3.37,11.82-7.26,23.82-10.9,35.58-48.94-49.86-95.3-102.65-143.6-152.95Z"/>
  <path class="st0" d="M815.99,139.59c11.51,11.55,34.94,43,45.09,56.26l77.39,101.49-43.01-.26c-42.27.29-84.53-.09-126.78-1.12,15.11-52.27,32.32-103.96,47.31-156.37Z"/>
  <path class="st1" d="M208.55,140.15c7.16,8.43,42.19,135.54,47.77,154.78-37.71,2.11-77.82,1.61-115.78,1.74l-51.88.17c37.54-50.71,79.85-108.35,119.89-156.69Z"/>
</svg>